<svg id="body" xmlns="http://www.w3.org/2000/svg" xmlns:xlink="http://www.w3.org/1999/xlink" viewBox="0 0 1814.89 2282.08"><defs><style>.cls-1,.cls-10,.cls-11,.cls-12,.cls-13,.cls-14,.cls-15,.cls-16,.cls-17,.cls-18,.cls-19,.cls-2,.cls-20,.cls-21,.cls-22,.cls-23,.cls-24,.cls-25,.cls-26,.cls-27,.cls-28,.cls-3,.cls-33,.cls-34,.cls-35,.cls-36,.cls-37,.cls-38,.cls-39,.cls-4,.cls-40,.cls-41,.cls-42,.cls-43,.cls-44,.cls-45,.cls-46,.cls-47,.cls-48,.cls-49,.cls-5,.cls-50,.cls-51,.cls-52,.cls-53,.cls-54,.cls-55,.cls-56,.cls-57,.cls-58,.cls-59,.cls-6,.cls-60,.cls-61,.cls-62,.cls-63,.cls-64,.cls-65,.cls-66,.cls-67,.cls-68,.cls-69,.cls-7,.cls-70,.cls-71,.cls-72,.cls-73,.cls-74,.cls-75,.cls-76,.cls-77,.cls-8,.cls-9{fill:none;stroke-miterlimit:10}.cls-1,.cls-14,.cls-35,.cls-64,.cls-65{stroke-width:3.62px}.cls-1{stroke:url(#linear-gradient)}.cls-15,.cls-2,.cls-33,.cls-34,.cls-36,.cls-63,.cls-66{stroke-width:4px}.cls-2{stroke:url(#linear-gradient-2)}.cls-16,.cls-3,.cls-42,.cls-68{stroke-width:3.33px}.cls-3{stroke:url(#linear-gradient-3)}.cls-11,.cls-12,.cls-17,.cls-18,.cls-20,.cls-21,.cls-22,.cls-26,.cls-27,.cls-4,.cls-43,.cls-44,.cls-45,.cls-46,.cls-5,.cls-53,.cls-54,.cls-55,.cls-56,.cls-6,.cls-69,.cls-7,.cls-70,.cls-71,.cls-72{stroke-width:3.53px}.cls-4{stroke:url(#linear-gradient-4)}.cls-5{stroke:url(#linear-gradient-5)}.cls-6{stroke:url(#linear-gradient-6)}.cls-7{stroke:url(#linear-gradient-7)}.cls-23,.cls-24,.cls-48,.cls-49,.cls-51,.cls-58,.cls-59,.cls-60,.cls-61,.cls-74,.cls-75,.cls-76,.cls-8,.cls-9{stroke-width:3.05px}.cls-8{stroke:url(#linear-gradient-8)}.cls-9{stroke:url(#linear-gradient-9)}.cls-10,.cls-13,.cls-25,.cls-28,.cls-52,.cls-62,.cls-77{stroke-width:2.94px}.cls-10{stroke:url(#linear-gradient-10)}.cls-11{stroke:url(#linear-gradient-11)}.cls-12{stroke:url(#linear-gradient-12)}.cls-13{stroke:url(#linear-gradient-13)}.cls-14{stroke:url(#linear-gradient-14)}.cls-15{stroke:url(#linear-gradient-15)}.cls-16{stroke:url(#linear-gradient-16)}.cls-17{stroke:url(#linear-gradient-17)}.cls-18{stroke:url(#linear-gradient-18)}.cls-19{stroke-width:3.02px;stroke:url(#linear-gradient-19)}.cls-20{stroke:url(#linear-gradient-20)}.cls-21{stroke:url(#linear-gradient-21)}.cls-22{stroke:url(#linear-gradient-22)}.cls-23{stroke:url(#linear-gradient-23)}.cls-24{stroke:url(#linear-gradient-24)}.cls-25{stroke:url(#linear-gradient-25)}.cls-26{stroke:url(#linear-gradient-26)}.cls-27{stroke:url(#linear-gradient-27)}.cls-28{stroke:url(#linear-gradient-28)}.cls-29{fill:url(#linear-gradient-29)}.cls-30{fill:url(#linear-gradient-30)}.cls-31{fill:url(#linear-gradient-31)}.cls-32{fill:url(#linear-gradient-32)}.cls-33{stroke:url(#linear-gradient-33)}.cls-34{stroke:url(#linear-gradient-34)}.cls-35{stroke:url(#linear-gradient-35)}.cls-36{stroke:url(#linear-gradient-36)}.cls-37{stroke-width:3.86px;stroke:url(#linear-gradient-37)}.cls-38,.cls-41{stroke-width:3.45px}.cls-38{stroke:url(#linear-gradient-38)}.cls-39,.cls-40,.cls-67{stroke-width:3.12px}.cls-39{stroke:url(#linear-gradient-39)}.cls-40{stroke:url(#linear-gradient-40)}.cls-41{stroke:url(#linear-gradient-41)}.cls-42{stroke:url(#linear-gradient-42)}.cls-43{stroke:url(#linear-gradient-43)}.cls-44{stroke:url(#linear-gradient-44)}.cls-45{stroke:url(#linear-gradient-45)}.cls-46{stroke:url(#linear-gradient-46)}.cls-47,.cls-57,.cls-73{stroke-width:3.41px}.cls-47{stroke:url(#linear-gradient-47)}.cls-48{stroke:url(#linear-gradient-48)}.cls-49{stroke:url(#linear-gradient-49)}.cls-50{stroke-width:2.75px;stroke:url(#linear-gradient-50)}.cls-51{stroke:url(#linear-gradient-51)}.cls-52{stroke:url(#linear-gradient-52)}.cls-53{stroke:url(#linear-gradient-53)}.cls-54{stroke:url(#linear-gradient-54)}.cls-55{stroke:url(#linear-gradient-55)}.cls-56{stroke:url(#linear-gradient-56)}.cls-57{stroke:url(#linear-gradient-57)}.cls-58{stroke:url(#linear-gradient-58)}.cls-59{stroke:url(#linear-gradient-59)}.cls-60{stroke:url(#linear-gradient-60)}.cls-61{stroke:url(#linear-gradient-61)}.cls-62{stroke:url(#linear-gradient-62)}.cls-63{stroke:url(#linear-gradient-63)}.cls-64{stroke:url(#linear-gradient-64)}.cls-65{stroke:url(#linear-gradient-65)}.cls-66{stroke:url(#linear-gradient-66)}.cls-67{stroke:url(#linear-gradient-67)}.cls-68{stroke:url(#linear-gradient-68)}.cls-69{stroke:url(#linear-gradient-69)}.cls-70{stroke:url(#linear-gradient-70)}.cls-71{stroke:url(#linear-gradient-71)}.cls-72{stroke:url(#linear-gradient-72)}.cls-73{stroke:url(#linear-gradient-73)}.cls-74{stroke:url(#linear-gradient-74)}.cls-75{stroke:url(#linear-gradient-75)}.cls-76{stroke:url(#linear-gradient-76)}.cls-77{stroke:url(#linear-gradient-77)}</style><linearGradient id="linear-gradient" x1="5763.63" y1="-463.87" x2="6285.42" y2="-463.87" gradientTransform="rotate(-28.4 6623.856 10550.814)" gradientUnits="userSpaceOnUse"><stop offset="0" stop-color="#ea6e61"/><stop offset="1" stop-color="#ea625d"/></linearGradient><linearGradient id="linear-gradient-2" x1="2041.79" y1="352.91" x2="2670.62" y2="352.91" gradientTransform="rotate(-8.1 7095.128 10414.075)" xlink:href="#linear-gradient"/><linearGradient id="linear-gradient-3" x1="9689.83" y1="21547.14" x2="10156.46" y2="21547.14" gradientTransform="matrix(-.9 .25 -.26 -.96 15594.64 19535.43)" xlink:href="#linear-gradient"/><linearGradient id="linear-gradient-4" x1="5686.35" y1="-479.17" x2="6184.11" y2="-479.17" gradientTransform="matrix(.89 -.45 .45 .89 -4068.71 4220.52)" xlink:href="#linear-gradient"/><linearGradient id="linear-gradient-5" x1="1834.12" y1="521.24" x2="2323.9" y2="521.24" gradientTransform="matrix(.99 -.11 .11 .99 -1166.15 843.21)" xlink:href="#linear-gradient"/><linearGradient id="linear-gradient-6" x1="4490.7" y1="-302.44" x2="4981.6" y2="-302.44" gradientTransform="matrix(.94 -.35 .35 .94 -3364.93 3081.81)" xlink:href="#linear-gradient"/><linearGradient id="linear-gradient-7" x1="5854.03" y1="-468.35" x2="6351.79" y2="-468.35" xlink:href="#linear-gradient"/><linearGradient id="linear-gradient-8" x1="11183.51" y1="21007.67" x2="11548.56" y2="21007.67" gradientTransform="matrix(-.99 .11 -.11 -.99 14687.68 20759.75)" xlink:href="#linear-gradient"/><linearGradient id="linear-gradient-9" x1="8539.81" y1="21834.51" x2="8906.93" y2="21834.51" gradientTransform="matrix(-.94 .35 -.35 -.94 16886.47 18521.15)" xlink:href="#linear-gradient"/><linearGradient id="linear-gradient-10" x1="9622.14" y1="21561.98" x2="9984" y2="21561.98" gradientTransform="matrix(-.9 .25 -.26 -.96 15594.64 19535.43)" xlink:href="#linear-gradient"/><linearGradient id="linear-gradient-11" x1="5784.26" y1="-425.68" x2="6282.02" y2="-425.68" xlink:href="#linear-gradient"/><linearGradient id="linear-gradient-12" x1="2189.9" y1="389.43" x2="2678.68" y2="389.43" gradientTransform="rotate(-8.1 7095.128 10414.075)" xlink:href="#linear-gradient"/><linearGradient id="linear-gradient-13" x1="9685.41" y1="21505.26" x2="10047.27" y2="21505.26" gradientTransform="matrix(-.9 .25 -.26 -.96 15594.64 19535.43)" xlink:href="#linear-gradient"/><linearGradient id="linear-gradient-14" x1="3286.97" y1="-195.9" x2="3808.76" y2="-195.9" gradientTransform="matrix(.96 -.27 .27 .96 -2598.67 2252.69)" xlink:href="#linear-gradient"/><linearGradient id="linear-gradient-15" x1="-55.74" y1="1422.43" x2="414.52" y2="1422.43" gradientTransform="translate(689.38 -324.65)" xlink:href="#linear-gradient"/><linearGradient id="linear-gradient-16" x1="12224.73" y1="20751.16" x2="12691.35" y2="20751.16" gradientTransform="matrix(-.93 .05 -.06 -1 13532.83 21223.38)" xlink:href="#linear-gradient"/><linearGradient id="linear-gradient-17" x1="4788.42" y1="-715.95" x2="5286.18" y2="-715.95" gradientTransform="matrix(.92 -.38 .38 .92 -3514.95 3688.16)" xlink:href="#linear-gradient"/><linearGradient id="linear-gradient-18" x1="16415.56" y1="20811.01" x2="16913.32" y2="20811.01" gradientTransform="rotate(-180 8740.9 11004.96)" xlink:href="#linear-gradient"/><linearGradient id="linear-gradient-19" x1="19138.64" y1="21153.66" x2="19636.32" y2="21153.66" gradientTransform="matrix(-.83 -.1 .1 -.87 14907.71 21372.29)" xlink:href="#linear-gradient"/><linearGradient id="linear-gradient-20" x1="-332.15" y1="1691.68" x2="112.69" y2="1691.68" gradientTransform="translate(1075.49 -574.26)" xlink:href="#linear-gradient"/><linearGradient id="linear-gradient-21" x1="2065.92" y1="268.65" x2="2556.82" y2="268.65" gradientTransform="rotate(-8.1 6963.447 10762.296)" xlink:href="#linear-gradient"/><linearGradient id="linear-gradient-22" x1="3384.3" y1="-188.06" x2="3882.06" y2="-188.06" gradientTransform="matrix(.96 -.27 .27 .96 -2598.67 2252.69)" xlink:href="#linear-gradient"/><linearGradient id="linear-gradient-23" x1="13394.59" y1="19860.15" x2="13759.65" y2="19860.15" gradientTransform="rotate(-180 6733.3 10778.19)" xlink:href="#linear-gradient"/><linearGradient id="linear-gradient-24" x1="10964.59" y1="21263.42" x2="11331.7" y2="21263.42" gradientTransform="rotate(171.9 6727.358 10810.253)" xlink:href="#linear-gradient"/><linearGradient id="linear-gradient-25" x1="12157.04" y1="20766" x2="12518.9" y2="20766" gradientTransform="matrix(-.93 .05 -.06 -1 13532.83 21223.38)" xlink:href="#linear-gradient"/><linearGradient id="linear-gradient-26" x1="3307.6" y1="-157.71" x2="3805.36" y2="-157.71" gradientTransform="matrix(.96 -.27 .27 .96 -2598.67 2252.69)" xlink:href="#linear-gradient"/><linearGradient id="linear-gradient-27" x1="-66.22" y1="1445.64" x2="422.56" y2="1445.64" gradientTransform="translate(689.38 -324.65)" xlink:href="#linear-gradient"/><linearGradient id="linear-gradient-28" x1="12220.31" y1="20709.28" x2="12582.17" y2="20709.28" gradientTransform="matrix(-.93 .05 -.06 -1 13532.83 21223.38)" xlink:href="#linear-gradient"/><linearGradient id="linear-gradient-29" x1="569.87" y1="1127.61" x2="1229.83" y2="1127.61" gradientUnits="userSpaceOnUse"><stop offset="0" stop-color="#ed6f66"/><stop offset="1" stop-color="#ec916c"/></linearGradient><linearGradient id="linear-gradient-30" x1="-3835.78" y1="-4677.48" x2="-3755.45" y2="-4677.48" gradientTransform="matrix(.63 0 0 .63 3319.8 3975.54)" gradientUnits="userSpaceOnUse"><stop offset="0" stop-color="#ec916c"/><stop offset="1" stop-color="#ed6f66"/></linearGradient><linearGradient id="linear-gradient-31" x1="-3959.83" y1="-4581.53" x2="-3662.97" y2="-4581.53" gradientTransform="matrix(.63 0 0 .63 3319.8 3975.54)" gradientUnits="userSpaceOnUse"><stop offset="0" stop-color="#eda26b"/><stop offset=".77" stop-color="#efdb8a"/></linearGradient><linearGradient id="linear-gradient-32" x1="569.86" y1="1193.8" x2="1230.33" y2="1193.8" xlink:href="#linear-gradient-30"/><linearGradient id="linear-gradient-33" x1="692.77" y1="1099.62" x2="1321.6" y2="1099.62" gradientTransform="translate(-157.11 99.72)" xlink:href="#linear-gradient"/><linearGradient id="linear-gradient-34" x1="3240.91" y1="-4.16" x2="3869.73" y2="-4.16" gradientTransform="rotate(-15 6696.391 10754.89)" xlink:href="#linear-gradient"/><linearGradient id="linear-gradient-35" x1="4702.46" y1="-290.09" x2="5224.26" y2="-290.09" gradientTransform="matrix(.93 -.38 .38 .93 -3490.76 3321.21)" xlink:href="#linear-gradient"/><linearGradient id="linear-gradient-36" x1="1094.17" y1="870.62" x2="1719.95" y2="870.62" gradientTransform="translate(-512.76 391.1)" xlink:href="#linear-gradient"/><linearGradient id="linear-gradient-37" x1="1651.15" y1="352.52" x2="2279.96" y2="352.52" gradientTransform="matrix(.92 -.14 .15 .99 -1040.17 1113.37)" xlink:href="#linear-gradient"/><linearGradient id="linear-gradient-38" x1="12361.61" y1="20347.11" x2="12800.21" y2="20347.11" gradientTransform="rotate(180 6744.325 10794.34)" xlink:href="#linear-gradient"/><linearGradient id="linear-gradient-39" x1="9640.35" y1="21517.37" x2="10026" y2="21517.37" gradientTransform="matrix(-.97 .26 -.26 -.97 16054.12 19480.19)" xlink:href="#linear-gradient"/><linearGradient id="linear-gradient-40" x1="8423.04" y1="21781.81" x2="8820.4" y2="21781.81" gradientTransform="matrix(-.93 .36 -.36 -.93 16868.82 18416.03)" xlink:href="#linear-gradient"/><linearGradient id="linear-gradient-41" x1="11918.37" y1="20562.01" x2="12385.78" y2="20562.01" gradientTransform="rotate(180 6708.546 10785.426)" xlink:href="#linear-gradient"/><linearGradient id="linear-gradient-42" x1="10866.9" y1="21160.33" x2="11228.92" y2="21160.33" gradientTransform="matrix(-.92 .16 -.17 -.99 14668.11 20361.41)" xlink:href="#linear-gradient"/><linearGradient id="linear-gradient-43" x1="521.22" y1="1152.04" x2="1011" y2="1152.04" xlink:href="#linear-gradient"/><linearGradient id="linear-gradient-44" x1="3063.3" y1="-12.37" x2="3554.2" y2="-12.37" gradientTransform="rotate(-14 6849.118 11018.056)" xlink:href="#linear-gradient"/><linearGradient id="linear-gradient-45" x1="4627.83" y1="-289.97" x2="5125.59" y2="-289.97" gradientTransform="rotate(-21.2 6821.056 10663.5)" xlink:href="#linear-gradient"/><linearGradient id="linear-gradient-46" x1="904.5" y1="903.08" x2="1393.28" y2="903.08" gradientTransform="translate(-359.85 286.17)" xlink:href="#linear-gradient"/><linearGradient id="linear-gradient-47" x1="1630.33" y1="307.25" x2="2118.43" y2="307.25" gradientTransform="matrix(.92 -.14 .15 .99 -1040.17 1113.37)" xlink:href="#linear-gradient"/><linearGradient id="linear-gradient-48" x1="12496.4" y1="20376.86" x2="12861.46" y2="20376.86" gradientTransform="rotate(180 6744.325 10794.34)" xlink:href="#linear-gradient"/><linearGradient id="linear-gradient-49" x1="9967.21" y1="21544.44" x2="10334.32" y2="21544.44" gradientTransform="rotate(166 6771.55 10781.483)" xlink:href="#linear-gradient"/><linearGradient id="linear-gradient-50" x1="8528.07" y1="21841.2" x2="8845.56" y2="21841.2" gradientTransform="matrix(-.93 .36 -.36 -.93 16868.82 18416.03)" xlink:href="#linear-gradient"/><linearGradient id="linear-gradient-51" x1="12069.67" y1="20597.85" x2="12432.81" y2="20597.85" gradientTransform="rotate(180 6708.546 10785.426)" xlink:href="#linear-gradient"/><linearGradient id="linear-gradient-52" x1="11119.01" y1="21139.31" x2="11480.87" y2="21139.31" gradientTransform="matrix(-.92 .14 -.15 -.99 14528.83 20475.31)" xlink:href="#linear-gradient"/><linearGradient id="linear-gradient-53" x1="908.12" y1="1073.07" x2="1438.89" y2="1073.07" gradientTransform="translate(-157.11 99.72)" xlink:href="#linear-gradient"/><linearGradient id="linear-gradient-54" x1="3459.03" y1=".77" x2="3949.93" y2=".77" gradientTransform="rotate(-15 6696.391 10754.89)" xlink:href="#linear-gradient"/><linearGradient id="linear-gradient-55" x1="4792.86" y1="-294.57" x2="5290.63" y2="-294.57" gradientTransform="matrix(.93 -.38 .38 .93 -3490.76 3321.21)" xlink:href="#linear-gradient"/><linearGradient id="linear-gradient-56" x1="1043.17" y1="804.1" x2="1531.95" y2="804.1" gradientTransform="translate(-512.76 391.1)" xlink:href="#linear-gradient"/><linearGradient id="linear-gradient-57" x1="2054.75" y1="283.22" x2="2542.84" y2="283.22" gradientTransform="matrix(.92 -.16 .17 .99 -1180.97 1228.1)" xlink:href="#linear-gradient"/><linearGradient id="linear-gradient-58" x1="12209.27" y1="20465.27" x2="12474.69" y2="20465.27" gradientTransform="rotate(180 6768.231 10778.736)" xlink:href="#linear-gradient"/><linearGradient id="linear-gradient-59" x1="9571.48" y1="21531.3" x2="9938.6" y2="21531.3" gradientTransform="matrix(-.97 .26 -.26 -.97 16054.12 19480.19)" xlink:href="#linear-gradient"/><linearGradient id="linear-gradient-60" x1="8189.28" y1="21811.93" x2="8569.38" y2="21811.93" gradientTransform="matrix(-.93 .38 -.38 -.93 16977.9 18268.3)" xlink:href="#linear-gradient"/><linearGradient id="linear-gradient-61" x1="11922.96" y1="20593.32" x2="12186.69" y2="20593.32" gradientTransform="rotate(180 6708.546 10785.426)" xlink:href="#linear-gradient"/><linearGradient id="linear-gradient-62" x1="10849.84" y1="21185.75" x2="11056.43" y2="21185.75" gradientTransform="matrix(-.92 .16 -.17 -.99 14668.11 20361.41)" xlink:href="#linear-gradient"/><linearGradient id="linear-gradient-63" x1="643.21" y1="1162.46" x2="1242.11" y2="1162.46" gradientTransform="translate(-157.11 99.72)" xlink:href="#linear-gradient"/><linearGradient id="linear-gradient-64" x1="3311.03" y1="67.59" x2="3826.79" y2="67.59" gradientTransform="rotate(-15 6696.391 10754.89)" xlink:href="#linear-gradient"/><linearGradient id="linear-gradient-65" x1="4640.91" y1="-244.08" x2="5162.7" y2="-244.08" gradientTransform="matrix(.93 -.38 .38 .93 -3490.76 3321.21)" xlink:href="#linear-gradient"/><linearGradient id="linear-gradient-66" x1="1042.03" y1="917.95" x2="1571.46" y2="917.95" gradientTransform="translate(-512.76 391.1)" xlink:href="#linear-gradient"/><linearGradient id="linear-gradient-67" x1="9749.76" y1="21518.55" x2="10135.4" y2="21518.55" gradientTransform="matrix(-.97 .26 -.26 -.97 16054.12 19480.19)" xlink:href="#linear-gradient"/><linearGradient id="linear-gradient-68" x1="10856.61" y1="21096.28" x2="11292.18" y2="21096.28" gradientTransform="matrix(-.92 .16 -.17 -.99 14668.11 20361.41)" xlink:href="#linear-gradient"/><linearGradient id="linear-gradient-69" x1="858.48" y1="1128.7" x2="1248.53" y2="1128.7" gradientTransform="translate(-157.11 99.72)" xlink:href="#linear-gradient"/><linearGradient id="linear-gradient-70" x1="3395.05" y1="51.71" x2="3885.95" y2="51.71" gradientTransform="rotate(-15 6696.391 10754.89)" xlink:href="#linear-gradient"/><linearGradient id="linear-gradient-71" x1="4723.08" y1="-247.15" x2="5258.99" y2="-247.15" gradientTransform="matrix(.93 -.38 .38 .93 -3490.76 3321.21)" xlink:href="#linear-gradient"/><linearGradient id="linear-gradient-72" x1="1242.29" y1="891.5" x2="1631.71" y2="891.5" gradientTransform="translate(-512.76 391.1)" xlink:href="#linear-gradient"/><linearGradient id="linear-gradient-73" x1="1991.47" y1="339.93" x2="2479.57" y2="339.93" gradientTransform="matrix(.92 -.16 .17 .99 -1180.97 1228.1)" xlink:href="#linear-gradient"/><linearGradient id="linear-gradient-74" x1="12288.63" y1="20406.92" x2="12524.25" y2="20406.92" gradientTransform="rotate(180 6768.231 10778.736)" xlink:href="#linear-gradient"/><linearGradient id="linear-gradient-75" x1="9730.32" y1="21496.69" x2="10002.49" y2="21496.69" gradientTransform="matrix(-.97 .26 -.26 -.97 16054.12 19480.19)" xlink:href="#linear-gradient"/><linearGradient id="linear-gradient-76" x1="8259.05" y1="21769.25" x2="8639.15" y2="21769.25" gradientTransform="matrix(-.93 .38 -.38 -.93 16977.9 18268.3)" xlink:href="#linear-gradient"/><linearGradient id="linear-gradient-77" x1="10862.47" y1="21118.45" x2="11119.75" y2="21118.45" gradientTransform="matrix(-.92 .16 -.17 -.99 14668.11 20361.41)" xlink:href="#linear-gradient"/></defs><title>extra_panels_illo</title><path class="cls-1" d="M698.71 1243.13l502.9-163.56"/><path class="cls-2" d="M570.78 1136.69l641 34.64"/><path class="cls-3" d="M1214.2 1189.68l-447.36 8.84"/><path class="cls-4" d="M765.01 1180.16l480.43-152.07"/><path class="cls-5" d="M708.21 1086.6l500.81 76.6"/><path class="cls-6" d="M711.98 1165.6l493.27-81.4"/><path class="cls-7" d="M778.34 1200.37l478.17-159.04"/><path class="cls-8" d="M1197.12 1224.73l-376.77-90.79"/><path class="cls-9" d="M1192.02 1145.88l-366.58 66.92"/><path class="cls-10" d="M1269.1 1151.44l-349.31-2.37"/><path class="cls-11" d="M736.5 1270.64l478.16-159.04"/><path class="cls-12" d="M723.23 1152.78l501.67 50.57"/><path class="cls-13" d="M1227.25 1221.71l-349.3-2.37"/><path class="cls-14" d="M501.94 1134.53l526.05-54.19"/><path class="cls-15" d="M556.1 1039.22l462.54 132.96"/><path class="cls-16" d="M1017.16 1190.63l-439.24-85.39"/><path class="cls-17" d="M621.92 1160.13l490.88-113.93"/><path class="cls-18" d="M1193.1 1140.66l-496.22-87.78"/><path class="cls-19" d="M1152.36 1159.8l-403.94-118.85"/><path class="cls-20" d="M584.14 1033.5l433.51 130.16"/><path class="cls-21" d="M531.21 1061.53l499.37 24.1"/><path class="cls-22" d="M598.78 1119.47l500.92-54.98"/><path class="cls-23" d="M993.08 1221.31l-349.26-167.96"/><path class="cls-24" d="M1004.68 1143.14l-372.46-11.62"/><path class="cls-25" d="M1078.86 1164.79l-341-75.74"/><path class="cls-26" d="M533.1 1169.37l500.92-54.97"/><path class="cls-27" d="M544.9 1051.36l479.84 154.88"/><path class="cls-28" d="M1023.18 1224.69l-341-75.74"/><path class="cls-29" d="M1229.83 1093.28s-312.18-83.65-660 6.18c0 0 59.22 119.85 355.22 94.34s304.78-100.52 304.78-100.52z"/><path class="cls-30" d="M951.88 966.32l-8.5 15.38 4.18 23.32-8.62 50.58s-14.31 15-22.6-12.29L908 1016s-18.48 18.25 4.31-13.56 10.21-16.65 10.21-16.65l12.57-15.17 16.09-3.95"/><path class="cls-31" d="M951.56 966.77a72.4 72.4 0 0 0-13-7.27 67.88 67.88 0 0 0-21.48-5.34 60.41 60.41 0 0 0-37.4 9.53c-13 8.39-22.9 21-30.57 34.27-43.09 74.69-43.35 195.06 68.61 195.3 14.76 0 29.66-2.53 43-9a79.34 79.34 0 0 0 29.16-24.07 98.72 98.72 0 0 0 16.1-34.68 138.48 138.48 0 0 0 3.86-40.76 168.84 168.84 0 0 0-7.56-42.34 164.85 164.85 0 0 0-18.16-39.4c-8.52-13.43-19.21-26.9-32.56-36.24z"/><path class="cls-32" d="M569.87 1099.46c-1.34 15.4 152.61 30.45 168.73 33 129.83 20.43 270.81 30.3 398.49-5.16 8-2.23 92.74-34 92.74-34 5.35 26.63-34.24 75.18-50.75 93.94-21.39 24.31-47 41.74-75 58-58 33.59-125.65 49.14-192.39 49.14-263.14-.07-341.82-194.93-341.82-194.92z"/><path class="cls-33" d="M551.03 1122.64l629.87 123.85"/><path class="cls-34" d="M545.46 1201.65l641.02-34.17"/><path class="cls-35" d="M740.97 1242.57l516.64-112.89"/><path class="cls-36" d="M624.22 1123.98l632.29 116.93"/><path class="cls-37" d="M523.42 1160.91l598.26 42.04"/><path class="cls-38" d="M1126.55 1306.07l-437.62-129"/><path class="cls-39" d="M1179 1227.63l-390.16 31.79"/><path class="cls-40" d="M1130.61 1189.07l-385.66 103.69"/><path class="cls-41" d="M1102.07 1307.67L630.8 1200.44"/><path class="cls-42" d="M1159.22 1233.49l-346.04-28.55"/><path class="cls-43" d="M521.68 1085.54l488.86 133"/><path class="cls-44" d="M516.45 1164.46l499.33-24.84"/><path class="cls-45" d="M813.18 1186.49l493.14-103.69"/><path class="cls-46" d="M578.64 1087.94l492.68 107.23"/><path class="cls-47" d="M498.87 1129.16l465.71 42.04"/><path class="cls-48" d="M991.73 1278.32l-364.02-133"/><path class="cls-49" d="M995.63 1199.4l-371.81 24.84"/><path class="cls-50" d="M1005.69 1157.31L705.47 1261"/><path class="cls-51" d="M949.32 1275.92l-366.86-107.23"/><path class="cls-52" d="M1071.57 1213.68l-346.78-42.03"/><path class="cls-53" d="M765.94 1087.76l531.88 135.69"/><path class="cls-54" d="M761.86 1166.75l498.91-32.11"/><path class="cls-55" d="M824.44 1207.93l491.58-110.86"/><path class="cls-56" d="M570.27 1072.62l494.19 100.05"/><path class="cls-57" d="M743.77 1131.7l466.27 35.26"/><path class="cls-58" d="M1138.74 1266.67l-265.91-120.68"/><path class="cls-59" d="M1241.49 1194.7l-371.4 30.26"/><path class="cls-60" d="M1194.73 1153.3l-365.65 109.02"/><path class="cls-61" d="M1095.75 1268.92l-266.86-100.23"/><path class="cls-62" d="M1167.64 1187.89l-197.35-16.99"/><path class="cls-63" d="M502.43 1188.42l599.87 119.84"/><path class="cls-64" d="M635.64 1267.43l524.08-34.18"/><path class="cls-65" d="M701.23 1308.35l516.64-112.9"/><path class="cls-66" d="M575.62 1189.75l534.4 91.01"/><path class="cls-67" d="M1073.03 1254.82l-390.16 31.79"/><path class="cls-68" d="M1180.62 1302.27l-416.04-31.55"/><path class="cls-69" d="M717.34 1153.53l390.74 118.88"/><path class="cls-70" d="M713.25 1232.52l498.92-32.1"/><path class="cls-71" d="M775.84 1273.7l530.48-116.39"/><path class="cls-72" d="M774.32 1155.1l394.19 93.05"/><path class="cls-73" d="M695.16 1197.48l466.27 35.25"/><path class="cls-74" d="M1060.14 1319.45l-235.91-107.69"/><path class="cls-75" d="M1092.89 1253.48l-271.41 37.25"/><path class="cls-76" d="M1146.13 1219.07l-365.65 109.02"/><path class="cls-77" d="M1169.03 1266.66l-247.35-29.99"/></svg>