<svg id="body" xmlns="http://www.w3.org/2000/svg" xmlns:xlink="http://www.w3.org/1999/xlink" viewBox="0 0 1814.89 2282.08"><defs><style>.cls-1{fill:url(#linear-gradient)}.cls-2{fill:url(#linear-gradient-2)}.cls-3{fill:url(#linear-gradient-4)}.cls-4{fill:url(#linear-gradient-5)}.cls-5{fill:url(#linear-gradient-7)}.cls-6{fill:url(#linear-gradient-8)}.cls-7{fill:url(#linear-gradient-9)}.cls-8{fill:url(#linear-gradient-10)}.cls-9{fill:url(#linear-gradient-11)}.cls-10{fill:url(#linear-gradient-12)}.cls-11{fill:url(#linear-gradient-13)}.cls-12{fill:url(#linear-gradient-14)}.cls-13{fill:url(#linear-gradient-16)}.cls-14{fill:url(#linear-gradient-18)}.cls-15{fill:url(#linear-gradient-19)}.cls-16{fill:url(#linear-gradient-20)}.cls-17{fill:url(#linear-gradient-21)}.cls-18{fill:url(#linear-gradient-22)}.cls-19{fill:url(#linear-gradient-23)}.cls-20{fill:url(#linear-gradient-24)}.cls-21{fill:url(#linear-gradient-25)}.cls-22{fill:url(#linear-gradient-26)}.cls-23{fill:url(#linear-gradient-27)}.cls-24{fill:url(#linear-gradient-31)}.cls-25{fill:url(#linear-gradient-32)}.cls-26{fill:url(#linear-gradient-33)}.cls-27{fill:url(#linear-gradient-36)}.cls-28{fill:url(#linear-gradient-37)}.cls-29{fill:url(#linear-gradient-40)}.cls-30{fill:url(#linear-gradient-41)}.cls-31{fill:url(#linear-gradient-42)}.cls-32{fill:url(#linear-gradient-43)}.cls-33{fill:url(#linear-gradient-44)}.cls-34{fill:url(#linear-gradient-45)}.cls-35{fill:url(#linear-gradient-46)}.cls-36{fill:url(#linear-gradient-47)}.cls-37{fill:url(#linear-gradient-48)}.cls-38{fill:url(#linear-gradient-49)}.cls-39{fill:url(#linear-gradient-50)}.cls-40{fill:url(#linear-gradient-51)}.cls-41{fill:url(#linear-gradient-52)}.cls-42{fill:url(#linear-gradient-53)}.cls-43{fill:url(#linear-gradient-54)}.cls-44{fill:url(#linear-gradient-55)}.cls-45{fill:url(#linear-gradient-56)}.cls-46{fill:url(#linear-gradient-57)}.cls-47{fill:url(#linear-gradient-58)}.cls-48{fill:url(#linear-gradient-59)}.cls-49{fill:url(#linear-gradient-60)}.cls-50{fill:url(#linear-gradient-64)}.cls-51{fill:url(#linear-gradient-65)}.cls-52{fill:url(#linear-gradient-66)}.cls-53{fill:url(#linear-gradient-69)}.cls-54{fill:url(#linear-gradient-70)}.cls-55{fill:url(#linear-gradient-73)}.cls-56{fill:url(#linear-gradient-74)}.cls-57{fill:url(#linear-gradient-75)}</style><linearGradient id="linear-gradient" x1="10483.15" y1="9052.07" x2="10642.27" y2="9052.07" gradientTransform="rotate(-73.7 247.092 11754.142)" gradientUnits="userSpaceOnUse"><stop offset="0" stop-color="#eeb57b"/><stop offset=".62" stop-color="#eda373"/><stop offset=".97" stop-color="#eda373"/></linearGradient><linearGradient id="linear-gradient-2" x1="4682.63" y1="23065.81" x2="4836.48" y2="23065.81" gradientTransform="rotate(180 2649.355 11750.935)" xlink:href="#linear-gradient"/><linearGradient id="linear-gradient-4" x1="2024.39" y1="25141.24" x2="2183.52" y2="25141.24" gradientTransform="rotate(171.9 2302.057 12878.512)" xlink:href="#linear-gradient"/><linearGradient id="linear-gradient-5" x1="4239.59" y1="25241.36" x2="4398.71" y2="25241.36" gradientTransform="rotate(-180 2179.385 11955.919) scale(.88)" xlink:href="#linear-gradient"/><linearGradient id="linear-gradient-7" x1="539.03" y1="1437.71" x2="668.4" y2="1437.71" xlink:href="#linear-gradient"/><linearGradient id="linear-gradient-8" x1="9608.65" y1="19514.43" x2="9738.02" y2="19514.43" gradientTransform="matrix(-.88 -.31 .38 -1.11 1926.07 26562.7)" xlink:href="#linear-gradient"/><linearGradient id="linear-gradient-9" x1="476.27" y1="1764.65" x2="636.53" y2="1764.65" xlink:href="#linear-gradient"/><linearGradient id="linear-gradient-10" x1="825.41" y1="600.82" x2="959.1" y2="600.82" xlink:href="#linear-gradient"/><linearGradient id="linear-gradient-11" x1="-1252.37" y1="880.68" x2="-1098.53" y2="880.68" gradientTransform="translate(2156.94 87.9)" xlink:href="#linear-gradient"/><linearGradient id="linear-gradient-12" x1="12669.38" y1="17444.03" x2="12803.07" y2="17444.03" gradientTransform="scale(-1) rotate(45 28409.747 -8377.66)" xlink:href="#linear-gradient"/><linearGradient id="linear-gradient-13" x1="-8637.72" y1="20252.49" x2="-8478.59" y2="20252.49" gradientTransform="rotate(106.3 3513.9 14371.331)" xlink:href="#linear-gradient"/><linearGradient id="linear-gradient-14" x1="-684.72" y1="1566.04" x2="-530.88" y2="1566.04" gradientTransform="translate(1889.5 220.29)" xlink:href="#linear-gradient"/><linearGradient id="linear-gradient-16" x1="103.73" y1="3087.26" x2="262.85" y2="3087.26" gradientTransform="rotate(-8.1 -10060.27 -5172.951)" xlink:href="#linear-gradient"/><linearGradient id="linear-gradient-18" x1="5825.02" y1="22937.48" x2="5954.39" y2="22937.48" gradientTransform="rotate(180 3594.1 11861.08)" xlink:href="#linear-gradient"/><linearGradient id="linear-gradient-19" x1="5870.75" y1="23264.43" x2="6031.01" y2="23264.43" gradientTransform="rotate(180 3594.1 11861.08)" xlink:href="#linear-gradient"/><linearGradient id="linear-gradient-20" x1="10493.87" y1="9040.44" x2="10653" y2="9040.44" gradientTransform="rotate(-73.7 247.092 11754.142)" gradientUnits="userSpaceOnUse"><stop offset=".19" stop-color="#f3cf76"/><stop offset="1" stop-color="#f4bf71"/></linearGradient><linearGradient id="linear-gradient-21" x1="4690.77" y1="23079.37" x2="4844.62" y2="23079.37" gradientTransform="rotate(180 2649.355 11750.935)" xlink:href="#linear-gradient-20"/><linearGradient id="linear-gradient-22" x1="10489.43" y1="9044.57" x2="10648.55" y2="9044.57" xlink:href="#linear-gradient-20"/><linearGradient id="linear-gradient-23" x1="6023.94" y1="2583.7" x2="6040.72" y2="2583.7" gradientTransform="translate(-5604.51 -1360.39)" xlink:href="#linear-gradient-20"/><linearGradient id="linear-gradient-24" x1="4377.28" y1="22344.87" x2="4382.6" y2="22344.87" gradientTransform="rotate(-90 -8136.835 13804.385)" xlink:href="#linear-gradient-20"/><linearGradient id="linear-gradient-25" x1="4354.85" y1="22312.04" x2="4370.58" y2="22312.04" gradientTransform="rotate(-90 -8077.55 13755.39)" xlink:href="#linear-gradient-20"/><linearGradient id="linear-gradient-26" x1="2028.51" y1="25150.11" x2="2187.63" y2="25150.11" gradientTransform="rotate(171.9 2302.057 12878.512)" xlink:href="#linear-gradient-20"/><linearGradient id="linear-gradient-27" x1="4246.11" y1="25250.31" x2="4405.24" y2="25250.31" gradientTransform="rotate(-180 2179.385 11955.919) scale(.88)" xlink:href="#linear-gradient-20"/><linearGradient id="linear-gradient-31" x1="4688.06" y1="23073.95" x2="4841.9" y2="23073.95" gradientTransform="rotate(180 2649.355 11750.935)" xlink:href="#linear-gradient-20"/><linearGradient id="linear-gradient-32" x1="-10616.18" y1="7388.86" x2="-10610.85" y2="7388.86" gradientTransform="rotate(90 -1756.41 9854.42)" xlink:href="#linear-gradient-20"/><linearGradient id="linear-gradient-33" x1="-10731.33" y1="7449.66" x2="-10715.6" y2="7449.66" gradientTransform="rotate(90 -1775.57 9883.29)" xlink:href="#linear-gradient-20"/><linearGradient id="linear-gradient-36" x1="-23528.87" y1="11409.78" x2="-23510.85" y2="11409.78" gradientTransform="matrix(0 .47 -.47 0 5960.8 11583.36)" xlink:href="#linear-gradient-20"/><linearGradient id="linear-gradient-37" x1="-23680.37" y1="11324.59" x2="-23657.31" y2="11324.59" gradientTransform="matrix(0 .47 -.47 0 5934.56 11573.95)" xlink:href="#linear-gradient-20"/><linearGradient id="linear-gradient-40" x1="533.6" y1="1429.57" x2="662.98" y2="1429.57" xlink:href="#linear-gradient-20"/><linearGradient id="linear-gradient-41" x1="9617.02" y1="19519.45" x2="9746.4" y2="19519.45" gradientTransform="matrix(-.88 -.31 .38 -1.11 1926.07 26562.7)" xlink:href="#linear-gradient-20"/><linearGradient id="linear-gradient-42" x1="470.84" y1="1756.52" x2="631.1" y2="1756.52" xlink:href="#linear-gradient-20"/><linearGradient id="linear-gradient-43" x1="819.98" y1="592.69" x2="953.67" y2="592.69" xlink:href="#linear-gradient-20"/><linearGradient id="linear-gradient-44" x1="-1258.07" y1="872.73" x2="-1104.22" y2="872.73" gradientTransform="translate(2156.94 87.9)" xlink:href="#linear-gradient-20"/><linearGradient id="linear-gradient-45" x1="12678.97" y1="17445.95" x2="12812.66" y2="17445.95" gradientTransform="scale(-1) rotate(45 28409.747 -8377.66)" xlink:href="#linear-gradient-20"/><linearGradient id="linear-gradient-46" x1="6377.5" y1="3305" x2="6394.28" y2="3305" gradientTransform="translate(-5292.74 -1631.57)" xlink:href="#linear-gradient-20"/><linearGradient id="linear-gradient-47" x1="3649.42" y1="22039.57" x2="3654.75" y2="22039.57" gradientTransform="rotate(-90 -7794.54 13216.68)" xlink:href="#linear-gradient-20"/><linearGradient id="linear-gradient-48" x1="4482.52" y1="21604.1" x2="4498.25" y2="21604.1" gradientTransform="rotate(-90 -7289.865 13569.465)" xlink:href="#linear-gradient-20"/><linearGradient id="linear-gradient-49" x1="3621.88" y1="22093.36" x2="3627.2" y2="22093.36" gradientTransform="rotate(-90 -7837.42 13187.13)" xlink:href="#linear-gradient-20"/><linearGradient id="linear-gradient-50" x1="3986.08" y1="22247.1" x2="4001.81" y2="22247.1" gradientTransform="rotate(-90 -7980.24 13449.13)" xlink:href="#linear-gradient-20"/><linearGradient id="linear-gradient-51" x1="-7834.68" y1="14369.69" x2="-7817.9" y2="14369.69" gradientTransform="rotate(90 3411.46 11953.54)" xlink:href="#linear-gradient-20"/><linearGradient id="linear-gradient-52" x1="5600.21" y1="4492.87" x2="5605.54" y2="4492.87" gradientTransform="translate(-4639 -3397.61)" xlink:href="#linear-gradient-20"/><linearGradient id="linear-gradient-53" x1="5572.67" y1="4546.67" x2="5578" y2="4546.67" gradientTransform="translate(-4585.37 -3396.89)" xlink:href="#linear-gradient-20"/><linearGradient id="linear-gradient-54" x1="-8648.44" y1="20264.12" x2="-8489.31" y2="20264.12" gradientTransform="rotate(106.3 3513.9 14371.331)" xlink:href="#linear-gradient-20"/><linearGradient id="linear-gradient-55" x1="-692.86" y1="1552.48" x2="-539.01" y2="1552.48" gradientTransform="translate(1889.5 220.29)" xlink:href="#linear-gradient-20"/><linearGradient id="linear-gradient-56" x1="-8644" y1="20259.99" x2="-8484.87" y2="20259.99" gradientTransform="rotate(106.3 3513.9 14371.331)" xlink:href="#linear-gradient-20"/><linearGradient id="linear-gradient-57" x1="-52.64" y1="23911.7" x2="-35.86" y2="23911.7" gradientTransform="rotate(180 693.51 12441.88)" xlink:href="#linear-gradient-20"/><linearGradient id="linear-gradient-58" x1="-6316.01" y1="2916.62" x2="-6310.69" y2="2916.62" gradientTransform="rotate(90 -1424.765 5796.555)" xlink:href="#linear-gradient-20"/><linearGradient id="linear-gradient-59" x1="-6459.09" y1="2950.74" x2="-6443.36" y2="2950.74" gradientTransform="rotate(90 -1500.655 5831.115)" xlink:href="#linear-gradient-20"/><linearGradient id="linear-gradient-60" x1="99.61" y1="3078.38" x2="258.74" y2="3078.38" gradientTransform="rotate(-8.1 -10060.27 -5172.951)" xlink:href="#linear-gradient-20"/><linearGradient id="linear-gradient-64" x1="-690.15" y1="1557.9" x2="-536.3" y2="1557.9" gradientTransform="translate(1889.5 220.29)" xlink:href="#linear-gradient-20"/><linearGradient id="linear-gradient-65" x1="8512.86" y1="18647.2" x2="8518.18" y2="18647.2" gradientTransform="rotate(-90 -3932.53 13646.35)" xlink:href="#linear-gradient-20"/><linearGradient id="linear-gradient-66" x1="8467.34" y1="18588.7" x2="8483.07" y2="18588.7" gradientTransform="rotate(-90 -3866.89 13602.39)" xlink:href="#linear-gradient-20"/><linearGradient id="linear-gradient-69" x1="23793.03" y1="16335.25" x2="23811.05" y2="16335.25" gradientTransform="matrix(0 -.47 .47 0 -6480.24 12689.21)" xlink:href="#linear-gradient-20"/><linearGradient id="linear-gradient-70" x1="23641.54" y1="16250.06" x2="23664.6" y2="16250.06" gradientTransform="matrix(0 -.47 .47 0 -6454 12698.62)" xlink:href="#linear-gradient-20"/><linearGradient id="linear-gradient-73" x1="5830.44" y1="22945.62" x2="5959.81" y2="22945.62" gradientTransform="rotate(180 3594.1 11861.08)" xlink:href="#linear-gradient-20"/><linearGradient id="linear-gradient-74" x1="5876.17" y1="23272.56" x2="6036.43" y2="23272.56" gradientTransform="rotate(180 3594.1 11861.08)" xlink:href="#linear-gradient-20"/><linearGradient id="linear-gradient-75" x1="-7486" y1="2911.08" x2="-7470.26" y2="2911.08" gradientTransform="rotate(90 -1970.405 5914.185)" xlink:href="#linear-gradient-20"/></defs><title>extra_panels_illo</title><path class="cls-1" d="M479 1090.53c-8.71 34.07 11.91 72 40.17 90.51 11.83 7.76 25.8 12.86 39.94 12.21s28.33-7.62 35.73-19.69c8.09-13.19 7.39-30.47 15.9-43.4 4.29-6.52 10.58-11.39 16.13-16.88s10.63-12.15 11.31-19.92c.71-8.06-3.43-15.74-8.25-22.23-28.54-38.42-88.37-52.32-127.71-22.49-7.66 5.81-24 31-23.22 41.89"/><path class="cls-2" d="M580 504.09q1.41-.83 2.8-1.73c19.68-12.74 36.4-40.06 32.74-70a72.07 72.07 0 0 0-14.85-35.12c-7.44-9.56-16.51-16.75-25.82-23-14.1-9.48-29.21-17.13-45-19s-32.51 2.62-45 15.28C474 381.49 467 397.95 464 415.3s-2 35.54 1.21 52.81c2.62 14.07 7.12 28.37 16 37.24 9.38 9.41 22 11.12 33.83 11.67 21.84.98 44.83-1.02 64.96-12.93z"/><path class="cls-1" d="M479 1090.53c-8.71 34.07 11.91 72 40.17 90.51 11.83 7.76 25.8 12.86 39.94 12.21s28.33-7.62 35.73-19.69c8.09-13.19 7.39-30.47 15.9-43.4 4.29-6.52 10.58-11.39 16.13-16.88s10.63-12.15 11.31-19.92c.71-8.06-3.43-15.74-8.25-22.23-28.54-38.42-88.37-52.32-127.71-22.49-7.66 5.81-24 31-23.22 41.89"/><path class="cls-3" d="M596 835.91c34.55-6.59 60.09-41.37 64.86-74.83 2-14 .67-28.82-5.92-41.35s-18.94-22.4-33-24c-15.38-1.72-30.72 6.26-46 4.05-7.72-1.11-14.81-4.74-22.13-7.43s-15.52-4.45-22.84-1.77c-7.59 2.78-12.79 9.8-16.62 16.92-22.65 42.17-9.8 102.23 33.93 125.16 8.52 4.47 38.3 8.58 47.79 3.22"/><path class="cls-4" d="M946.9 1663.1c31.05.21 59.16-25.52 69-53.66 4.14-11.79 5.54-24.84 2-36.81s-12.55-22.64-24.46-26.41c-13-4.12-27.68.15-40.57-4.38-6.5-2.29-12-6.64-17.89-10.23s-12.67-6.52-19.48-5.45c-7.06 1.11-12.76 6.29-17.3 11.8-26.87 32.62-26.08 86.82 7.85 114.16 6.61 5.33 31.69 14 40.83 11"/><path class="cls-2" d="M580 504.09q1.41-.83 2.8-1.73c19.68-12.74 36.4-40.06 32.74-70a72.07 72.07 0 0 0-14.85-35.12c-7.44-9.56-16.51-16.75-25.82-23-14.1-9.48-29.21-17.13-45-19s-32.51 2.62-45 15.28C474 381.49 467 397.95 464 415.3s-2 35.54 1.21 52.81c2.62 14.07 7.12 28.37 16 37.24 9.38 9.41 22 11.12 33.83 11.67 21.84.98 44.83-1.02 64.96-12.93z"/><path class="cls-5" d="M578.26 1383.67c-14.65 10.64-28.86 24.94-35.71 45.62s-3.84 48.77 10.24 60.77c5.79 4.93 12.68 6.7 19.42 8.14 18.18 3.9 37.25 6 54.61-2.35 16-7.72 29.58-24.43 36.89-45.41 4.63-13.3 6.7-29.3 2.2-42.69-4.08-12.14-12.83-20.12-21.83-25.27-23.39-13.41-51.26-11.18-73.35 5.85"/><path class="cls-6" d="M927.42 1979.7c16.95-7.35 34.92-18.91 48.87-39.81s22.1-53.05 14.35-70.69c-3.19-7.25-8.56-11.32-13.92-15-14.47-9.89-30.39-18.07-48.85-14.06-17 3.69-35.36 18.13-49.82 39.22-9.18 13.38-17.14 30.53-18.33 46.79a52.75 52.75 0 0 0 9.47 34.77c15.39 22 40.71 28.09 66.65 15.89"/><path class="cls-7" d="M523.3 1684.59c-16.39-3.57-33.45 9.3-41.31 28.35s-7.22 42.84-.6 62.67 18.67 36 32.38 48.21c19 17 43.1 27.2 65.35 19.29 8.16-2.9 15.77-8.14 22.58-14.67 19.71-18.89 32.68-49.22 34.62-81 .78-12.75-.46-26.65-7-36.16-12.16-17.59-33.85-11-51.95-13.37-18.3-2.42-35.47-15.51-53.84-14.38"/><path class="cls-8" d="M856.16 546c-19.25 8.63-29.94 30.53-30.71 51.61-1 26.77 12.77 54 35.87 67.61s54.76 11.81 75.11-5.62 27-47.38 20-73.11c-2.6-9.59-7.53-19.38-16.45-23.74-3.29-1.61-7-2.41-10-4.55-5.63-4.07-7.09-11.69-10.71-17.61-6.26-10.23-19.62-15-31.35-12.51s-26.47 7.17-31.79 17.92"/><path class="cls-9" d="M914.29 859.72q-1.44.79-2.86 1.64c-20.1 12.08-37.71 38.83-35 68.88a72.07 72.07 0 0 0 13.68 35.59c7.12 9.8 15.95 17.28 25 23.85 13.77 9.94 28.62 18.09 44.38 20.45s32.57-1.54 45.5-13.78c11.18-10.58 18.78-26.8 22.31-44s3.19-35.45.55-52.82c-2.15-14.15-6.17-28.59-14.72-37.75-9.06-9.71-21.58-11.85-33.42-12.79-21.83-1.78-44.88-.53-65.42 10.73z"/><path class="cls-10" d="M909.06 1358.55c19.71 7.51 42.76-.41 58.21-14.78 19.62-18.24 29.19-47.25 22.44-73.18s-30.37-47.07-57.08-49.14-52.63 14.44-65.84 37.55c-4.94 8.62-8.38 19-5.16 28.42 1.19 3.46 3.24 6.65 3.83 10.27 1.1 6.85-3.25 13.27-4.87 20-2.8 11.66 3.28 24.46 13.32 31s23.79 13.65 35.15 9.8"/><path class="cls-11" d="M1341.89 1131.85c8.71-34.07-11.91-72-40.17-90.51-11.83-7.76-25.8-12.86-39.94-12.21s-28.33 7.62-35.73 19.69c-8.09 13.19-7.39 30.47-15.9 43.4-4.29 6.52-10.58 11.39-16.13 16.88s-10.63 12.15-11.31 19.92c-.71 8.06 3.43 15.74 8.25 22.23 28.54 38.42 88.37 52.32 127.71 22.49 7.66-5.81 24-31 23.22-41.89"/><path class="cls-12" d="M1240.82 1718.3q-1.41.83-2.8 1.73c-19.68 12.74-36.4 40.06-32.74 70a72.07 72.07 0 0 0 14.85 35.12c7.44 9.56 16.51 16.75 25.82 23 14.1 9.48 29.21 17.13 45 19s32.51-2.62 45-15.28c10.82-10.95 17.88-27.41 20.84-44.75s2-35.54-1.21-52.81c-2.62-14.07-7.12-28.37-16-37.24-9.38-9.41-22-11.12-33.83-11.67-21.75-1.05-44.75.97-64.93 12.9z"/><path class="cls-11" d="M1341.89 1131.85c8.71-34.07-11.91-72-40.17-90.51-11.83-7.76-25.8-12.86-39.94-12.21s-28.33 7.62-35.73 19.69c-8.09 13.19-7.39 30.47-15.9 43.4-4.29 6.52-10.58 11.39-16.13 16.88s-10.63 12.15-11.31 19.92c-.71 8.06 3.43 15.74 8.25 22.23 28.54 38.42 88.37 52.32 127.71 22.49 7.66-5.81 24-31 23.22-41.89"/><path class="cls-13" d="M1317 1386.48c-34.55 6.59-60.09 41.37-64.86 74.83-2 14-.67 28.82 5.92 41.35s18.94 22.4 33 24c15.38 1.72 30.72-6.26 46-4.05 7.72 1.11 14.81 4.74 22.13 7.43s15.52 4.45 22.84 1.77c7.59-2.78 12.79-9.8 16.62-16.92 22.65-42.17 9.8-102.23-33.93-125.16-8.52-4.47-38.3-8.58-47.79-3.22"/><path class="cls-12" d="M1240.82 1718.3q-1.41.83-2.8 1.73c-19.68 12.74-36.4 40.06-32.74 70a72.07 72.07 0 0 0 14.85 35.12c7.44 9.56 16.51 16.75 25.82 23 14.1 9.48 29.21 17.13 45 19s32.51-2.62 45-15.28c10.82-10.95 17.88-27.41 20.84-44.75s2-35.54-1.21-52.81c-2.62-14.07-7.12-28.37-16-37.24-9.38-9.41-22-11.12-33.83-11.67-21.75-1.05-44.75.97-64.93 12.9z"/><path class="cls-14" d="M1324 838.71c14.65-10.64 28.86-24.94 35.71-45.62s3.84-48.77-10.24-60.77c-5.79-4.93-12.68-6.7-19.42-8.14-18.18-3.9-37.25-6-54.61 2.35-16 7.72-29.58 24.43-36.89 45.41-4.63 13.3-6.7 29.3-2.2 42.69 4.08 12.14 12.83 20.12 21.83 25.27 23.39 13.41 51.26 11.18 73.35-5.85"/><path class="cls-15" d="M1270.42 537.79c16.39 3.57 33.45-9.3 41.31-28.35s7.22-42.84.6-62.67-18.67-36-32.38-48.21c-19-17-43.1-27.2-65.35-19.29-8.16 2.9-15.77 8.14-22.58 14.67-19.71 18.89-32.68 49.22-34.62 81-.78 12.75.46 26.65 7 36.16 12.16 17.59 33.85 11 51.95 13.37 18.3 2.42 35.47 15.51 53.84 14.38"/><path class="cls-16" d="M470.82 1077c-8.71 34.07 11.91 72 40.17 90.51 11.83 7.76 25.8 12.86 39.94 12.21s28.33-7.62 35.73-19.69c8.09-13.19 7.39-30.47 15.9-43.4 4.29-6.52 10.58-11.39 16.13-16.88s10.63-12.15 11.31-19.92c.71-8.06-3.43-15.74-8.25-22.23-28.54-38.42-88.37-52.32-127.71-22.49-7.66 5.81-24 31-23.22 41.89"/><path class="cls-17" d="M571.89 490.52q1.41-.83 2.8-1.73c19.68-12.74 36.4-40.06 32.74-70a72.07 72.07 0 0 0-14.85-35.12c-7.44-9.56-16.51-16.75-25.82-23-14.1-9.48-29.21-17.13-45-19s-32.51 2.62-45 15.28c-10.82 10.95-17.88 27.41-20.84 44.75s-2 35.54 1.21 52.81c2.62 14.07 7.12 28.37 16 37.24 9.38 9.41 22 11.12 33.83 11.67 21.78 1.06 44.77-.96 64.93-12.9z"/><path class="cls-18" d="M473.53 1082.4c-8.71 34.07 11.91 72 40.17 90.51 11.83 7.76 25.8 12.86 39.94 12.21s28.33-7.62 35.73-19.69c8.09-13.19 7.39-30.47 15.9-43.4 4.29-6.52 10.58-11.39 16.13-16.88s10.6-12.15 11.32-19.92c.71-8.06-3.43-15.74-8.25-22.23-28.54-38.42-88.37-52.32-127.71-22.49-7.66 5.81-24 31-23.22 41.89"/><circle class="cls-19" cx="427.88" cy="1223.33" r="8.39" transform="rotate(-29.81 427.802 1223.227)"/><circle class="cls-20" cx="403.66" cy="1287.36" r="2.66" transform="rotate(-75.08 403.593 1287.32)"/><circle class="cls-21" cx="479.11" cy="1314.79" r="7.87" transform="rotate(-74.72 479.095 1314.785)"/><path class="cls-22" d="M590.62 827.77c34.55-6.59 60.09-41.37 64.86-74.83 2-14 .67-28.82-5.92-41.35s-18.94-22.4-33-24c-15.38-1.72-30.72 6.26-46 4.05-7.72-1.11-14.81-4.74-22.13-7.43s-15.52-4.45-22.84-1.77c-7.59 2.78-12.79 9.8-16.62 16.92-22.65 42.17-9.8 102.23 33.93 125.16 8.52 4.47 38.3 8.58 47.79 3.22"/><path class="cls-23" d="M941.48 1655c31.05.21 59.16-25.52 69-53.66 4.14-11.79 5.54-24.84 2-36.81s-12.48-22.67-24.48-26.44c-13-4.12-27.68.15-40.57-4.38-6.5-2.29-12-6.64-17.89-10.23s-12.63-6.48-19.44-5.48c-7.06 1.11-12.76 6.29-17.3 11.8-26.87 32.62-26.08 86.82 7.85 114.16 6.61 5.33 31.69 14 40.83 11"/><circle class="cls-19" cx="427.88" cy="1223.33" r="8.39" transform="rotate(-29.81 427.802 1223.227)"/><circle class="cls-20" cx="403.66" cy="1287.36" r="2.66" transform="rotate(-75.08 403.593 1287.32)"/><circle class="cls-21" cx="479.11" cy="1314.79" r="7.87" transform="rotate(-74.72 479.095 1314.785)"/><path class="cls-24" d="M574.6 495.95q1.41-.83 2.8-1.73c19.68-12.74 36.4-40.06 32.74-70a72.07 72.07 0 0 0-14.85-35.12c-7.44-9.56-16.51-16.75-25.82-23-14.1-9.48-29.21-17.13-45-19s-32.51 2.62-45 15.28c-10.82 10.95-17.88 27.41-20.84 44.75s-2 35.54 1.21 52.81c2.62 14.07 7.12 28.37 16 37.24 9.38 9.41 22 11.12 33.83 11.67 21.79 1.05 44.78-.97 64.93-12.9z"/><circle class="cls-25" cx="709.13" cy="997.22" r="2.66" transform="rotate(-44.59 709.075 997.179)"/><circle class="cls-26" cx="658.03" cy="935.3" r="7.87" transform="rotate(-44.23 658.044 935.309)"/><circle class="cls-25" cx="709.13" cy="997.22" r="2.66" transform="rotate(-44.59 709.075 997.179)"/><circle class="cls-26" cx="658.03" cy="935.3" r="7.87" transform="rotate(-44.23 658.044 935.309)"/><circle class="cls-27" cx="640.21" cy="614.26" r="4.2" transform="rotate(-20.05 640.166 614.217)"/><circle class="cls-28" cx="653.69" cy="535.34" r="5.38" transform="rotate(-20.05 653.649 535.308)"/><circle class="cls-27" cx="640.21" cy="614.26" r="4.2" transform="rotate(-20.05 640.166 614.217)"/><circle class="cls-28" cx="653.69" cy="535.34" r="5.38" transform="rotate(-20.05 653.649 535.308)"/><path class="cls-29" d="M572.83 1375.53c-14.65 10.64-28.86 24.94-35.71 45.62s-3.84 48.77 10.24 60.77c5.79 4.93 12.68 6.7 19.42 8.14 18.18 3.9 37.25 6 54.61-2.35 16-7.72 29.58-24.43 36.89-45.41 4.63-13.3 6.7-29.3 2.2-42.69-4.08-12.14-12.83-20.12-21.83-25.27-23.39-13.41-51.26-11.18-73.35 5.85"/><path class="cls-30" d="M922 1971.56c16.95-7.35 34.92-18.91 48.87-39.81s22.1-53.05 14.35-70.69c-3.19-7.25-8.56-11.32-13.92-15-14.47-9.89-30.39-18.07-48.85-14.06-17 3.69-35.36 18.13-49.82 39.22-9.18 13.38-17.14 30.53-18.33 46.79a52.75 52.75 0 0 0 9.47 34.77c15.39 22 40.71 28.09 66.65 15.89"/><path class="cls-31" d="M517.88 1676.46c-16.39-3.57-33.45 9.3-41.31 28.35s-7.22 42.84-.6 62.67 18.67 36 32.38 48.21c19 17 43.1 27.2 65.35 19.29 8.16-2.9 15.77-8.14 22.58-14.67 19.71-18.89 32.68-49.22 34.62-81 .78-12.75-.46-26.65-7-36.16-12.16-17.59-33.85-11-51.95-13.37-18.3-2.42-35.47-15.51-53.84-14.38"/><path class="cls-32" d="M850.74 537.87c-19.25 8.63-29.94 30.53-30.74 51.61-1 26.77 12.77 54 35.87 67.61s54.76 11.81 75.11-5.62 27-47.38 20-73.11c-2.6-9.59-7.53-19.38-16.45-23.74-3.29-1.61-7-2.41-10-4.55-5.63-4.07-7.09-11.69-10.71-17.61-6.26-10.23-19.62-15-31.35-12.51s-26.47 7.17-31.79 17.92"/><path class="cls-33" d="M908.87 851.58q-1.44.79-2.86 1.64c-20.1 12.08-37.71 38.83-35 68.88a72.07 72.07 0 0 0 13.68 35.59c7.12 9.8 15.95 17.28 25 23.85 13.77 9.94 28.62 18.09 44.38 20.45s32.57-1.54 45.5-13.78c11.18-10.58 18.78-26.8 22.31-44s3.19-35.45.55-52.82c-2.15-14.15-6.17-28.59-14.72-37.75-9.06-9.71-21.58-11.85-33.42-12.79-21.84-1.78-44.88-.53-65.42 10.73z"/><path class="cls-34" d="M903.64 1350.41c19.71 7.51 42.76-.41 58.21-14.78 19.62-18.24 29.19-47.25 22.44-73.18s-30.37-47.07-57.08-49.14-52.58 14.43-65.84 37.56c-4.94 8.62-8.38 19-5.16 28.42 1.19 3.46 3.24 6.65 3.83 10.27 1.1 6.85-3.25 13.27-4.87 20-2.8 11.66 3.28 24.46 13.32 31s23.79 13.65 35.15 9.8"/><circle class="cls-35" cx="1093.22" cy="1673.45" r="8.39" transform="rotate(-29.81 1093.074 1673.314)"/><circle class="cls-36" cx="1028.34" cy="1769.82" r="2.66" transform="rotate(-75.08 1028.232 1769.779)"/><circle class="cls-37" cx="744.77" cy="1788.89" r="7.87" transform="rotate(-71.48 744.722 1788.862)"/><circle class="cls-38" cx="1068.81" cy="1724.94" r="2.66" transform="rotate(-75.08 1068.703 1724.896)"/><circle class="cls-39" cx="817.74" cy="1474.63" r="7.87" transform="rotate(-74.72 817.722 1474.621)"/><circle class="cls-40" cx="994.63" cy="715.29" r="8.39" transform="rotate(-7.42 994.123 714.987)"/><circle class="cls-41" cx="964.18" cy="1095.46" r="2.66" transform="rotate(-52.68 964.259 1095.49)"/><circle class="cls-42" cx="990.26" cy="1149.97" r="2.66" transform="rotate(-52.68 990.357 1150.007)"/><path class="cls-43" d="M1333.75 1118.29c8.71-34.07-11.91-72-40.17-90.51-11.83-7.76-25.8-12.86-39.94-12.21s-28.33 7.62-35.73 19.69c-8.09 13.19-7.39 30.47-15.9 43.4-4.29 6.52-10.58 11.39-16.13 16.88s-10.63 12.15-11.31 19.92c-.71 8.06 3.43 15.74 8.25 22.23 28.54 38.42 88.37 52.32 127.71 22.49 7.66-5.81 24-31 23.22-41.89"/><path class="cls-44" d="M1232.68 1704.74q-1.41.83-2.8 1.73c-19.68 12.74-36.4 40.06-32.74 70a72.07 72.07 0 0 0 14.86 35.13c7.44 9.56 16.51 16.75 25.82 23 14.1 9.48 29.21 17.13 45 19s32.51-2.62 45-15.28c10.82-10.95 17.88-27.41 20.84-44.75s2-35.54-1.21-52.81c-2.62-14.07-7.12-28.37-16-37.24-9.38-9.41-22-11.12-33.83-11.67-21.79-1.06-44.78.95-64.94 12.89z"/><path class="cls-45" d="M1336.46 1123.72c8.71-34.07-11.91-72-40.17-90.51-11.83-7.76-25.8-12.86-39.94-12.21s-28.33 7.62-35.73 19.69c-8.09 13.19-7.39 30.47-15.9 43.4-4.29 6.52-10.58 11.39-16.13 16.88s-10.63 12.15-11.31 19.92c-.71 8.06 3.43 15.74 8.25 22.23 28.54 38.42 88.37 52.32 127.71 22.49 7.66-5.81 24-31 23.22-41.89"/><circle class="cls-46" cx="1430.94" cy="971.93" r="8.39" transform="rotate(-29.81 1430.786 971.875)"/><circle class="cls-47" cx="1455.16" cy="907.9" r="2.66" transform="rotate(-75 1450.99 903.873)"/><circle class="cls-48" cx="1379.71" cy="880.47" r="7.87" transform="rotate(-74.72 1379.697 880.472)"/><path class="cls-49" d="M1311.6 1378.34c-34.55 6.59-60.09 41.37-64.86 74.83-2 14-.67 28.82 5.92 41.35s18.94 22.4 33 24c15.38 1.72 30.72-6.26 46-4.05 7.72 1.11 14.81 4.74 22.13 7.43s15.52 4.45 22.84 1.77c7.59-2.78 12.79-9.8 16.62-16.92 22.65-42.17 9.8-102.23-33.93-125.16-8.52-4.47-38.3-8.58-47.79-3.22"/><circle class="cls-46" cx="1430.94" cy="971.93" r="8.39" transform="rotate(-29.81 1430.786 971.875)"/><circle class="cls-47" cx="1455.16" cy="907.9" r="2.66" transform="rotate(-75 1450.99 903.873)"/><circle class="cls-48" cx="1379.71" cy="880.47" r="7.87" transform="rotate(-74.72 1379.697 880.472)"/><path class="cls-50" d="M1235.4 1710.16q-1.41.83-2.8 1.73c-19.68 12.74-36.4 40.06-32.74 70a72.07 72.07 0 0 0 14.85 35.12c7.44 9.56 16.51 16.75 25.82 23 14.1 9.48 29.21 17.13 45 19s32.51-2.62 45-15.28c10.82-10.95 17.88-27.41 20.84-44.75s2-35.54-1.21-52.81c-2.62-14.07-7.12-28.37-16-37.24-9.38-9.41-22-11.12-33.83-11.67-21.79-1.05-44.78.97-64.93 12.9z"/><circle class="cls-51" cx="1068.32" cy="1198.04" r="2.66" transform="rotate(-44.59 1068.224 1198)"/><circle class="cls-52" cx="1119.42" cy="1259.96" r="7.87" transform="rotate(-44.23 1119.441 1259.971)"/><circle class="cls-51" cx="1068.32" cy="1198.04" r="2.66" transform="rotate(-44.59 1068.224 1198)"/><circle class="cls-52" cx="1119.42" cy="1259.96" r="7.87" transform="rotate(-44.23 1119.441 1259.971)"/><circle class="cls-53" cx="1137.24" cy="1581" r="4.2" transform="rotate(-20.05 1137.14 1580.906)"/><circle class="cls-54" cx="1123.76" cy="1659.93" r="5.38" transform="rotate(-20.05 1123.658 1659.814)"/><circle class="cls-53" cx="1137.24" cy="1581" r="4.2" transform="rotate(-20.05 1137.14 1580.906)"/><circle class="cls-54" cx="1123.76" cy="1659.93" r="5.38" transform="rotate(-20.05 1123.658 1659.814)"/><path class="cls-55" d="M1318.53 830.58c14.65-10.64 28.86-24.94 35.71-45.62s3.84-48.77-10.24-60.77c-5.79-4.93-12.68-6.7-19.42-8.14-18.18-3.9-37.25-6-54.61 2.35-16 7.72-29.58 24.43-36.89 45.41-4.63 13.3-6.7 29.3-2.2 42.69 4.08 12.14 12.83 20.12 21.83 25.27 23.39 13.41 51.26 11.18 73.35-5.85"/><path class="cls-56" d="M1265 529.66c16.39 3.57 33.45-9.3 41.31-28.35s7.22-42.84.6-62.67-18.67-36-32.38-48.21c-19-17-43.1-27.2-65.35-19.29-8.16 2.9-15.77 8.14-22.58 14.67-19.71 18.89-32.68 49.22-34.62 81-.78 12.75.46 26.65 7 36.16 12.16 17.59 33.85 11 51.95 13.37 18.3 2.42 35.47 15.51 53.84 14.38"/><circle class="cls-57" cx="1032.68" cy="406.37" r="7.87" transform="rotate(-71.3 1033.612 403.733)"/></svg>