<svg id="body" xmlns="http://www.w3.org/2000/svg" xmlns:xlink="http://www.w3.org/1999/xlink" viewBox="0 0 1814.89 2282.08"><defs><style>.cls-1,.cls-2,.cls-5{fill:#d5ecf0}.cls-1,.cls-11,.cls-14,.cls-17,.cls-20,.cls-23,.cls-26,.cls-29,.cls-32,.cls-35,.cls-38,.cls-4,.cls-41,.cls-44,.cls-47,.cls-50,.cls-53,.cls-56,.cls-59,.cls-62,.cls-65,.cls-68,.cls-71,.cls-74,.cls-77,.cls-8,.cls-80,.cls-83{opacity:.5}.cls-10,.cls-13,.cls-16,.cls-19,.cls-2,.cls-22,.cls-25,.cls-28,.cls-3,.cls-31,.cls-34,.cls-37,.cls-40,.cls-43,.cls-46,.cls-49,.cls-52,.cls-55,.cls-58,.cls-61,.cls-64,.cls-67,.cls-7,.cls-70,.cls-73,.cls-76,.cls-79,.cls-82{opacity:.8}.cls-3{fill:url(#linear-gradient)}.cls-4{fill:url(#linear-gradient-2)}.cls-12,.cls-15,.cls-18,.cls-21,.cls-24,.cls-27,.cls-30,.cls-33,.cls-36,.cls-39,.cls-42,.cls-45,.cls-48,.cls-51,.cls-54,.cls-57,.cls-6,.cls-60,.cls-63,.cls-66,.cls-69,.cls-72,.cls-75,.cls-78,.cls-81,.cls-84,.cls-9{opacity:.26}.cls-6{fill:url(#linear-gradient-3)}.cls-7{fill:url(#linear-gradient-4)}.cls-8{fill:url(#linear-gradient-5)}.cls-9{fill:url(#linear-gradient-6)}.cls-10{fill:url(#linear-gradient-7)}.cls-11{fill:url(#linear-gradient-8)}.cls-12{fill:url(#linear-gradient-9)}.cls-13{fill:url(#linear-gradient-10)}.cls-14{fill:url(#linear-gradient-11)}.cls-15{fill:url(#linear-gradient-12)}.cls-16{fill:url(#linear-gradient-13)}.cls-17{fill:url(#linear-gradient-14)}.cls-18{fill:url(#linear-gradient-15)}.cls-19{fill:url(#linear-gradient-16)}.cls-20{fill:url(#linear-gradient-17)}.cls-21{fill:url(#linear-gradient-18)}.cls-22{fill:url(#linear-gradient-19)}.cls-23{fill:url(#linear-gradient-20)}.cls-24{fill:url(#linear-gradient-21)}.cls-25{fill:url(#linear-gradient-22)}.cls-26{fill:url(#linear-gradient-23)}.cls-27{fill:url(#linear-gradient-24)}.cls-28{fill:url(#linear-gradient-25)}.cls-29{fill:url(#linear-gradient-26)}.cls-30{fill:url(#linear-gradient-27)}.cls-31{fill:url(#linear-gradient-28)}.cls-32{fill:url(#linear-gradient-29)}.cls-33{fill:url(#linear-gradient-30)}.cls-34{fill:url(#linear-gradient-31)}.cls-35{fill:url(#linear-gradient-32)}.cls-36{fill:url(#linear-gradient-33)}.cls-37{fill:url(#linear-gradient-34)}.cls-38{fill:url(#linear-gradient-35)}.cls-39{fill:url(#linear-gradient-36)}.cls-40{fill:url(#linear-gradient-37)}.cls-41{fill:url(#linear-gradient-38)}.cls-42{fill:url(#linear-gradient-39)}.cls-43{fill:url(#linear-gradient-40)}.cls-44{fill:url(#linear-gradient-41)}.cls-45{fill:url(#linear-gradient-42)}.cls-46{fill:url(#linear-gradient-43)}.cls-47{fill:url(#linear-gradient-44)}.cls-48{fill:url(#linear-gradient-45)}.cls-49{fill:url(#linear-gradient-46)}.cls-50{fill:url(#linear-gradient-47)}.cls-51{fill:url(#linear-gradient-48)}.cls-52{fill:url(#linear-gradient-49)}.cls-53{fill:url(#linear-gradient-50)}.cls-54{fill:url(#linear-gradient-51)}.cls-55{fill:url(#linear-gradient-52)}.cls-56{fill:url(#linear-gradient-53)}.cls-57{fill:url(#linear-gradient-54)}.cls-58{fill:url(#linear-gradient-55)}.cls-59{fill:url(#linear-gradient-56)}.cls-60{fill:url(#linear-gradient-57)}.cls-61{fill:url(#linear-gradient-58)}.cls-62{fill:url(#linear-gradient-59)}.cls-63{fill:url(#linear-gradient-60)}.cls-64{fill:url(#linear-gradient-61)}.cls-65{fill:url(#linear-gradient-62)}.cls-66{fill:url(#linear-gradient-63)}.cls-67{fill:url(#linear-gradient-64)}.cls-68{fill:url(#linear-gradient-65)}.cls-69{fill:url(#linear-gradient-66)}.cls-70{fill:url(#linear-gradient-67)}.cls-71{fill:url(#linear-gradient-68)}.cls-72{fill:url(#linear-gradient-69)}.cls-73{fill:url(#linear-gradient-70)}.cls-74{fill:url(#linear-gradient-71)}.cls-75{fill:url(#linear-gradient-72)}.cls-76{fill:url(#linear-gradient-73)}.cls-77{fill:url(#linear-gradient-74)}.cls-78{fill:url(#linear-gradient-75)}.cls-79{fill:url(#linear-gradient-76)}.cls-80{fill:url(#linear-gradient-77)}.cls-81{fill:url(#linear-gradient-78)}.cls-82{fill:url(#linear-gradient-79)}.cls-83{fill:url(#linear-gradient-80)}.cls-84{fill:url(#linear-gradient-81)}</style><linearGradient id="linear-gradient" x1="467.25" y1="520.8" x2="467.25" y2="428.17" gradientUnits="userSpaceOnUse"><stop offset="0" stop-color="#a8d3d5"/><stop offset="1" stop-color="#c1e4ea"/></linearGradient><linearGradient id="linear-gradient-2" x1="410.01" y1="442.55" x2="524.66" y2="442.55" gradientUnits="userSpaceOnUse"><stop offset="0" stop-color="#94c6c6"/><stop offset=".51" stop-color="#5cb7c4"/><stop offset="1" stop-color="#94c6c6"/></linearGradient><linearGradient id="linear-gradient-3" x1="405.53" y1="410.05" x2="528.77" y2="410.05" xlink:href="#linear-gradient-2"/><linearGradient id="linear-gradient-4" x1="467.25" y1="785.09" x2="467.25" y2="692.46" xlink:href="#linear-gradient"/><linearGradient id="linear-gradient-5" x1="410.01" y1="706.83" x2="524.66" y2="706.83" xlink:href="#linear-gradient-2"/><linearGradient id="linear-gradient-6" x1="405.53" y1="674.34" x2="528.77" y2="674.34" xlink:href="#linear-gradient-2"/><linearGradient id="linear-gradient-7" x1="467.25" y1="1049.37" x2="467.25" y2="956.74" xlink:href="#linear-gradient"/><linearGradient id="linear-gradient-8" x1="410.01" y1="971.12" x2="524.66" y2="971.12" xlink:href="#linear-gradient-2"/><linearGradient id="linear-gradient-9" x1="405.53" y1="938.63" x2="528.77" y2="938.63" xlink:href="#linear-gradient-2"/><linearGradient id="linear-gradient-10" x1="467.25" y1="1313.66" x2="467.25" y2="1221.03" xlink:href="#linear-gradient"/><linearGradient id="linear-gradient-11" x1="410.01" y1="1235.4" x2="524.66" y2="1235.4" xlink:href="#linear-gradient-2"/><linearGradient id="linear-gradient-12" x1="405.53" y1="1202.91" x2="528.77" y2="1202.91" xlink:href="#linear-gradient-2"/><linearGradient id="linear-gradient-13" x1="467.25" y1="1577.94" x2="467.25" y2="1485.31" xlink:href="#linear-gradient"/><linearGradient id="linear-gradient-14" x1="410.01" y1="1499.69" x2="524.66" y2="1499.69" xlink:href="#linear-gradient-2"/><linearGradient id="linear-gradient-15" x1="405.53" y1="1467.2" x2="528.77" y2="1467.2" xlink:href="#linear-gradient-2"/><linearGradient id="linear-gradient-16" x1="467.25" y1="1842.23" x2="467.25" y2="1749.6" xlink:href="#linear-gradient"/><linearGradient id="linear-gradient-17" x1="410.01" y1="1763.97" x2="524.66" y2="1763.97" xlink:href="#linear-gradient-2"/><linearGradient id="linear-gradient-18" x1="405.53" y1="1731.48" x2="528.77" y2="1731.48" xlink:href="#linear-gradient-2"/><linearGradient id="linear-gradient-19" x1="687.25" y1="520.8" x2="687.25" y2="428.17" xlink:href="#linear-gradient"/><linearGradient id="linear-gradient-20" x1="630.01" y1="442.55" x2="744.66" y2="442.55" xlink:href="#linear-gradient-2"/><linearGradient id="linear-gradient-21" x1="625.53" y1="410.05" x2="748.77" y2="410.05" xlink:href="#linear-gradient-2"/><linearGradient id="linear-gradient-22" x1="687.25" y1="785.09" x2="687.25" y2="692.46" xlink:href="#linear-gradient"/><linearGradient id="linear-gradient-23" x1="630.01" y1="706.83" x2="744.66" y2="706.83" xlink:href="#linear-gradient-2"/><linearGradient id="linear-gradient-24" x1="625.53" y1="674.34" x2="748.77" y2="674.34" xlink:href="#linear-gradient-2"/><linearGradient id="linear-gradient-25" x1="687.25" y1="1049.37" x2="687.25" y2="956.74" xlink:href="#linear-gradient"/><linearGradient id="linear-gradient-26" x1="630.01" y1="971.12" x2="744.66" y2="971.12" xlink:href="#linear-gradient-2"/><linearGradient id="linear-gradient-27" x1="625.53" y1="938.63" x2="748.77" y2="938.63" xlink:href="#linear-gradient-2"/><linearGradient id="linear-gradient-28" x1="687.25" y1="1313.66" x2="687.25" y2="1221.03" xlink:href="#linear-gradient"/><linearGradient id="linear-gradient-29" x1="630.01" y1="1235.4" x2="744.66" y2="1235.4" xlink:href="#linear-gradient-2"/><linearGradient id="linear-gradient-30" x1="625.53" y1="1202.91" x2="748.77" y2="1202.91" xlink:href="#linear-gradient-2"/><linearGradient id="linear-gradient-31" x1="687.25" y1="1577.94" x2="687.25" y2="1485.31" xlink:href="#linear-gradient"/><linearGradient id="linear-gradient-32" x1="630.01" y1="1499.69" x2="744.66" y2="1499.69" xlink:href="#linear-gradient-2"/><linearGradient id="linear-gradient-33" x1="625.53" y1="1467.2" x2="748.77" y2="1467.2" xlink:href="#linear-gradient-2"/><linearGradient id="linear-gradient-34" x1="687.25" y1="1842.23" x2="687.25" y2="1749.6" xlink:href="#linear-gradient"/><linearGradient id="linear-gradient-35" x1="630.01" y1="1763.97" x2="744.66" y2="1763.97" xlink:href="#linear-gradient-2"/><linearGradient id="linear-gradient-36" x1="625.53" y1="1731.48" x2="748.77" y2="1731.48" xlink:href="#linear-gradient-2"/><linearGradient id="linear-gradient-37" x1="907.25" y1="520.8" x2="907.25" y2="428.17" xlink:href="#linear-gradient"/><linearGradient id="linear-gradient-38" x1="850.01" y1="442.55" x2="964.66" y2="442.55" xlink:href="#linear-gradient-2"/><linearGradient id="linear-gradient-39" x1="845.53" y1="410.05" x2="968.77" y2="410.05" xlink:href="#linear-gradient-2"/><linearGradient id="linear-gradient-40" x1="907.25" y1="785.09" x2="907.25" y2="692.46" xlink:href="#linear-gradient"/><linearGradient id="linear-gradient-41" x1="850.01" y1="706.83" x2="964.66" y2="706.83" xlink:href="#linear-gradient-2"/><linearGradient id="linear-gradient-42" x1="845.53" y1="674.34" x2="968.77" y2="674.34" xlink:href="#linear-gradient-2"/><linearGradient id="linear-gradient-43" x1="907.25" y1="1049.37" x2="907.25" y2="956.74" xlink:href="#linear-gradient"/><linearGradient id="linear-gradient-44" x1="850.01" y1="971.12" x2="964.66" y2="971.12" xlink:href="#linear-gradient-2"/><linearGradient id="linear-gradient-45" x1="845.53" y1="938.63" x2="968.77" y2="938.63" xlink:href="#linear-gradient-2"/><linearGradient id="linear-gradient-46" x1="907.25" y1="1313.66" x2="907.25" y2="1221.03" xlink:href="#linear-gradient"/><linearGradient id="linear-gradient-47" x1="850.01" y1="1235.4" x2="964.66" y2="1235.4" xlink:href="#linear-gradient-2"/><linearGradient id="linear-gradient-48" x1="845.53" y1="1202.91" x2="968.77" y2="1202.91" xlink:href="#linear-gradient-2"/><linearGradient id="linear-gradient-49" x1="907.25" y1="1577.94" x2="907.25" y2="1485.31" xlink:href="#linear-gradient"/><linearGradient id="linear-gradient-50" x1="850.01" y1="1499.69" x2="964.66" y2="1499.69" xlink:href="#linear-gradient-2"/><linearGradient id="linear-gradient-51" x1="845.53" y1="1467.2" x2="968.77" y2="1467.2" xlink:href="#linear-gradient-2"/><linearGradient id="linear-gradient-52" x1="907.25" y1="1842.23" x2="907.25" y2="1749.6" xlink:href="#linear-gradient"/><linearGradient id="linear-gradient-53" x1="850.01" y1="1763.97" x2="964.66" y2="1763.97" xlink:href="#linear-gradient-2"/><linearGradient id="linear-gradient-54" x1="845.53" y1="1731.48" x2="968.77" y2="1731.48" xlink:href="#linear-gradient-2"/><linearGradient id="linear-gradient-55" x1="1127.25" y1="520.8" x2="1127.25" y2="428.17" xlink:href="#linear-gradient"/><linearGradient id="linear-gradient-56" x1="1070.01" y1="442.55" x2="1184.66" y2="442.55" xlink:href="#linear-gradient-2"/><linearGradient id="linear-gradient-57" x1="1065.53" y1="410.05" x2="1188.77" y2="410.05" xlink:href="#linear-gradient-2"/><linearGradient id="linear-gradient-58" x1="1127.25" y1="785.09" x2="1127.25" y2="692.46" xlink:href="#linear-gradient"/><linearGradient id="linear-gradient-59" x1="1070.01" y1="706.83" x2="1184.66" y2="706.83" xlink:href="#linear-gradient-2"/><linearGradient id="linear-gradient-60" x1="1065.53" y1="674.34" x2="1188.77" y2="674.34" xlink:href="#linear-gradient-2"/><linearGradient id="linear-gradient-61" x1="1127.25" y1="1049.37" x2="1127.25" y2="956.74" xlink:href="#linear-gradient"/><linearGradient id="linear-gradient-62" x1="1070.01" y1="971.12" x2="1184.66" y2="971.12" xlink:href="#linear-gradient-2"/><linearGradient id="linear-gradient-63" x1="1065.53" y1="938.63" x2="1188.77" y2="938.63" xlink:href="#linear-gradient-2"/><linearGradient id="linear-gradient-64" x1="1127.25" y1="1313.66" x2="1127.25" y2="1221.03" xlink:href="#linear-gradient"/><linearGradient id="linear-gradient-65" x1="1070.01" y1="1235.4" x2="1184.66" y2="1235.4" xlink:href="#linear-gradient-2"/><linearGradient id="linear-gradient-66" x1="1065.53" y1="1202.91" x2="1188.77" y2="1202.91" xlink:href="#linear-gradient-2"/><linearGradient id="linear-gradient-67" x1="1127.25" y1="1577.94" x2="1127.25" y2="1485.31" xlink:href="#linear-gradient"/><linearGradient id="linear-gradient-68" x1="1070.01" y1="1499.69" x2="1184.66" y2="1499.69" xlink:href="#linear-gradient-2"/><linearGradient id="linear-gradient-69" x1="1065.53" y1="1467.2" x2="1188.77" y2="1467.2" xlink:href="#linear-gradient-2"/><linearGradient id="linear-gradient-70" x1="1127.25" y1="1842.23" x2="1127.25" y2="1749.6" xlink:href="#linear-gradient"/><linearGradient id="linear-gradient-71" x1="1070.01" y1="1763.97" x2="1184.66" y2="1763.97" xlink:href="#linear-gradient-2"/><linearGradient id="linear-gradient-72" x1="1065.53" y1="1731.48" x2="1188.77" y2="1731.48" xlink:href="#linear-gradient-2"/><linearGradient id="linear-gradient-73" x1="1347.25" y1="1313.66" x2="1347.25" y2="1221.03" xlink:href="#linear-gradient"/><linearGradient id="linear-gradient-74" x1="1290.01" y1="1235.4" x2="1404.66" y2="1235.4" xlink:href="#linear-gradient-2"/><linearGradient id="linear-gradient-75" x1="1285.53" y1="1202.91" x2="1408.77" y2="1202.91" xlink:href="#linear-gradient-2"/><linearGradient id="linear-gradient-76" x1="1347.25" y1="1577.94" x2="1347.25" y2="1485.31" xlink:href="#linear-gradient"/><linearGradient id="linear-gradient-77" x1="1290.01" y1="1499.69" x2="1404.66" y2="1499.69" xlink:href="#linear-gradient-2"/><linearGradient id="linear-gradient-78" x1="1285.53" y1="1467.2" x2="1408.77" y2="1467.2" xlink:href="#linear-gradient-2"/><linearGradient id="linear-gradient-79" x1="1347.25" y1="1842.23" x2="1347.25" y2="1749.6" xlink:href="#linear-gradient"/><linearGradient id="linear-gradient-80" x1="1290.01" y1="1763.97" x2="1404.66" y2="1763.97" xlink:href="#linear-gradient-2"/><linearGradient id="linear-gradient-81" x1="1285.53" y1="1731.48" x2="1408.77" y2="1731.48" xlink:href="#linear-gradient-2"/></defs><title>extra_panels_illo</title><path class="cls-1" d="M393.94 401.58c0 .71.12 1.41.21 2.11 1.69 13.65 3.74 28.44 5.56 42.09l6 44.92 8.79 65.91a9.31 9.31 0 0 1 .22 1.68s-1.18 17.78 54.51 17.78 50.66-17.18 50.66-17.18l20.74-156.13s2.67-8.3-5.93-10.37a295.87 295.87 0 0 0-68.7-7.81c-11.66 0-23.33.52-34.94 1.58-10.38.94-21.8.83-31.37 5.46h-.09c-.36.18-.73.37-1.08.58a8.81 8.81 0 0 0-4.15 5 9.77 9.77 0 0 0-.43 4.38z"/><path class="cls-2" d="M402.69 407.06a26.43 26.43 0 0 0 .27 3.79c1.32 9.61 4.31 19.16 6.56 28.59l9.76 41 5 21.17s3.26 18.66 32.44 18.66h24s24 .74 29.63-20.89 22.22-92.14 22.22-92.14 4-8-8.15-10.67c-12.68-2.78-26-3.51-39-4.11a403.94 403.94 0 0 0-57.87 1.7c-6.26.63-13.65.26-19.4 3.1-4.15 2.07-5.4 2.52-5.46 9.8z"/><path class="cls-3" d="M510.4 499.91c3.42-13.12 10.86-44.24 16.2-66.68-.65-.21-1.35-.4-2.12-.57-12.68-2.78-26-3.51-39-4.11a404 404 0 0 0-57.87 1.7c-6.26.63-13.65.26-19.4 3.1l-.35.17c.56 2.16 1.11 4.32 1.63 6.47l9.76 41 5 21.17s3.26 18.66 32.44 18.66h24s24.08.72 29.71-20.91z"/><path class="cls-4" d="M410 437.72s46.58 16.17 114.65 0c.01 0-59.25 21.71-114.65 0z"/><path class="cls-5" d="M517.51 557s-7.51-10.7-52.58-10.7-46.81 10.7-46.81 10.7 10.43-9.18 46.51-9.18 52.88 9.18 52.88 9.18z"/><path class="cls-6" d="M405.53 405.28s50.07 16 123.24 0c0 0-63.7 21.48-123.24 0z"/><path class="cls-1" d="M393.94 665.87c0 .71.12 1.41.21 2.11 1.69 13.65 3.74 28.44 5.56 42.09l6 44.92 8.79 65.91a9.31 9.31 0 0 1 .22 1.68s-1.18 17.78 54.51 17.78 50.66-17.18 50.66-17.18L540.62 667s2.67-8.3-5.93-10.37a295.87 295.87 0 0 0-68.69-7.76c-11.66 0-23.33.52-34.94 1.58-10.38.94-21.8.83-31.37 5.46h-.09c-.36.18-.73.37-1.08.58a8.81 8.81 0 0 0-4.15 5 9.77 9.77 0 0 0-.43 4.38z"/><path class="cls-2" d="M402.7 671.34a26.43 26.43 0 0 0 .27 3.79c1.32 9.61 4.31 19.16 6.56 28.59l9.76 41 5 21.17s3.26 18.66 32.44 18.66h24s24 .74 29.63-20.89 22.22-92.14 22.22-92.14 4-8-8.15-10.67c-12.68-2.78-26-3.51-39-4.11a403.94 403.94 0 0 0-57.87 1.7c-6.26.63-13.65.26-19.4 3.1-4.16 2.08-5.41 2.52-5.46 9.8z"/><path class="cls-7" d="M510.4 764.2c3.42-13.12 10.86-44.24 16.2-66.68-.65-.21-1.35-.4-2.12-.57-12.68-2.78-26-3.51-39-4.11a404 404 0 0 0-57.87 1.7c-6.26.63-13.65.26-19.4 3.1l-.35.17c.56 2.16 1.11 4.32 1.63 6.47l9.76 41 5 21.17s3.26 18.66 32.44 18.66h24s24.08.71 29.71-20.91z"/><path class="cls-8" d="M410 702s46.58 16.17 114.65 0c.01 0-59.25 21.72-114.65 0z"/><path class="cls-5" d="M517.51 821.25s-7.55-10.67-52.59-10.67-46.81 10.67-46.81 10.67 10.43-9.18 46.51-9.18 52.89 9.18 52.89 9.18z"/><path class="cls-9" d="M405.53 669.57s50.07 16 123.24 0c0 0-63.7 21.43-123.24 0z"/><path class="cls-1" d="M393.94 930.15c0 .71.12 1.41.21 2.11 1.69 13.65 3.74 28.44 5.56 42.09l6 44.92 8.79 65.91a9.31 9.31 0 0 1 .22 1.68s-1.18 17.78 54.51 17.78 50.66-17.18 50.66-17.18l20.74-156.13s2.67-8.3-5.93-10.37a295.87 295.87 0 0 0-68.7-7.8c-11.66 0-23.33.52-34.94 1.58-10.38.94-21.8.83-31.37 5.46h-.09c-.36.18-.73.37-1.08.58a8.81 8.81 0 0 0-4.15 5 9.77 9.77 0 0 0-.43 4.37z"/><path class="cls-2" d="M402.7 935.63a26.43 26.43 0 0 0 .27 3.79c1.32 9.61 4.31 19.16 6.56 28.59l9.76 41 5 21.17s3.26 18.66 32.44 18.66h24s24 .74 29.63-20.89 22.22-92.14 22.22-92.14 4-8-8.15-10.67c-12.68-2.78-26-3.51-39-4.11a403.94 403.94 0 0 0-57.87 1.7c-6.26.63-13.65.26-19.4 3.1-4.16 2.08-5.41 2.52-5.46 9.8z"/><path class="cls-10" d="M510.4 1028.48c3.42-13.12 10.86-44.24 16.2-66.68-.65-.21-1.35-.4-2.12-.57-12.68-2.78-26-3.51-39-4.11a404 404 0 0 0-57.87 1.7c-6.26.63-13.65.26-19.4 3.1l-.35.17c.56 2.16 1.11 4.32 1.63 6.47l9.76 41 5 21.17s3.26 18.66 32.44 18.66h24s24.08.72 29.71-20.91z"/><path class="cls-11" d="M410 966.29s46.58 16.17 114.65 0c.01 0-59.25 21.71-114.65 0z"/><path class="cls-5" d="M517.51 1085.53s-7.55-10.67-52.59-10.67-46.81 10.67-46.81 10.67 10.43-9.18 46.51-9.18 52.89 9.18 52.89 9.18z"/><path class="cls-12" d="M405.53 933.85s50.07 16 123.24 0c0 0-63.7 21.48-123.24 0z"/><path class="cls-1" d="M393.94 1194.44c0 .71.12 1.41.21 2.11 1.69 13.65 3.74 28.44 5.56 42.09l6 44.92 8.79 65.91a9.31 9.31 0 0 1 .22 1.68s-1.18 17.78 54.51 17.78 50.66-17.18 50.66-17.18l20.74-156.13s2.67-8.3-5.93-10.37a295.87 295.87 0 0 0-68.65-7.81c-11.66 0-23.33.52-34.94 1.58-10.38.94-21.8.83-31.37 5.46h-.09c-.36.18-.73.37-1.08.58a8.81 8.81 0 0 0-4.15 5 9.77 9.77 0 0 0-.48 4.38z"/><path class="cls-2" d="M402.7 1199.91a26.43 26.43 0 0 0 .27 3.79c1.32 9.61 4.31 19.16 6.56 28.59l9.76 41 5 21.17s3.26 18.66 32.44 18.66h24s24 .74 29.63-20.89 22.22-92.14 22.22-92.14 4-8-8.15-10.67c-12.68-2.78-26-3.51-39-4.11a403.94 403.94 0 0 0-57.87 1.7c-6.26.63-13.65.26-19.4 3.1-4.16 2.08-5.41 2.52-5.46 9.8z"/><path class="cls-13" d="M510.4 1292.77c3.42-13.12 10.86-44.24 16.2-66.68-.65-.21-1.35-.4-2.12-.57-12.68-2.78-26-3.51-39-4.11a404 404 0 0 0-57.87 1.7c-6.26.63-13.65.26-19.4 3.1l-.35.17c.56 2.16 1.11 4.32 1.63 6.47l9.76 41 5 21.17s3.26 18.66 32.44 18.66h24s24.08.71 29.71-20.91z"/><path class="cls-14" d="M410 1230.58s46.58 16.17 114.65 0c.01 0-59.25 21.71-114.65 0z"/><path class="cls-5" d="M517.51 1349.82s-7.55-10.67-52.59-10.67-46.81 10.67-46.81 10.67 10.43-9.18 46.51-9.18 52.89 9.18 52.89 9.18z"/><path class="cls-15" d="M405.53 1198.14s50.07 16 123.24 0c0 0-63.7 21.48-123.24 0z"/><path class="cls-1" d="M393.94 1458.72c0 .71.12 1.41.21 2.11 1.69 13.65 3.74 28.44 5.56 42.09l6 44.92 8.79 65.91a9.31 9.31 0 0 1 .22 1.68s-1.18 17.78 54.51 17.78 50.65-17.21 50.65-17.21l20.74-156.13s2.67-8.3-5.93-10.37a295.87 295.87 0 0 0-68.65-7.81c-11.66 0-23.33.52-34.94 1.58-10.38.94-21.8.83-31.37 5.46h-.09c-.36.18-.73.37-1.08.58a8.81 8.81 0 0 0-4.15 5 9.77 9.77 0 0 0-.47 4.41z"/><path class="cls-2" d="M402.7 1464.2a26.43 26.43 0 0 0 .3 3.8c1.32 9.61 4.31 19.16 6.56 28.59l9.76 41 5 21.17s3.26 18.66 32.44 18.66h24s24 .74 29.63-20.89 22.22-92.14 22.22-92.14 4-8-8.15-10.67c-12.68-2.78-26-3.51-39-4.11a403.94 403.94 0 0 0-57.87 1.7c-6.26.63-13.65.26-19.4 3.1-4.19 2.07-5.44 2.51-5.49 9.79z"/><path class="cls-16" d="M510.4 1557.05c3.42-13.12 10.86-44.24 16.2-66.68-.65-.21-1.35-.4-2.12-.57-12.68-2.78-26-3.51-39-4.11a404 404 0 0 0-57.87 1.7c-6.26.63-13.65.26-19.4 3.1l-.35.17c.56 2.16 1.11 4.32 1.63 6.47l9.76 41 5 21.17s3.26 18.66 32.44 18.66h24s24.08.72 29.71-20.91z"/><path class="cls-17" d="M410 1494.86s46.58 16.17 114.65 0c.01 0-59.25 21.72-114.65 0z"/><path class="cls-5" d="M517.51 1614.11s-7.55-10.67-52.59-10.67-46.81 10.67-46.81 10.67 10.43-9.18 46.51-9.18 52.89 9.18 52.89 9.18z"/><path class="cls-18" d="M405.53 1462.42s50.07 16 123.24 0c0 0-63.7 21.48-123.24 0z"/><path class="cls-1" d="M393.94 1723c0 .71.12 1.41.21 2.11 1.69 13.65 3.74 28.44 5.56 42.09l6 44.92 8.79 65.91a9.31 9.31 0 0 1 .22 1.68s-1.18 17.78 54.51 17.78 50.66-17.18 50.66-17.18l20.74-156.13s2.67-8.3-5.93-10.37A295.87 295.87 0 0 0 466 1706c-11.66 0-23.33.52-34.94 1.58-10.38.94-21.8.83-31.37 5.46h-.09c-.36.18-.73.37-1.08.58a8.81 8.81 0 0 0-4.15 5 9.77 9.77 0 0 0-.43 4.38z"/><path class="cls-2" d="M402.7 1728.49a26.43 26.43 0 0 0 .27 3.79c1.32 9.61 4.31 19.16 6.56 28.59l9.76 41 5 21.17s3.26 18.66 32.44 18.66h24s24 .74 29.63-20.89 22.22-92.14 22.22-92.14 4-8-8.15-10.67c-12.68-2.78-26-3.51-39-4.11a403.94 403.94 0 0 0-57.87 1.7c-6.26.63-13.65.26-19.4 3.1-4.16 2.07-5.41 2.52-5.46 9.8z"/><path class="cls-19" d="M510.4 1821.34c3.42-13.12 10.86-44.24 16.2-66.68-.65-.21-1.35-.4-2.12-.57-12.68-2.78-26-3.51-39-4.11a404 404 0 0 0-57.87 1.7c-6.26.63-13.65.26-19.4 3.1l-.35.17c.56 2.16 1.11 4.32 1.63 6.47l9.76 41 5 21.17s3.26 18.66 32.44 18.66h24s24.08.75 29.71-20.91z"/><path class="cls-20" d="M410 1759.15s46.58 16.17 114.65 0c.01 0-59.25 21.71-114.65 0z"/><path class="cls-5" d="M517.51 1878.39s-7.55-10.67-52.59-10.67-46.81 10.67-46.81 10.67 10.43-9.18 46.51-9.18 52.89 9.18 52.89 9.18z"/><path class="cls-21" d="M405.53 1726.71s50.07 16 123.24 0c0 0-63.7 21.48-123.24 0z"/><path class="cls-1" d="M613.94 401.58c0 .71.12 1.41.21 2.11 1.69 13.65 3.74 28.44 5.56 42.09l6 44.92 8.79 65.91a9.31 9.31 0 0 1 .22 1.68s-1.18 17.78 54.51 17.78 50.66-17.18 50.66-17.18l20.74-156.13s2.67-8.3-5.93-10.37a295.87 295.87 0 0 0-68.7-7.81c-11.66 0-23.33.52-34.94 1.58-10.38.94-21.8.83-31.37 5.46h-.09c-.36.18-.73.37-1.08.58a8.81 8.81 0 0 0-4.15 5 9.77 9.77 0 0 0-.43 4.38z"/><path class="cls-2" d="M622.69 407.06a26.43 26.43 0 0 0 .27 3.79c1.32 9.61 4.31 19.16 6.56 28.59l9.76 41 5 21.17s3.26 18.66 32.44 18.66h24s24 .74 29.63-20.89 22.22-92.14 22.22-92.14 4-8-8.15-10.67c-12.68-2.78-26-3.51-39-4.11a403.94 403.94 0 0 0-57.87 1.7c-6.26.63-13.65.26-19.4 3.1-4.15 2.07-5.4 2.52-5.46 9.8z"/><path class="cls-22" d="M730.4 499.91c3.42-13.12 10.86-44.24 16.2-66.68-.65-.21-1.35-.4-2.12-.57-12.68-2.78-26-3.51-39-4.11a404 404 0 0 0-57.87 1.7c-6.26.63-13.65.26-19.4 3.1l-.35.17c.56 2.16 1.11 4.32 1.63 6.47l9.76 41 5 21.17s3.26 18.66 32.44 18.66h24s24.08.72 29.71-20.91z"/><path class="cls-23" d="M630 437.72s46.58 16.17 114.65 0c.01 0-59.25 21.71-114.65 0z"/><path class="cls-5" d="M737.51 557s-7.51-10.7-52.58-10.7-46.81 10.7-46.81 10.7 10.43-9.18 46.51-9.18 52.88 9.18 52.88 9.18z"/><path class="cls-24" d="M625.53 405.28s50.07 16 123.24 0c0 0-63.7 21.48-123.24 0z"/><path class="cls-1" d="M613.94 665.87c0 .71.12 1.41.21 2.11 1.69 13.65 3.74 28.44 5.56 42.09l6 44.92 8.79 65.91a9.31 9.31 0 0 1 .22 1.68s-1.18 17.78 54.51 17.78 50.66-17.18 50.66-17.18L760.62 667s2.67-8.3-5.93-10.37a295.87 295.87 0 0 0-68.69-7.76c-11.66 0-23.33.52-34.94 1.58-10.38.94-21.8.83-31.37 5.46h-.09c-.36.18-.73.37-1.08.58a8.81 8.81 0 0 0-4.15 5 9.77 9.77 0 0 0-.43 4.38z"/><path class="cls-2" d="M622.7 671.34a26.43 26.43 0 0 0 .27 3.79c1.32 9.61 4.31 19.16 6.56 28.59l9.76 41 5 21.17s3.26 18.66 32.44 18.66h24s24 .74 29.63-20.89 22.22-92.14 22.22-92.14 4-8-8.15-10.67c-12.68-2.78-26-3.51-39-4.11a403.94 403.94 0 0 0-57.87 1.7c-6.26.63-13.65.26-19.4 3.1-4.16 2.08-5.41 2.52-5.46 9.8z"/><path class="cls-25" d="M730.4 764.2c3.42-13.12 10.86-44.24 16.2-66.68-.65-.21-1.35-.4-2.12-.57-12.68-2.78-26-3.51-39-4.11a404 404 0 0 0-57.87 1.7c-6.26.63-13.65.26-19.4 3.1l-.35.17c.56 2.16 1.11 4.32 1.63 6.47l9.76 41 5 21.17s3.26 18.66 32.44 18.66h24s24.08.71 29.71-20.91z"/><path class="cls-26" d="M630 702s46.58 16.17 114.65 0c.01 0-59.25 21.72-114.65 0z"/><path class="cls-5" d="M737.51 821.25s-7.55-10.67-52.59-10.67-46.81 10.67-46.81 10.67 10.43-9.18 46.51-9.18 52.89 9.18 52.89 9.18z"/><path class="cls-27" d="M625.53 669.57s50.07 16 123.24 0c0 0-63.7 21.43-123.24 0z"/><path class="cls-1" d="M613.94 930.15c0 .71.12 1.41.21 2.11 1.69 13.65 3.74 28.44 5.56 42.09l6 44.92 8.79 65.91a9.31 9.31 0 0 1 .22 1.68s-1.18 17.78 54.51 17.78 50.66-17.18 50.66-17.18l20.74-156.13s2.67-8.3-5.93-10.37a295.87 295.87 0 0 0-68.7-7.8c-11.66 0-23.33.52-34.94 1.58-10.38.94-21.8.83-31.37 5.46h-.09c-.36.18-.73.37-1.08.58a8.81 8.81 0 0 0-4.15 5 9.77 9.77 0 0 0-.43 4.37z"/><path class="cls-2" d="M622.7 935.63a26.43 26.43 0 0 0 .27 3.79c1.32 9.61 4.31 19.16 6.56 28.59l9.76 41 5 21.17s3.26 18.66 32.44 18.66h24s24 .74 29.63-20.89 22.22-92.14 22.22-92.14 4-8-8.15-10.67c-12.68-2.78-26-3.51-39-4.11a403.94 403.94 0 0 0-57.87 1.7c-6.26.63-13.65.26-19.4 3.1-4.16 2.08-5.41 2.52-5.46 9.8z"/><path class="cls-28" d="M730.4 1028.48c3.42-13.12 10.86-44.24 16.2-66.68-.65-.21-1.35-.4-2.12-.57-12.68-2.78-26-3.51-39-4.11a404 404 0 0 0-57.87 1.7c-6.26.63-13.65.26-19.4 3.1l-.35.17c.56 2.16 1.11 4.32 1.63 6.47l9.76 41 5 21.17s3.26 18.66 32.44 18.66h24s24.08.72 29.71-20.91z"/><path class="cls-29" d="M630 966.29s46.58 16.17 114.65 0c.01 0-59.25 21.71-114.65 0z"/><path class="cls-5" d="M737.51 1085.53s-7.55-10.67-52.59-10.67-46.81 10.67-46.81 10.67 10.43-9.18 46.51-9.18 52.89 9.18 52.89 9.18z"/><path class="cls-30" d="M625.53 933.85s50.07 16 123.24 0c0 0-63.7 21.48-123.24 0z"/><path class="cls-1" d="M613.94 1194.44c0 .71.12 1.41.21 2.11 1.69 13.65 3.74 28.44 5.56 42.09l6 44.92 8.79 65.91a9.31 9.31 0 0 1 .22 1.68s-1.18 17.78 54.51 17.78 50.66-17.18 50.66-17.18l20.74-156.13s2.67-8.3-5.93-10.37a295.87 295.87 0 0 0-68.65-7.81c-11.66 0-23.33.52-34.94 1.58-10.38.94-21.8.83-31.37 5.46h-.09c-.36.18-.73.37-1.08.58a8.81 8.81 0 0 0-4.15 5 9.77 9.77 0 0 0-.48 4.38z"/><path class="cls-2" d="M622.7 1199.91a26.43 26.43 0 0 0 .27 3.79c1.32 9.61 4.31 19.16 6.56 28.59l9.76 41 5 21.17s3.26 18.66 32.44 18.66h24s24 .74 29.63-20.89 22.22-92.14 22.22-92.14 4-8-8.15-10.67c-12.68-2.78-26-3.51-39-4.11a403.94 403.94 0 0 0-57.87 1.7c-6.26.63-13.65.26-19.4 3.1-4.16 2.08-5.41 2.52-5.46 9.8z"/><path class="cls-31" d="M730.4 1292.77c3.42-13.12 10.86-44.24 16.2-66.68-.65-.21-1.35-.4-2.12-.57-12.68-2.78-26-3.51-39-4.11a404 404 0 0 0-57.87 1.7c-6.26.63-13.65.26-19.4 3.1l-.35.17c.56 2.16 1.11 4.32 1.63 6.47l9.76 41 5 21.17s3.26 18.66 32.44 18.66h24s24.08.71 29.71-20.91z"/><path class="cls-32" d="M630 1230.58s46.58 16.17 114.65 0c.01 0-59.25 21.71-114.65 0z"/><path class="cls-5" d="M737.51 1349.82s-7.55-10.67-52.59-10.67-46.81 10.67-46.81 10.67 10.43-9.18 46.51-9.18 52.89 9.18 52.89 9.18z"/><path class="cls-33" d="M625.53 1198.14s50.07 16 123.24 0c0 0-63.7 21.48-123.24 0z"/><path class="cls-1" d="M613.94 1458.72c0 .71.12 1.41.21 2.11 1.69 13.65 3.74 28.44 5.56 42.09l6 44.92 8.79 65.91a9.31 9.31 0 0 1 .22 1.68s-1.18 17.78 54.51 17.78 50.65-17.21 50.65-17.21l20.74-156.13s2.67-8.3-5.93-10.37a295.87 295.87 0 0 0-68.65-7.81c-11.66 0-23.33.52-34.94 1.58-10.38.94-21.8.83-31.37 5.46h-.09c-.36.18-.73.37-1.08.58a8.81 8.81 0 0 0-4.15 5 9.77 9.77 0 0 0-.47 4.41z"/><path class="cls-2" d="M622.7 1464.2a26.43 26.43 0 0 0 .3 3.8c1.32 9.61 4.31 19.16 6.56 28.59l9.76 41 5 21.17s3.26 18.66 32.44 18.66h24s24 .74 29.63-20.89 22.22-92.14 22.22-92.14 4-8-8.15-10.67c-12.68-2.78-26-3.51-39-4.11a403.94 403.94 0 0 0-57.87 1.7c-6.26.63-13.65.26-19.4 3.1-4.19 2.07-5.44 2.51-5.49 9.79z"/><path class="cls-34" d="M730.4 1557.05c3.42-13.12 10.86-44.24 16.2-66.68-.65-.21-1.35-.4-2.12-.57-12.68-2.78-26-3.51-39-4.11a404 404 0 0 0-57.87 1.7c-6.26.63-13.65.26-19.4 3.1l-.35.17c.56 2.16 1.11 4.32 1.63 6.47l9.76 41 5 21.17s3.26 18.66 32.44 18.66h24s24.08.72 29.71-20.91z"/><path class="cls-35" d="M630 1494.86s46.58 16.17 114.65 0c.01 0-59.25 21.72-114.65 0z"/><path class="cls-5" d="M737.51 1614.11s-7.55-10.67-52.59-10.67-46.81 10.67-46.81 10.67 10.43-9.18 46.51-9.18 52.89 9.18 52.89 9.18z"/><path class="cls-36" d="M625.53 1462.42s50.07 16 123.24 0c0 0-63.7 21.48-123.24 0z"/><path class="cls-1" d="M613.94 1723c0 .71.12 1.41.21 2.11 1.69 13.65 3.74 28.44 5.56 42.09l6 44.92 8.79 65.91a9.31 9.31 0 0 1 .22 1.68s-1.18 17.78 54.51 17.78 50.66-17.18 50.66-17.18l20.74-156.13s2.67-8.3-5.93-10.37A295.87 295.87 0 0 0 686 1706c-11.66 0-23.33.52-34.94 1.58-10.38.94-21.8.83-31.37 5.46h-.09c-.36.18-.73.37-1.08.58a8.81 8.81 0 0 0-4.15 5 9.77 9.77 0 0 0-.43 4.38z"/><path class="cls-2" d="M622.7 1728.49a26.43 26.43 0 0 0 .27 3.79c1.32 9.61 4.31 19.16 6.56 28.59l9.76 41 5 21.17s3.26 18.66 32.44 18.66h24s24 .74 29.63-20.89 22.22-92.14 22.22-92.14 4-8-8.15-10.67c-12.68-2.78-26-3.51-39-4.11a403.94 403.94 0 0 0-57.87 1.7c-6.26.63-13.65.26-19.4 3.1-4.16 2.07-5.41 2.52-5.46 9.8z"/><path class="cls-37" d="M730.4 1821.34c3.42-13.12 10.86-44.24 16.2-66.68-.65-.21-1.35-.4-2.12-.57-12.68-2.78-26-3.51-39-4.11a404 404 0 0 0-57.87 1.7c-6.26.63-13.65.26-19.4 3.1l-.35.17c.56 2.16 1.11 4.32 1.63 6.47l9.76 41 5 21.17s3.26 18.66 32.44 18.66h24s24.08.75 29.71-20.91z"/><path class="cls-38" d="M630 1759.15s46.58 16.17 114.65 0c.01 0-59.25 21.71-114.65 0z"/><path class="cls-5" d="M737.51 1878.39s-7.55-10.67-52.59-10.67-46.81 10.67-46.81 10.67 10.43-9.18 46.51-9.18 52.89 9.18 52.89 9.18z"/><path class="cls-39" d="M625.53 1726.71s50.07 16 123.24 0c0 0-63.7 21.48-123.24 0z"/><path class="cls-1" d="M833.94 401.58c0 .71.12 1.41.21 2.11 1.69 13.65 3.74 28.44 5.56 42.09l6 44.92 8.79 65.91a9.31 9.31 0 0 1 .22 1.68s-1.18 17.78 54.51 17.78 50.66-17.18 50.66-17.18l20.74-156.13s2.67-8.3-5.93-10.37a295.87 295.87 0 0 0-68.7-7.81c-11.66 0-23.33.52-34.94 1.58-10.38.94-21.8.83-31.37 5.46h-.09c-.36.18-.73.37-1.08.58a8.81 8.81 0 0 0-4.15 5 9.77 9.77 0 0 0-.43 4.38z"/><path class="cls-2" d="M842.69 407.06a26.43 26.43 0 0 0 .27 3.79c1.32 9.61 4.31 19.16 6.56 28.59l9.76 41 5 21.17s3.26 18.66 32.44 18.66h24s24 .74 29.63-20.89 22.22-92.14 22.22-92.14 4-8-8.15-10.67c-12.68-2.78-26-3.51-39-4.11a403.94 403.94 0 0 0-57.87 1.7c-6.26.63-13.65.26-19.4 3.1-4.15 2.07-5.4 2.52-5.46 9.8z"/><path class="cls-40" d="M950.4 499.91c3.42-13.12 10.86-44.24 16.2-66.68-.65-.21-1.35-.4-2.12-.57-12.68-2.78-26-3.51-39-4.11a404 404 0 0 0-57.87 1.7c-6.26.63-13.65.26-19.4 3.1l-.35.17c.56 2.16 1.11 4.32 1.63 6.47l9.76 41 5 21.17s3.26 18.66 32.44 18.66h24s24.08.72 29.71-20.91z"/><path class="cls-41" d="M850 437.72s46.58 16.17 114.65 0c.01 0-59.25 21.71-114.65 0z"/><path class="cls-5" d="M957.51 557s-7.51-10.7-52.58-10.7-46.81 10.7-46.81 10.7 10.43-9.18 46.51-9.18 52.88 9.18 52.88 9.18z"/><path class="cls-42" d="M845.53 405.28s50.07 16 123.24 0c0 0-63.7 21.48-123.24 0z"/><path class="cls-1" d="M833.94 665.87c0 .71.12 1.41.21 2.11 1.69 13.65 3.74 28.44 5.56 42.09l6 44.92 8.79 65.91a9.31 9.31 0 0 1 .22 1.68s-1.18 17.78 54.51 17.78 50.66-17.18 50.66-17.18L980.62 667s2.67-8.3-5.93-10.37a295.87 295.87 0 0 0-68.69-7.76c-11.66 0-23.33.52-34.94 1.58-10.38.94-21.8.83-31.37 5.46h-.09c-.36.18-.73.37-1.08.58a8.81 8.81 0 0 0-4.15 5 9.77 9.77 0 0 0-.43 4.38z"/><path class="cls-2" d="M842.7 671.34a26.43 26.43 0 0 0 .27 3.79c1.32 9.61 4.31 19.16 6.56 28.59l9.76 41 5 21.17s3.26 18.66 32.44 18.66h24s24 .74 29.63-20.89 22.22-92.14 22.22-92.14 4-8-8.15-10.67c-12.68-2.78-26-3.51-39-4.11a403.94 403.94 0 0 0-57.87 1.7c-6.26.63-13.65.26-19.4 3.1-4.16 2.08-5.41 2.52-5.46 9.8z"/><path class="cls-43" d="M950.4 764.2c3.42-13.12 10.86-44.24 16.2-66.68-.65-.21-1.35-.4-2.12-.57-12.68-2.78-26-3.51-39-4.11a404 404 0 0 0-57.87 1.7c-6.26.63-13.65.26-19.4 3.1l-.35.17c.56 2.16 1.11 4.32 1.63 6.47l9.76 41 5 21.17s3.26 18.66 32.44 18.66h24s24.08.71 29.71-20.91z"/><path class="cls-44" d="M850 702s46.58 16.17 114.65 0c.01 0-59.25 21.72-114.65 0z"/><path class="cls-5" d="M957.51 821.25s-7.55-10.67-52.59-10.67-46.81 10.67-46.81 10.67 10.43-9.18 46.51-9.18 52.89 9.18 52.89 9.18z"/><path class="cls-45" d="M845.53 669.57s50.07 16 123.24 0c0 0-63.7 21.43-123.24 0z"/><path class="cls-1" d="M833.94 930.15c0 .71.12 1.41.21 2.11 1.69 13.65 3.74 28.44 5.56 42.09l6 44.92 8.79 65.91a9.31 9.31 0 0 1 .22 1.68s-1.18 17.78 54.51 17.78 50.66-17.18 50.66-17.18l20.74-156.13s2.67-8.3-5.93-10.37a295.87 295.87 0 0 0-68.7-7.8c-11.66 0-23.33.52-34.94 1.58-10.38.94-21.8.83-31.37 5.46h-.09c-.36.18-.73.37-1.08.58a8.81 8.81 0 0 0-4.15 5 9.77 9.77 0 0 0-.43 4.37z"/><path class="cls-2" d="M842.7 935.63a26.43 26.43 0 0 0 .27 3.79c1.32 9.61 4.31 19.16 6.56 28.59l9.76 41 5 21.17s3.26 18.66 32.44 18.66h24s24 .74 29.63-20.89 22.22-92.14 22.22-92.14 4-8-8.15-10.67c-12.68-2.78-26-3.51-39-4.11a403.94 403.94 0 0 0-57.87 1.7c-6.26.63-13.65.26-19.4 3.1-4.16 2.08-5.41 2.52-5.46 9.8z"/><path class="cls-46" d="M950.4 1028.48c3.42-13.12 10.86-44.24 16.2-66.68-.65-.21-1.35-.4-2.12-.57-12.68-2.78-26-3.51-39-4.11a404 404 0 0 0-57.87 1.7c-6.26.63-13.65.26-19.4 3.1l-.35.17c.56 2.16 1.11 4.32 1.63 6.47l9.76 41 5 21.17s3.26 18.66 32.44 18.66h24s24.08.72 29.71-20.91z"/><path class="cls-47" d="M850 966.29s46.58 16.17 114.65 0c.01 0-59.25 21.71-114.65 0z"/><path class="cls-5" d="M957.51 1085.53s-7.55-10.67-52.59-10.67-46.81 10.67-46.81 10.67 10.43-9.18 46.51-9.18 52.89 9.18 52.89 9.18z"/><path class="cls-48" d="M845.53 933.85s50.07 16 123.24 0c0 0-63.7 21.48-123.24 0z"/><path class="cls-1" d="M833.94 1194.44c0 .71.12 1.41.21 2.11 1.69 13.65 3.74 28.44 5.56 42.09l6 44.92 8.79 65.91a9.31 9.31 0 0 1 .22 1.68s-1.18 17.78 54.51 17.78 50.66-17.18 50.66-17.18l20.74-156.13s2.67-8.3-5.93-10.37a295.87 295.87 0 0 0-68.65-7.81c-11.66 0-23.33.52-34.94 1.58-10.38.94-21.8.83-31.37 5.46h-.09c-.36.18-.73.37-1.08.58a8.81 8.81 0 0 0-4.15 5 9.77 9.77 0 0 0-.48 4.38z"/><path class="cls-2" d="M842.7 1199.91a26.43 26.43 0 0 0 .27 3.79c1.32 9.61 4.31 19.16 6.56 28.59l9.76 41 5 21.17s3.26 18.66 32.44 18.66h24s24 .74 29.63-20.89 22.22-92.14 22.22-92.14 4-8-8.15-10.67c-12.68-2.78-26-3.51-39-4.11a403.94 403.94 0 0 0-57.87 1.7c-6.26.63-13.65.26-19.4 3.1-4.16 2.08-5.41 2.52-5.46 9.8z"/><path class="cls-49" d="M950.4 1292.77c3.42-13.12 10.86-44.24 16.2-66.68-.65-.21-1.35-.4-2.12-.57-12.68-2.78-26-3.51-39-4.11a404 404 0 0 0-57.87 1.7c-6.26.63-13.65.26-19.4 3.1l-.35.17c.56 2.16 1.11 4.32 1.63 6.47l9.76 41 5 21.17s3.26 18.66 32.44 18.66h24s24.08.71 29.71-20.91z"/><path class="cls-50" d="M850 1230.58s46.58 16.17 114.65 0c.01 0-59.25 21.71-114.65 0z"/><path class="cls-5" d="M957.51 1349.82s-7.55-10.67-52.59-10.67-46.81 10.67-46.81 10.67 10.43-9.18 46.51-9.18 52.89 9.18 52.89 9.18z"/><path class="cls-51" d="M845.53 1198.14s50.07 16 123.24 0c0 0-63.7 21.48-123.24 0z"/><path class="cls-1" d="M833.94 1458.72c0 .71.12 1.41.21 2.11 1.69 13.65 3.74 28.44 5.56 42.09l6 44.92 8.79 65.91a9.31 9.31 0 0 1 .22 1.68s-1.18 17.78 54.51 17.78 50.65-17.21 50.65-17.21l20.74-156.13s2.67-8.3-5.93-10.37a295.87 295.87 0 0 0-68.65-7.81c-11.66 0-23.33.52-34.94 1.58-10.38.94-21.8.83-31.37 5.46h-.09c-.36.18-.73.37-1.08.58a8.81 8.81 0 0 0-4.15 5 9.77 9.77 0 0 0-.47 4.41z"/><path class="cls-2" d="M842.7 1464.2a26.43 26.43 0 0 0 .3 3.8c1.32 9.61 4.31 19.16 6.56 28.59l9.76 41 5 21.17s3.26 18.66 32.44 18.66h24s24 .74 29.63-20.89 22.22-92.14 22.22-92.14 4-8-8.15-10.67c-12.68-2.78-26-3.51-39-4.11a403.94 403.94 0 0 0-57.87 1.7c-6.26.63-13.65.26-19.4 3.1-4.19 2.07-5.44 2.51-5.49 9.79z"/><path class="cls-52" d="M950.4 1557.05c3.42-13.12 10.86-44.24 16.2-66.68-.65-.21-1.35-.4-2.12-.57-12.68-2.78-26-3.51-39-4.11a404 404 0 0 0-57.87 1.7c-6.26.63-13.65.26-19.4 3.1l-.35.17c.56 2.16 1.11 4.32 1.63 6.47l9.76 41 5 21.17s3.26 18.66 32.44 18.66h24s24.08.72 29.71-20.91z"/><path class="cls-53" d="M850 1494.86s46.58 16.17 114.65 0c.01 0-59.25 21.72-114.65 0z"/><path class="cls-5" d="M957.51 1614.11s-7.55-10.67-52.59-10.67-46.81 10.67-46.81 10.67 10.43-9.18 46.51-9.18 52.89 9.18 52.89 9.18z"/><path class="cls-54" d="M845.53 1462.42s50.07 16 123.24 0c0 0-63.7 21.48-123.24 0z"/><path class="cls-1" d="M833.94 1723c0 .71.12 1.41.21 2.11 1.69 13.65 3.74 28.44 5.56 42.09l6 44.92 8.79 65.91a9.31 9.31 0 0 1 .22 1.68s-1.18 17.78 54.51 17.78 50.66-17.18 50.66-17.18l20.74-156.13s2.67-8.3-5.93-10.37A295.87 295.87 0 0 0 906 1706c-11.66 0-23.33.52-34.94 1.58-10.38.94-21.8.83-31.37 5.46h-.09c-.36.18-.73.37-1.08.58a8.81 8.81 0 0 0-4.15 5 9.77 9.77 0 0 0-.43 4.38z"/><path class="cls-2" d="M842.7 1728.49a26.43 26.43 0 0 0 .27 3.79c1.32 9.61 4.31 19.16 6.56 28.59l9.76 41 5 21.17s3.26 18.66 32.44 18.66h24s24 .74 29.63-20.89 22.22-92.14 22.22-92.14 4-8-8.15-10.67c-12.68-2.78-26-3.51-39-4.11a403.94 403.94 0 0 0-57.87 1.7c-6.26.63-13.65.26-19.4 3.1-4.16 2.07-5.41 2.52-5.46 9.8z"/><path class="cls-55" d="M950.4 1821.34c3.42-13.12 10.86-44.24 16.2-66.68-.65-.21-1.35-.4-2.12-.57-12.68-2.78-26-3.51-39-4.11a404 404 0 0 0-57.87 1.7c-6.26.63-13.65.26-19.4 3.1l-.35.17c.56 2.16 1.11 4.32 1.63 6.47l9.76 41 5 21.17s3.26 18.66 32.44 18.66h24s24.08.75 29.71-20.91z"/><path class="cls-56" d="M850 1759.15s46.58 16.17 114.65 0c.01 0-59.25 21.71-114.65 0z"/><path class="cls-5" d="M957.51 1878.39s-7.55-10.67-52.59-10.67-46.81 10.67-46.81 10.67 10.43-9.18 46.51-9.18 52.89 9.18 52.89 9.18z"/><path class="cls-57" d="M845.53 1726.71s50.07 16 123.24 0c0 0-63.7 21.48-123.24 0z"/><path class="cls-1" d="M1053.94 401.58c0 .71.12 1.41.21 2.11 1.69 13.65 3.74 28.44 5.56 42.09l6 44.92 8.79 65.91a9.31 9.31 0 0 1 .22 1.68s-1.18 17.78 54.51 17.78 50.66-17.18 50.66-17.18l20.74-156.13s2.67-8.3-5.93-10.37a295.87 295.87 0 0 0-68.65-7.81c-11.66 0-23.33.52-34.94 1.58-10.38.94-21.8.83-31.37 5.46h-.09c-.36.18-.73.37-1.08.58a8.81 8.81 0 0 0-4.15 5 9.77 9.77 0 0 0-.48 4.38z"/><path class="cls-2" d="M1062.69 407.06a26.43 26.43 0 0 0 .27 3.79c1.32 9.61 4.31 19.16 6.56 28.59l9.76 41 5 21.17s3.26 18.66 32.44 18.66h24s24 .74 29.63-20.89 22.22-92.14 22.22-92.14 4-8-8.15-10.67c-12.68-2.78-26-3.51-39-4.11a403.94 403.94 0 0 0-57.87 1.7c-6.26.63-13.65.26-19.4 3.1-4.15 2.07-5.4 2.52-5.46 9.8z"/><path class="cls-58" d="M1170.4 499.91c3.42-13.12 10.86-44.24 16.2-66.68-.65-.21-1.35-.4-2.12-.57-12.68-2.78-26-3.51-39-4.11a404 404 0 0 0-57.87 1.7c-6.26.63-13.65.26-19.4 3.1l-.35.17c.56 2.16 1.11 4.32 1.63 6.47l9.76 41 5 21.17s3.26 18.66 32.44 18.66h24s24.08.72 29.71-20.91z"/><path class="cls-59" d="M1070 437.72s46.58 16.17 114.65 0c.01 0-59.25 21.71-114.65 0z"/><path class="cls-5" d="M1177.51 557s-7.55-10.67-52.59-10.67-46.8 10.67-46.8 10.67 10.43-9.18 46.51-9.18 52.88 9.18 52.88 9.18z"/><path class="cls-60" d="M1065.53 405.28s50.07 16 123.24 0c0 0-63.7 21.48-123.24 0z"/><path class="cls-1" d="M1053.94 665.87c0 .71.12 1.41.21 2.11 1.69 13.65 3.74 28.44 5.56 42.09l6 44.92 8.79 65.91a9.31 9.31 0 0 1 .22 1.68s-1.18 17.78 54.51 17.78 50.66-17.18 50.66-17.18L1200.62 667s2.67-8.3-5.93-10.37a295.87 295.87 0 0 0-68.65-7.81c-11.66 0-23.33.52-34.94 1.58-10.38.94-21.8.83-31.37 5.46h-.09c-.36.18-.73.37-1.08.58a8.81 8.81 0 0 0-4.15 5 9.77 9.77 0 0 0-.47 4.43z"/><path class="cls-2" d="M1062.7 671.34a26.43 26.43 0 0 0 .27 3.79c1.32 9.61 4.31 19.16 6.56 28.59l9.76 41 5 21.17s3.26 18.66 32.44 18.66h24s24 .74 29.63-20.89 22.22-92.14 22.22-92.14 4-8-8.15-10.67c-12.68-2.78-26-3.51-39-4.11a403.94 403.94 0 0 0-57.87 1.7c-6.26.63-13.65.26-19.4 3.1-4.16 2.08-5.41 2.52-5.46 9.8z"/><path class="cls-61" d="M1170.4 764.2c3.42-13.12 10.86-44.24 16.2-66.68-.65-.21-1.35-.4-2.12-.57-12.68-2.78-26-3.51-39-4.11a404 404 0 0 0-57.87 1.7c-6.26.63-13.65.26-19.4 3.1l-.35.17c.56 2.16 1.11 4.32 1.63 6.47l9.76 41 5 21.17s3.26 18.66 32.44 18.66h24s24.08.71 29.71-20.91z"/><path class="cls-62" d="M1070 702s46.58 16.17 114.65 0c.01 0-59.25 21.72-114.65 0z"/><path class="cls-5" d="M1177.51 821.25s-7.55-10.67-52.59-10.67-46.81 10.67-46.81 10.67 10.43-9.18 46.51-9.18 52.89 9.18 52.89 9.18z"/><path class="cls-63" d="M1065.53 669.57s50.07 16 123.24 0c0 0-63.7 21.43-123.24 0z"/><path class="cls-1" d="M1053.94 930.15c0 .71.12 1.41.21 2.11 1.69 13.65 3.74 28.44 5.56 42.09l6 44.92 8.79 65.91a9.31 9.31 0 0 1 .22 1.68s-1.18 17.78 54.51 17.78 50.66-17.18 50.66-17.18l20.74-156.13s2.67-8.3-5.93-10.37a295.87 295.87 0 0 0-68.65-7.81c-11.66 0-23.33.52-34.94 1.58-10.38.94-21.8.83-31.37 5.46h-.09c-.36.18-.73.37-1.08.58a8.81 8.81 0 0 0-4.15 5 9.77 9.77 0 0 0-.48 4.38z"/><path class="cls-2" d="M1062.7 935.63a26.43 26.43 0 0 0 .27 3.79c1.32 9.61 4.31 19.16 6.56 28.59l9.76 41 5 21.17s3.26 18.66 32.44 18.66h24s24 .74 29.63-20.89 22.22-92.14 22.22-92.14 4-8-8.15-10.67c-12.68-2.78-26-3.51-39-4.11a403.94 403.94 0 0 0-57.87 1.7c-6.26.63-13.65.26-19.4 3.1-4.16 2.08-5.41 2.52-5.46 9.8z"/><path class="cls-64" d="M1170.4 1028.48c3.42-13.12 10.86-44.24 16.2-66.68-.65-.21-1.35-.4-2.12-.57-12.68-2.78-26-3.51-39-4.11a404 404 0 0 0-57.87 1.7c-6.26.63-13.65.26-19.4 3.1l-.35.17c.56 2.16 1.11 4.32 1.63 6.47l9.76 41 5 21.17s3.26 18.66 32.44 18.66h24s24.08.72 29.71-20.91z"/><path class="cls-65" d="M1070 966.29s46.58 16.17 114.65 0c.01 0-59.25 21.71-114.65 0z"/><path class="cls-5" d="M1177.51 1085.53s-7.55-10.67-52.59-10.67-46.81 10.67-46.81 10.67 10.43-9.18 46.51-9.18 52.89 9.18 52.89 9.18z"/><path class="cls-66" d="M1065.53 933.85s50.07 16 123.24 0c0 0-63.7 21.48-123.24 0z"/><path class="cls-1" d="M1053.94 1194.44c0 .71.12 1.41.21 2.11 1.69 13.65 3.74 28.44 5.56 42.09l6 44.92 8.79 65.91a9.31 9.31 0 0 1 .22 1.68s-1.18 17.78 54.51 17.78 50.66-17.18 50.66-17.18l20.74-156.13s2.67-8.3-5.93-10.37a295.87 295.87 0 0 0-68.65-7.81c-11.66 0-23.33.52-34.94 1.58-10.38.94-21.8.83-31.37 5.46h-.09c-.36.18-.73.37-1.08.58a8.81 8.81 0 0 0-4.15 5 9.77 9.77 0 0 0-.48 4.38z"/><path class="cls-2" d="M1062.7 1199.91a26.43 26.43 0 0 0 .27 3.79c1.32 9.61 4.31 19.16 6.56 28.59l9.76 41 5 21.17s3.26 18.66 32.44 18.66h24s24 .74 29.63-20.89 22.22-92.14 22.22-92.14 4-8-8.15-10.67c-12.68-2.78-26-3.51-39-4.11a403.94 403.94 0 0 0-57.87 1.7c-6.26.63-13.65.26-19.4 3.1-4.16 2.08-5.41 2.52-5.46 9.8z"/><path class="cls-67" d="M1170.4 1292.77c3.42-13.12 10.86-44.24 16.2-66.68-.65-.21-1.35-.4-2.12-.57-12.68-2.78-26-3.51-39-4.11a404 404 0 0 0-57.87 1.7c-6.26.63-13.65.26-19.4 3.1l-.35.17c.56 2.16 1.11 4.32 1.63 6.47l9.76 41 5 21.17s3.26 18.66 32.44 18.66h24s24.08.71 29.71-20.91z"/><path class="cls-68" d="M1070 1230.58s46.58 16.17 114.65 0c.01 0-59.25 21.71-114.65 0z"/><path class="cls-5" d="M1177.51 1349.82s-7.55-10.67-52.59-10.67-46.81 10.67-46.81 10.67 10.43-9.18 46.51-9.18 52.89 9.18 52.89 9.18z"/><path class="cls-69" d="M1065.53 1198.14s50.07 16 123.24 0c0 0-63.7 21.48-123.24 0z"/><path class="cls-1" d="M1053.94 1458.72c0 .71.12 1.41.21 2.11 1.69 13.65 3.74 28.44 5.56 42.09l6 44.92 8.79 65.91a9.31 9.31 0 0 1 .22 1.68s-1.18 17.78 54.51 17.78 50.66-17.18 50.66-17.18l20.74-156.13s2.67-8.3-5.93-10.37a295.87 295.87 0 0 0-68.65-7.81c-11.66 0-23.33.52-34.94 1.58-10.38.94-21.8.83-31.37 5.46h-.09c-.36.18-.73.37-1.08.58a8.81 8.81 0 0 0-4.15 5 9.77 9.77 0 0 0-.48 4.38z"/><path class="cls-2" d="M1062.7 1464.2a26.43 26.43 0 0 0 .27 3.79c1.32 9.61 4.31 19.16 6.56 28.59l9.76 41 5 21.17s3.26 18.66 32.44 18.66h24s24 .74 29.63-20.89 22.22-92.14 22.22-92.14 4-8-8.15-10.67c-12.68-2.78-26-3.51-39-4.11a403.94 403.94 0 0 0-57.87 1.7c-6.26.63-13.65.26-19.4 3.1-4.16 2.08-5.41 2.52-5.46 9.8z"/><path class="cls-70" d="M1170.4 1557.05c3.42-13.12 10.86-44.24 16.2-66.68-.65-.21-1.35-.4-2.12-.57-12.68-2.78-26-3.51-39-4.11a404 404 0 0 0-57.87 1.7c-6.26.63-13.65.26-19.4 3.1l-.35.17c.56 2.16 1.11 4.32 1.63 6.47l9.76 41 5 21.17s3.26 18.66 32.44 18.66h24s24.08.72 29.71-20.91z"/><path class="cls-71" d="M1070 1494.86s46.58 16.17 114.65 0c.01 0-59.25 21.72-114.65 0z"/><path class="cls-5" d="M1177.51 1614.11s-7.55-10.67-52.59-10.67-46.81 10.67-46.81 10.67 10.43-9.18 46.51-9.18 52.89 9.18 52.89 9.18z"/><path class="cls-72" d="M1065.53 1462.42s50.07 16 123.24 0c0 0-63.7 21.48-123.24 0z"/><path class="cls-1" d="M1053.94 1723c0 .71.12 1.41.21 2.11 1.69 13.65 3.74 28.44 5.56 42.09l6 44.92 8.79 65.91a9.31 9.31 0 0 1 .22 1.68s-1.18 17.78 54.51 17.78 50.66-17.18 50.66-17.18l20.74-156.13s2.67-8.3-5.93-10.37a295.87 295.87 0 0 0-68.7-7.81c-11.66 0-23.33.52-34.94 1.58-10.38.94-21.8.83-31.37 5.46h-.09c-.36.18-.73.37-1.08.58a8.81 8.81 0 0 0-4.15 5 9.77 9.77 0 0 0-.43 4.38z"/><path class="cls-2" d="M1062.7 1728.49a26.43 26.43 0 0 0 .27 3.79c1.32 9.61 4.31 19.16 6.56 28.59l9.76 41 5 21.17s3.26 18.66 32.44 18.66h24s24 .74 29.63-20.89 22.22-92.14 22.22-92.14 4-8-8.15-10.67c-12.68-2.78-26-3.51-39-4.11a403.94 403.94 0 0 0-57.87 1.7c-6.26.63-13.65.26-19.4 3.1-4.16 2.07-5.41 2.52-5.46 9.8z"/><path class="cls-73" d="M1170.4 1821.34c3.42-13.12 10.86-44.24 16.2-66.68-.65-.21-1.35-.4-2.12-.57-12.68-2.78-26-3.51-39-4.11a404 404 0 0 0-57.87 1.7c-6.26.63-13.65.26-19.4 3.1l-.35.17c.56 2.16 1.11 4.32 1.63 6.47l9.76 41 5 21.17s3.26 18.66 32.44 18.66h24s24.08.75 29.71-20.91z"/><path class="cls-74" d="M1070 1759.15s46.58 16.17 114.65 0c.01 0-59.25 21.71-114.65 0z"/><path class="cls-5" d="M1177.51 1878.39s-7.55-10.67-52.59-10.67-46.81 10.67-46.81 10.67 10.43-9.18 46.51-9.18 52.89 9.18 52.89 9.18z"/><path class="cls-75" d="M1065.53 1726.71s50.07 16 123.24 0c0 0-63.7 21.48-123.24 0z"/><path class="cls-1" d="M1273.94 1194.44c0 .71.12 1.41.21 2.11 1.69 13.65 3.74 28.44 5.56 42.09l6 44.92 8.79 65.91a9.31 9.31 0 0 1 .22 1.68s-1.18 17.78 54.51 17.78 50.66-17.18 50.66-17.18l20.74-156.13s2.67-8.3-5.93-10.37a295.87 295.87 0 0 0-68.65-7.81c-11.66 0-23.33.52-34.94 1.58-10.38.94-21.8.83-31.37 5.46h-.09c-.36.18-.73.37-1.08.58a8.81 8.81 0 0 0-4.15 5 9.77 9.77 0 0 0-.48 4.38z"/><path class="cls-2" d="M1282.7 1199.91a26.43 26.43 0 0 0 .27 3.79c1.32 9.61 4.31 19.16 6.56 28.59l9.76 41 5 21.17s3.26 18.66 32.44 18.66h24s24 .74 29.63-20.89 22.22-92.14 22.22-92.14 4-8-8.15-10.67c-12.68-2.78-26-3.51-39-4.11a403.94 403.94 0 0 0-57.87 1.7c-6.26.63-13.65.26-19.4 3.1-4.16 2.08-5.41 2.52-5.46 9.8z"/><path class="cls-76" d="M1390.4 1292.77c3.42-13.12 10.86-44.24 16.2-66.68-.65-.21-1.35-.4-2.12-.57-12.68-2.78-26-3.51-39-4.11a404 404 0 0 0-57.87 1.7c-6.26.63-13.65.26-19.4 3.1l-.35.17c.56 2.16 1.11 4.32 1.63 6.47l9.76 41 5 21.17s3.26 18.66 32.44 18.66h24s24.08.71 29.71-20.91z"/><path class="cls-77" d="M1290 1230.58s46.58 16.17 114.65 0c.01 0-59.25 21.71-114.65 0z"/><path class="cls-5" d="M1397.51 1349.82s-7.55-10.67-52.59-10.67-46.81 10.67-46.81 10.67 10.43-9.18 46.51-9.18 52.89 9.18 52.89 9.18z"/><path class="cls-78" d="M1285.53 1198.14s50.07 16 123.24 0c0 0-63.7 21.48-123.24 0z"/><path class="cls-1" d="M1273.94 1458.72c0 .71.12 1.41.21 2.11 1.69 13.65 3.74 28.44 5.56 42.09l6 44.92 8.79 65.91a9.31 9.31 0 0 1 .22 1.68s-1.18 17.78 54.51 17.78 50.66-17.18 50.66-17.18l20.74-156.13s2.67-8.3-5.93-10.37a295.87 295.87 0 0 0-68.65-7.81c-11.66 0-23.33.52-34.94 1.58-10.38.94-21.8.83-31.37 5.46h-.09c-.36.18-.73.37-1.08.58a8.81 8.81 0 0 0-4.15 5 9.77 9.77 0 0 0-.48 4.38z"/><path class="cls-2" d="M1282.7 1464.2a26.43 26.43 0 0 0 .27 3.79c1.32 9.61 4.31 19.16 6.56 28.59l9.76 41 5 21.17s3.26 18.66 32.44 18.66h24s24 .74 29.63-20.89 22.22-92.14 22.22-92.14 4-8-8.15-10.67c-12.68-2.78-26-3.51-39-4.11a403.94 403.94 0 0 0-57.87 1.7c-6.26.63-13.65.26-19.4 3.1-4.16 2.08-5.41 2.52-5.46 9.8z"/><path class="cls-79" d="M1390.4 1557.05c3.42-13.12 10.86-44.24 16.2-66.68-.65-.21-1.35-.4-2.12-.57-12.68-2.78-26-3.51-39-4.11a404 404 0 0 0-57.87 1.7c-6.26.63-13.65.26-19.4 3.1l-.35.17c.56 2.16 1.11 4.32 1.63 6.47l9.76 41 5 21.17s3.26 18.66 32.44 18.66h24s24.08.72 29.71-20.91z"/><path class="cls-80" d="M1290 1494.86s46.58 16.17 114.65 0c.01 0-59.25 21.72-114.65 0z"/><path class="cls-5" d="M1397.51 1614.11s-7.55-10.67-52.59-10.67-46.81 10.67-46.81 10.67 10.43-9.18 46.51-9.18 52.89 9.18 52.89 9.18z"/><path class="cls-81" d="M1285.53 1462.42s50.07 16 123.24 0c0 0-63.7 21.48-123.24 0z"/><path class="cls-1" d="M1273.94 1723c0 .71.12 1.41.21 2.11 1.69 13.65 3.74 28.44 5.56 42.09l6 44.92 8.79 65.91a9.31 9.31 0 0 1 .22 1.68s-1.18 17.78 54.51 17.78 50.66-17.18 50.66-17.18l20.74-156.13s2.67-8.3-5.93-10.37a295.87 295.87 0 0 0-68.7-7.81c-11.66 0-23.33.52-34.94 1.58-10.38.94-21.8.83-31.37 5.46h-.09c-.36.18-.73.37-1.08.58a8.81 8.81 0 0 0-4.15 5 9.77 9.77 0 0 0-.43 4.38z"/><path class="cls-2" d="M1282.7 1728.49a26.43 26.43 0 0 0 .27 3.79c1.32 9.61 4.31 19.16 6.56 28.59l9.76 41 5 21.17s3.26 18.66 32.44 18.66h24s24 .74 29.63-20.89 22.22-92.14 22.22-92.14 4-8-8.15-10.67c-12.68-2.78-26-3.51-39-4.11a403.94 403.94 0 0 0-57.87 1.7c-6.26.63-13.65.26-19.4 3.1-4.16 2.07-5.41 2.52-5.46 9.8z"/><path class="cls-82" d="M1390.4 1821.34c3.42-13.12 10.86-44.24 16.2-66.68-.65-.21-1.35-.4-2.12-.57-12.68-2.78-26-3.51-39-4.11a404 404 0 0 0-57.87 1.7c-6.26.63-13.65.26-19.4 3.1l-.35.17c.56 2.16 1.11 4.32 1.63 6.47l9.76 41 5 21.17s3.26 18.66 32.44 18.66h24s24.08.75 29.71-20.91z"/><path class="cls-83" d="M1290 1759.15s46.58 16.17 114.65 0c.01 0-59.25 21.71-114.65 0z"/><path class="cls-5" d="M1397.51 1878.39s-7.55-10.67-52.59-10.67-46.81 10.67-46.81 10.67 10.43-9.18 46.51-9.18 52.89 9.18 52.89 9.18z"/><path class="cls-84" d="M1285.53 1726.71s50.07 16 123.24 0c0 0-63.7 21.48-123.24 0z"/></svg>