<svg id="body" xmlns="http://www.w3.org/2000/svg" xmlns:xlink="http://www.w3.org/1999/xlink" viewBox="0 0 1814.89 2282.08"><defs><style>.cls-1{fill:#de7864}.cls-2{fill:#cc3b3b}.cls-3{fill:#ec916c;opacity:.5}.cls-4{fill:#d24343}.cls-5{fill:#e37a54}.cls-6{fill:#d84848}.cls-7{fill:#e08963}.cls-8{fill:#eba06c}.cls-9{fill:#de5050}.cls-10{fill:url(#linear-gradient)}.cls-11{fill:#ea625d}.cls-12{opacity:.8}.cls-13{fill:url(#linear-gradient-2)}.cls-14{fill:url(#linear-gradient-3)}</style><linearGradient id="linear-gradient" x1="478" y1="525.4" x2="1119.52" y2="1636.54" gradientUnits="userSpaceOnUse"><stop offset="0" stop-color="#eda26b"/><stop offset=".77" stop-color="#efdb8a"/></linearGradient><linearGradient id="linear-gradient-2" x1="458.69" y1="654.88" x2="642.99" y2="654.88" gradientUnits="userSpaceOnUse"><stop offset="0" stop-color="#94ccd4"/><stop offset="1" stop-color="#c1e4ea"/></linearGradient><linearGradient id="linear-gradient-3" x1="915.35" y1="651.09" x2="1099.64" y2="651.09" xlink:href="#linear-gradient-2"/></defs><title>extra_panels_illo</title><rect class="cls-1" x="456.49" y="838.26" width="1119.28" height="901.26" rx="77.86" ry="77.86"/><path class="cls-2" d="M1575.78 1023.42v-107.3a78.09 78.09 0 0 0-77.86-77.86H534.36a78.09 78.09 0 0 0-77.86 77.86v107.3z"/><circle class="cls-3" cx="600.94" cy="1162.22" r="46.13"/><circle class="cls-3" cx="735.32" cy="1162.22" r="46.13"/><circle class="cls-3" cx="869.69" cy="1162.22" r="46.13"/><circle class="cls-3" cx="1004.06" cy="1162.22" r="46.13"/><circle class="cls-3" cx="1138.43" cy="1162.22" r="46.13"/><circle class="cls-3" cx="1272.81" cy="1162.22" r="46.13"/><circle class="cls-3" cx="1407.18" cy="1162.22" r="46.13"/><circle class="cls-3" cx="600.94" cy="1299.56" r="46.13"/><circle class="cls-3" cx="735.32" cy="1299.56" r="46.13"/><circle class="cls-3" cx="869.69" cy="1299.56" r="46.13"/><circle class="cls-3" cx="1004.06" cy="1299.56" r="46.13"/><circle class="cls-3" cx="1138.43" cy="1299.56" r="46.13"/><circle class="cls-3" cx="1272.81" cy="1299.56" r="46.13"/><circle class="cls-3" cx="1407.18" cy="1299.56" r="46.13"/><circle class="cls-3" cx="600.94" cy="1436.91" r="46.13"/><circle class="cls-3" cx="735.32" cy="1436.91" r="46.13"/><circle class="cls-3" cx="869.69" cy="1436.91" r="46.13"/><circle class="cls-3" cx="1004.06" cy="1436.91" r="46.13"/><circle class="cls-3" cx="1138.43" cy="1436.91" r="46.13"/><circle class="cls-3" cx="1272.81" cy="1436.91" r="46.13"/><circle class="cls-3" cx="1407.18" cy="1436.91" r="46.13"/><circle class="cls-3" cx="600.94" cy="1574.25" r="46.13"/><circle class="cls-3" cx="735.32" cy="1574.25" r="46.13"/><circle class="cls-3" cx="869.69" cy="1574.25" r="46.13"/><circle class="cls-3" cx="1004.06" cy="1574.25" r="46.13"/><circle class="cls-3" cx="1138.43" cy="1574.25" r="46.13"/><circle class="cls-3" cx="1272.81" cy="1574.25" r="46.13"/><circle class="cls-3" cx="1407.18" cy="1574.25" r="46.13"/><path class="cls-4" d="M580.58 1177.75h839.16c16.71 0 16.73-26 0-26H580.58c-16.71 0-16.73 26 0 26zM580.58 1311.65h839.16c16.71 0 16.73-26 0-26H580.58c-16.71 0-16.73 26 0 26zM580.58 1452.43h839.16c16.71 0 16.73-26 0-26H580.58c-16.71 0-16.73 26 0 26zM1575.78 1560.21a14.41 14.41 0 0 0-5.18-1h-990c-18.15 0-18.18 28.2 0 28.2h990a14.37 14.37 0 0 0 5.18-1z"/><rect class="cls-5" x="387.63" y="762.53" width="1119.28" height="901.26" rx="77.86" ry="77.86"/><path class="cls-6" d="M1506.91 947.69v-107.3a78.09 78.09 0 0 0-77.91-77.86H465.49a78.09 78.09 0 0 0-77.86 77.86v107.3z"/><circle class="cls-3" cx="532.08" cy="1086.49" r="46.13"/><circle class="cls-3" cx="666.45" cy="1086.49" r="46.13"/><circle class="cls-3" cx="800.82" cy="1086.49" r="46.13"/><circle class="cls-3" cx="935.2" cy="1086.49" r="46.13"/><circle class="cls-3" cx="1069.57" cy="1086.49" r="46.13"/><circle class="cls-3" cx="1203.94" cy="1086.49" r="46.13"/><circle class="cls-3" cx="1338.32" cy="1086.49" r="46.13"/><circle class="cls-3" cx="532.08" cy="1223.83" r="46.13"/><circle class="cls-3" cx="666.45" cy="1223.83" r="46.13"/><circle class="cls-3" cx="800.82" cy="1223.83" r="46.13"/><circle class="cls-3" cx="935.2" cy="1223.83" r="46.13"/><circle class="cls-3" cx="1069.57" cy="1223.83" r="46.13"/><circle class="cls-3" cx="1203.94" cy="1223.83" r="46.13"/><circle class="cls-3" cx="1338.32" cy="1223.83" r="46.13"/><circle class="cls-3" cx="532.08" cy="1361.17" r="46.13"/><circle class="cls-3" cx="666.45" cy="1361.17" r="46.13"/><circle class="cls-3" cx="800.82" cy="1361.17" r="46.13"/><circle class="cls-3" cx="935.2" cy="1361.17" r="46.13"/><circle class="cls-3" cx="1069.57" cy="1361.17" r="46.13"/><circle class="cls-3" cx="1203.94" cy="1361.17" r="46.13"/><circle class="cls-3" cx="1338.32" cy="1361.17" r="46.13"/><circle class="cls-3" cx="532.08" cy="1498.52" r="46.13"/><circle class="cls-3" cx="666.45" cy="1498.52" r="46.13"/><circle class="cls-3" cx="800.82" cy="1498.52" r="46.13"/><circle class="cls-3" cx="935.2" cy="1498.52" r="46.13"/><circle class="cls-3" cx="1069.57" cy="1498.52" r="46.13"/><circle class="cls-3" cx="1203.94" cy="1498.52" r="46.13"/><circle class="cls-3" cx="1338.32" cy="1498.52" r="46.13"/><path class="cls-4" d="M511.72 1102h839.16c16.71 0 16.73-26 0-26H511.72c-16.71 0-16.73 26 0 26zM511.72 1235.92h839.16c16.71 0 16.73-26 0-26H511.72c-16.71 0-16.73 26 0 26zM511.72 1376.7h839.16c16.71 0 16.73-26 0-26H511.72c-16.71 0-16.73 26 0 26zM1506.91 1484.48a14.41 14.41 0 0 0-5.18-1h-990c-18.15 0-18.18 28.2 0 28.2h990a14.37 14.37 0 0 0 5.18-1z"/><rect class="cls-7" x="387.63" y="762.53" width="1119.28" height="901.26" rx="77.86" ry="77.86"/><path class="cls-6" d="M1506.91 947.69v-107.3a78.09 78.09 0 0 0-77.91-77.86H465.49a78.09 78.09 0 0 0-77.86 77.86v107.3z"/><circle class="cls-3" cx="532.08" cy="1086.49" r="46.13"/><circle class="cls-3" cx="666.45" cy="1086.49" r="46.13"/><circle class="cls-3" cx="800.82" cy="1086.49" r="46.13"/><circle class="cls-3" cx="935.2" cy="1086.49" r="46.13"/><circle class="cls-3" cx="1069.57" cy="1086.49" r="46.13"/><circle class="cls-3" cx="1203.94" cy="1086.49" r="46.13"/><circle class="cls-3" cx="1338.32" cy="1086.49" r="46.13"/><circle class="cls-3" cx="532.08" cy="1223.83" r="46.13"/><circle class="cls-3" cx="666.45" cy="1223.83" r="46.13"/><circle class="cls-3" cx="800.82" cy="1223.83" r="46.13"/><circle class="cls-3" cx="935.2" cy="1223.83" r="46.13"/><circle class="cls-3" cx="1069.57" cy="1223.83" r="46.13"/><circle class="cls-3" cx="1203.94" cy="1223.83" r="46.13"/><circle class="cls-3" cx="1338.32" cy="1223.83" r="46.13"/><circle class="cls-3" cx="532.08" cy="1361.17" r="46.13"/><circle class="cls-3" cx="666.45" cy="1361.17" r="46.13"/><circle class="cls-3" cx="800.82" cy="1361.17" r="46.13"/><circle class="cls-3" cx="935.2" cy="1361.17" r="46.13"/><circle class="cls-3" cx="1069.57" cy="1361.17" r="46.13"/><circle class="cls-3" cx="1203.94" cy="1361.17" r="46.13"/><circle class="cls-3" cx="1338.32" cy="1361.17" r="46.13"/><circle class="cls-3" cx="532.08" cy="1498.52" r="46.13"/><circle class="cls-3" cx="666.45" cy="1498.52" r="46.13"/><circle class="cls-3" cx="800.82" cy="1498.52" r="46.13"/><circle class="cls-3" cx="935.2" cy="1498.52" r="46.13"/><circle class="cls-3" cx="1069.57" cy="1498.52" r="46.13"/><circle class="cls-3" cx="1203.94" cy="1498.52" r="46.13"/><circle class="cls-3" cx="1338.32" cy="1498.52" r="46.13"/><path class="cls-4" d="M511.72 1102h839.16c16.71 0 16.73-26 0-26H511.72c-16.71 0-16.73 26 0 26zM511.72 1235.92h839.16c16.71 0 16.73-26 0-26H511.72c-16.71 0-16.73 26 0 26zM511.72 1376.7h839.16c16.71 0 16.73-26 0-26H511.72c-16.71 0-16.73 26 0 26zM1506.91 1484.48a14.41 14.41 0 0 0-5.18-1h-990c-18.15 0-18.18 28.2 0 28.2h990a14.37 14.37 0 0 0 5.18-1z"/><rect class="cls-8" x="312.09" y="697.29" width="1119.28" height="901.26" rx="77.86" ry="77.86"/><path class="cls-9" d="M1431.37 882.45v-107.3a78.09 78.09 0 0 0-77.86-77.86H390a78.09 78.09 0 0 0-77.86 77.86v107.3z"/><circle class="cls-3" cx="456.54" cy="1021.26" r="46.13"/><circle class="cls-3" cx="590.91" cy="1021.26" r="46.13"/><circle class="cls-3" cx="725.29" cy="1021.26" r="46.13"/><circle class="cls-3" cx="859.66" cy="1021.26" r="46.13"/><circle class="cls-3" cx="994.03" cy="1021.26" r="46.13"/><circle class="cls-3" cx="1128.41" cy="1021.26" r="46.13"/><circle class="cls-3" cx="1262.78" cy="1021.26" r="46.13"/><circle class="cls-3" cx="456.54" cy="1158.6" r="46.13"/><circle class="cls-3" cx="590.91" cy="1158.6" r="46.13"/><circle class="cls-3" cx="725.29" cy="1158.6" r="46.13"/><circle class="cls-3" cx="859.66" cy="1158.6" r="46.13"/><circle class="cls-3" cx="994.03" cy="1158.6" r="46.13"/><circle class="cls-3" cx="1128.41" cy="1158.6" r="46.13"/><circle class="cls-3" cx="1262.78" cy="1158.6" r="46.13"/><circle class="cls-3" cx="456.54" cy="1295.94" r="46.13"/><circle class="cls-3" cx="590.91" cy="1295.94" r="46.13"/><circle class="cls-3" cx="725.29" cy="1295.94" r="46.13"/><circle class="cls-3" cx="859.66" cy="1295.94" r="46.13"/><circle class="cls-3" cx="994.03" cy="1295.94" r="46.13"/><circle class="cls-3" cx="1128.41" cy="1295.94" r="46.13"/><circle class="cls-3" cx="1262.78" cy="1295.94" r="46.13"/><circle class="cls-3" cx="456.54" cy="1433.28" r="46.13"/><circle class="cls-3" cx="590.91" cy="1433.28" r="46.13"/><circle class="cls-3" cx="725.29" cy="1433.28" r="46.13"/><circle class="cls-3" cx="859.66" cy="1433.28" r="46.13"/><circle class="cls-3" cx="994.03" cy="1433.28" r="46.13"/><circle class="cls-3" cx="1128.41" cy="1433.28" r="46.13"/><circle class="cls-3" cx="1262.78" cy="1433.28" r="46.13"/><path class="cls-4" d="M436.18 1036.78h839.16c16.71 0 16.73-26 0-26H436.18c-16.71 0-16.73 26 0 26zM436.18 1170.69h839.16c16.71 0 16.73-26 0-26H436.18c-16.71 0-16.73 26 0 26zM436.18 1311.46h839.16c16.71 0 16.73-26 0-26H436.18c-16.71 0-16.73 26 0 26zM1431.37 1419.24a14.41 14.41 0 0 0-5.18-1h-990c-18.15 0-18.18 28.2 0 28.2h990a14.37 14.37 0 0 0 5.18-1z"/><rect class="cls-10" x="239.12" y="630.34" width="1119.28" height="901.26" rx="77.86" ry="77.86"/><path class="cls-11" d="M1358.4 815.5V708.2a78.09 78.09 0 0 0-77.86-77.86H317a78.09 78.09 0 0 0-77.86 77.86v107.3z"/><path class="cls-12 cls-13" d="M652.88 624c-8.91-37.44-36.8-71.57-75.79-79.55-35.23-7.22-72.25 8.17-96.7 33.51-27.59 28.59-39.72 72.37-27.35 110.71 12.79 39.66 49.43 67.93 88.71 78 16.06 4.13 22.91-20.7 6.85-24.83-29.72-7.64-57.43-27.1-69.26-56.34-12.19-30.13-2.89-66.39 19.26-89.35 17.6-18.24 43.78-30.89 69.58-27.29 31.58 4.4 52.92 32.75 59.87 62 3.84 16.11 28.67 9.29 24.83-6.85z"/><path class="cls-12 cls-14" d="M1109.54 624c-8.44-35.44-33.63-67.73-69.61-78.1-32.5-9.37-67.59 2.14-93 23.05a114.24 114.24 0 0 0-41.21 99.68c4.1 39.88 33.2 73 68.61 89.67 14.91 7 28-15.18 13-22.24-27.8-13.09-52.3-37.42-55.92-69.17A88.31 88.31 0 0 1 961.7 590c18.07-15.61 43.32-25.46 67.28-20.35 29.62 6.33 49.06 33.15 55.73 61.16 3.84 16.11 28.67 9.29 24.83-6.85z"/><path class="cls-11" d="M556.46 630.34h109.3v40.38h-109.3zM1042.47 631.1h109.3v40.38h-109.3z"/><circle class="cls-3" cx="383.57" cy="954.31" r="46.13"/><circle class="cls-3" cx="517.94" cy="954.31" r="46.13"/><circle class="cls-3" cx="652.31" cy="954.31" r="46.13"/><circle class="cls-3" cx="786.69" cy="954.31" r="46.13"/><circle class="cls-3" cx="921.06" cy="954.31" r="46.13"/><circle class="cls-3" cx="1055.43" cy="954.31" r="46.13"/><circle class="cls-3" cx="1189.8" cy="954.31" r="46.13"/><circle class="cls-3" cx="383.57" cy="1091.65" r="46.13"/><circle class="cls-3" cx="517.94" cy="1091.65" r="46.13"/><circle class="cls-3" cx="652.31" cy="1091.65" r="46.13"/><circle class="cls-3" cx="786.69" cy="1091.65" r="46.13"/><circle class="cls-3" cx="921.06" cy="1091.65" r="46.13"/><circle class="cls-3" cx="1055.43" cy="1091.65" r="46.13"/><circle class="cls-3" cx="1189.8" cy="1091.65" r="46.13"/><circle class="cls-3" cx="383.57" cy="1228.99" r="46.13"/><circle class="cls-3" cx="517.94" cy="1228.99" r="46.13"/><circle class="cls-3" cx="652.31" cy="1228.99" r="46.13"/><circle class="cls-3" cx="786.69" cy="1228.99" r="46.13"/><circle class="cls-3" cx="921.06" cy="1228.99" r="46.13"/><circle class="cls-3" cx="1055.43" cy="1228.99" r="46.13"/><circle class="cls-3" cx="1189.8" cy="1228.99" r="46.13"/><circle class="cls-3" cx="383.57" cy="1366.33" r="46.13"/><circle class="cls-3" cx="517.94" cy="1366.33" r="46.13"/><circle class="cls-3" cx="652.31" cy="1366.33" r="46.13"/><circle class="cls-3" cx="786.69" cy="1366.33" r="46.13"/><circle class="cls-3" cx="921.06" cy="1366.33" r="46.13"/><circle class="cls-3" cx="1055.43" cy="1366.33" r="46.13"/><circle class="cls-3" cx="1189.8" cy="1366.33" r="46.13"/><path class="cls-4" d="M363.21 969.83h839.16c16.71 0 16.73-26 0-26H363.21c-16.71 0-16.73 26 0 26zM363.21 1103.74h839.16c16.71 0 16.73-26 0-26H363.21c-16.71 0-16.73 26 0 26zM363.21 1244.51h839.16c16.71 0 16.73-26 0-26H363.21c-16.71 0-16.73 26 0 26zM1358.4 1352.29a14.41 14.41 0 0 0-5.18-1h-990c-18.15 0-18.18 28.2 0 28.2h990a14.37 14.37 0 0 0 5.18-1z"/></svg>