<svg id="body" xmlns="http://www.w3.org/2000/svg" xmlns:xlink="http://www.w3.org/1999/xlink" viewBox="0 0 1814.89 2282.08"><defs><style>.cls-1,.cls-10,.cls-11,.cls-12,.cls-13,.cls-14,.cls-15,.cls-16,.cls-17,.cls-18,.cls-19,.cls-2,.cls-20,.cls-21,.cls-22,.cls-23,.cls-24,.cls-25,.cls-26,.cls-3,.cls-31,.cls-32,.cls-33,.cls-34,.cls-35,.cls-36,.cls-37,.cls-38,.cls-39,.cls-4,.cls-40,.cls-41,.cls-42,.cls-43,.cls-44,.cls-45,.cls-46,.cls-47,.cls-48,.cls-49,.cls-5,.cls-50,.cls-51,.cls-52,.cls-53,.cls-54,.cls-55,.cls-56,.cls-57,.cls-58,.cls-59,.cls-6,.cls-60,.cls-61,.cls-62,.cls-63,.cls-64,.cls-65,.cls-66,.cls-67,.cls-68,.cls-69,.cls-7,.cls-70,.cls-71,.cls-72,.cls-73,.cls-74,.cls-75,.cls-8,.cls-9{fill:none;stroke-miterlimit:10}.cls-1,.cls-14,.cls-33,.cls-62,.cls-63{stroke-width:5.44px}.cls-1{stroke:url(#linear-gradient)}.cls-15,.cls-2,.cls-31,.cls-32,.cls-34,.cls-61,.cls-64{stroke-width:6.01px}.cls-2{stroke:url(#linear-gradient-2)}.cls-16,.cls-3,.cls-40,.cls-66{stroke-width:5.01px}.cls-3{stroke:url(#linear-gradient-3)}.cls-11,.cls-12,.cls-17,.cls-18,.cls-19,.cls-20,.cls-24,.cls-25,.cls-4,.cls-41,.cls-42,.cls-43,.cls-44,.cls-5,.cls-51,.cls-52,.cls-53,.cls-54,.cls-6,.cls-67,.cls-68,.cls-69,.cls-7,.cls-70{stroke-width:5.3px}.cls-4{stroke:url(#linear-gradient-4)}.cls-5{stroke:url(#linear-gradient-5)}.cls-6{stroke:url(#linear-gradient-6)}.cls-7{stroke:url(#linear-gradient-7)}.cls-21,.cls-22,.cls-46,.cls-47,.cls-49,.cls-56,.cls-57,.cls-58,.cls-59,.cls-72,.cls-73,.cls-74,.cls-8,.cls-9{stroke-width:4.58px}.cls-8{stroke:url(#linear-gradient-8)}.cls-9{stroke:url(#linear-gradient-9)}.cls-10,.cls-13,.cls-23,.cls-26,.cls-50,.cls-60,.cls-75{stroke-width:4.42px}.cls-10{stroke:url(#linear-gradient-10)}.cls-11{stroke:url(#linear-gradient-11)}.cls-12{stroke:url(#linear-gradient-12)}.cls-13{stroke:url(#linear-gradient-13)}.cls-14{stroke:url(#linear-gradient-14)}.cls-15{stroke:url(#linear-gradient-15)}.cls-16{stroke:url(#linear-gradient-16)}.cls-17{stroke:url(#linear-gradient-17)}.cls-18{stroke:url(#linear-gradient-18)}.cls-19{stroke:url(#linear-gradient-19)}.cls-20{stroke:url(#linear-gradient-20)}.cls-21{stroke:url(#linear-gradient-21)}.cls-22{stroke:url(#linear-gradient-22)}.cls-23{stroke:url(#linear-gradient-23)}.cls-24{stroke:url(#linear-gradient-24)}.cls-25{stroke:url(#linear-gradient-25)}.cls-26{stroke:url(#linear-gradient-26)}.cls-27{fill:url(#linear-gradient-27)}.cls-28{fill:url(#linear-gradient-28)}.cls-29{fill:url(#linear-gradient-29)}.cls-30{fill:url(#linear-gradient-30)}.cls-31{stroke:url(#linear-gradient-31)}.cls-32{stroke:url(#linear-gradient-32)}.cls-33{stroke:url(#linear-gradient-33)}.cls-34{stroke:url(#linear-gradient-34)}.cls-35{stroke-width:5.8px;stroke:url(#linear-gradient-35)}.cls-36,.cls-39{stroke-width:5.19px}.cls-36{stroke:url(#linear-gradient-36)}.cls-37,.cls-38,.cls-65{stroke-width:4.69px}.cls-37{stroke:url(#linear-gradient-37)}.cls-38{stroke:url(#linear-gradient-38)}.cls-39{stroke:url(#linear-gradient-39)}.cls-40{stroke:url(#linear-gradient-40)}.cls-41{stroke:url(#linear-gradient-41)}.cls-42{stroke:url(#linear-gradient-42)}.cls-43{stroke:url(#linear-gradient-43)}.cls-44{stroke:url(#linear-gradient-44)}.cls-45,.cls-55,.cls-71{stroke-width:5.12px}.cls-45{stroke:url(#linear-gradient-45)}.cls-46{stroke:url(#linear-gradient-46)}.cls-47{stroke:url(#linear-gradient-47)}.cls-48{stroke-width:4.14px;stroke:url(#linear-gradient-48)}.cls-49{stroke:url(#linear-gradient-49)}.cls-50{stroke:url(#linear-gradient-50)}.cls-51{stroke:url(#linear-gradient-51)}.cls-52{stroke:url(#linear-gradient-52)}.cls-53{stroke:url(#linear-gradient-53)}.cls-54{stroke:url(#linear-gradient-54)}.cls-55{stroke:url(#linear-gradient-55)}.cls-56{stroke:url(#linear-gradient-56)}.cls-57{stroke:url(#linear-gradient-57)}.cls-58{stroke:url(#linear-gradient-58)}.cls-59{stroke:url(#linear-gradient-59)}.cls-60{stroke:url(#linear-gradient-60)}.cls-61{stroke:url(#linear-gradient-61)}.cls-62{stroke:url(#linear-gradient-62)}.cls-63{stroke:url(#linear-gradient-63)}.cls-64{stroke:url(#linear-gradient-64)}.cls-65{stroke:url(#linear-gradient-65)}.cls-66{stroke:url(#linear-gradient-66)}.cls-67{stroke:url(#linear-gradient-67)}.cls-68{stroke:url(#linear-gradient-68)}.cls-69{stroke:url(#linear-gradient-69)}.cls-70{stroke:url(#linear-gradient-70)}.cls-71{stroke:url(#linear-gradient-71)}.cls-72{stroke:url(#linear-gradient-72)}.cls-73{stroke:url(#linear-gradient-73)}.cls-74{stroke:url(#linear-gradient-74)}.cls-75{stroke:url(#linear-gradient-75)}</style><linearGradient id="linear-gradient" x1="5042.59" y1="1195.14" x2="5826.76" y2="1195.14" gradientTransform="rotate(-28.4 4728.848 10536.43)" gradientUnits="userSpaceOnUse"><stop offset="0" stop-color="#ea6e61"/><stop offset="1" stop-color="#ea625d"/></linearGradient><linearGradient id="linear-gradient-2" x1="1731.33" y1="1484.7" x2="2676.36" y2="1484.7" gradientTransform="rotate(-8.1 5126.442 10435.363)" xlink:href="#linear-gradient"/><linearGradient id="linear-gradient-3" x1="5867.48" y1="20191.86" x2="6568.74" y2="20191.86" gradientTransform="matrix(-.9 .25 -.26 -.96 11959.92 20006.46)" xlink:href="#linear-gradient"/><linearGradient id="linear-gradient-4" x1="5033.07" y1="1147.28" x2="5781.13" y2="1147.28" gradientTransform="matrix(.89 -.45 .45 .89 -4276.54 3352.89)" xlink:href="#linear-gradient"/><linearGradient id="linear-gradient-5" x1="1638.69" y1="1569.38" x2="2374.75" y2="1569.38" gradientTransform="matrix(.99 -.11 .11 .99 -1178.54 625.68)" xlink:href="#linear-gradient"/><linearGradient id="linear-gradient-6" x1="3982.2" y1="1165.03" x2="4719.94" y2="1165.03" gradientTransform="matrix(.94 -.35 .35 .94 -3488.53 2404.99)" xlink:href="#linear-gradient"/><linearGradient id="linear-gradient-7" x1="5178.45" y1="1188.41" x2="5926.5" y2="1188.41" xlink:href="#linear-gradient"/><linearGradient id="linear-gradient-8" x1="7312.3" y1="19929.47" x2="7860.92" y2="19929.47" gradientTransform="matrix(-.99 .11 -.11 -.99 10870.29 20977.28)" xlink:href="#linear-gradient"/><linearGradient id="linear-gradient-9" x1="4988.9" y1="20332.53" x2="5540.62" y2="20332.53" gradientTransform="matrix(-.94 .35 -.35 -.94 13180.28 19197.97)" xlink:href="#linear-gradient"/><linearGradient id="linear-gradient-10" x1="5765.75" y1="20214.15" x2="6309.57" y2="20214.15" gradientTransform="matrix(-.9 .25 -.26 -.96 11959.92 20006.46)" xlink:href="#linear-gradient"/><linearGradient id="linear-gradient-11" x1="5073.6" y1="1252.53" x2="5821.65" y2="1252.53" xlink:href="#linear-gradient"/><linearGradient id="linear-gradient-12" x1="1953.92" y1="1539.59" x2="2688.47" y2="1539.59" gradientTransform="rotate(-8.1 5126.442 10435.363)" xlink:href="#linear-gradient"/><linearGradient id="linear-gradient-13" x1="5860.84" y1="20128.92" x2="6404.65" y2="20128.92" gradientTransform="matrix(-.9 .25 -.26 -.96 11959.92 20006.46)" xlink:href="#linear-gradient"/><linearGradient id="linear-gradient-14" x1="2802.68" y1="1096.32" x2="3586.85" y2="1096.32" gradientTransform="matrix(.96 -.27 .27 .96 -2669.6 1736.38)" xlink:href="#linear-gradient"/><linearGradient id="linear-gradient-15" x1="-181.36" y1="2137.19" x2="525.37" y2="2137.19" gradientTransform="translate(686.27 -215.45)" xlink:href="#linear-gradient"/><linearGradient id="linear-gradient-16" x1="8239.11" y1="19805.11" x2="8940.37" y2="19805.11" gradientTransform="matrix(-.93 .05 -.06 -1 9837.52 21322.38)" xlink:href="#linear-gradient"/><linearGradient id="linear-gradient-17" x1="2791.96" y1="1081.05" x2="3540.01" y2="1081.05" gradientTransform="rotate(-15 4892.474 10397.09)" xlink:href="#linear-gradient"/><linearGradient id="linear-gradient-18" x1="-417.35" y1="2323.68" x2="251.17" y2="2323.68" gradientTransform="translate(1066.32 -387.04)" xlink:href="#linear-gradient"/><linearGradient id="linear-gradient-19" x1="1747.18" y1="1342.95" x2="2484.92" y2="1342.95" gradientTransform="rotate(-8.1 5061.279 10777.819)" xlink:href="#linear-gradient"/><linearGradient id="linear-gradient-20" x1="2938.53" y1="1089.58" x2="3686.59" y2="1089.58" gradientTransform="matrix(.96 -.27 .27 .96 -2669.6 1736.38)" xlink:href="#linear-gradient"/><linearGradient id="linear-gradient-21" x1="9435.69" y1="19209.62" x2="9984.31" y2="19209.62" gradientTransform="rotate(-180 4823.09 10780.086)" xlink:href="#linear-gradient"/><linearGradient id="linear-gradient-22" x1="7223.93" y1="20154.61" x2="7775.64" y2="20154.61" gradientTransform="rotate(171.9 4813.645 10809.31)" xlink:href="#linear-gradient"/><linearGradient id="linear-gradient-23" x1="8137.38" y1="19827.4" x2="8681.19" y2="19827.4" gradientTransform="matrix(-.93 .05 -.06 -1 9837.52 21322.38)" xlink:href="#linear-gradient"/><linearGradient id="linear-gradient-24" x1="2833.68" y1="1153.71" x2="3581.74" y2="1153.71" gradientTransform="matrix(.96 -.27 .27 .96 -2669.6 1736.38)" xlink:href="#linear-gradient"/><linearGradient id="linear-gradient-25" x1="-197.12" y1="2172.07" x2="537.44" y2="2172.07" gradientTransform="translate(686.27 -215.45)" xlink:href="#linear-gradient"/><linearGradient id="linear-gradient-26" x1="8232.47" y1="19742.16" x2="8776.28" y2="19742.16" gradientTransform="matrix(-.93 .05 -.06 -1 9837.52 21322.38)" xlink:href="#linear-gradient"/><linearGradient id="linear-gradient-27" x1="409.26" y1="1961.01" x2="1401.07" y2="1961.01" gradientUnits="userSpaceOnUse"><stop offset="0" stop-color="#ed6f66"/><stop offset="1" stop-color="#ec916c"/></linearGradient><linearGradient id="linear-gradient-28" x1="777.93" y1="525.03" x2="1204.42" y2="525.03" gradientUnits="userSpaceOnUse"><stop offset="0" stop-color="#ec916c"/><stop offset="1" stop-color="#ed6f66"/></linearGradient><linearGradient id="linear-gradient-29" x1="121.78" y1="1034.43" x2="1697.9" y2="1034.43" gradientUnits="userSpaceOnUse"><stop offset="0" stop-color="#eda26b"/><stop offset=".77" stop-color="#efdb8a"/></linearGradient><linearGradient id="linear-gradient-30" x1="409.24" y1="2060.47" x2="1401.81" y2="2060.47" xlink:href="#linear-gradient-28"/><linearGradient id="linear-gradient-31" x1="510.2" y1="1989.26" x2="1455.22" y2="1989.26" gradientTransform="translate(-157.31 71.86)" xlink:href="#linear-gradient"/><linearGradient id="linear-gradient-32" x1="2782.9" y1="1321.34" x2="3727.92" y2="1321.34" gradientTransform="rotate(-15 4789.035 10754.967)" xlink:href="#linear-gradient"/><linearGradient id="linear-gradient-33" x1="4157.57" y1="1250.23" x2="4941.73" y2="1250.23" gradientTransform="rotate(-22.2 4783.7 10495.61)" xlink:href="#linear-gradient"/><linearGradient id="linear-gradient-34" x1="911.85" y1="1837.76" x2="1852.29" y2="1837.76" gradientTransform="translate(-515.7 285.02)" xlink:href="#linear-gradient"/><linearGradient id="linear-gradient-35" x1="1433.43" y1="1490.7" x2="2378.41" y2="1490.7" gradientTransform="matrix(.92 -.14 .15 .99 -1192.86 840.76)" xlink:href="#linear-gradient"/><linearGradient id="linear-gradient-36" x1="8412.28" y1="19456.41" x2="9071.42" y2="19456.41" gradientTransform="rotate(180 4829.435 10794.34)" xlink:href="#linear-gradient"/><linearGradient id="linear-gradient-37" x1="5963.91" y1="20147.88" x2="6543.47" y2="20147.88" gradientTransform="scale(-1) rotate(-15 -81640.2 36516.22)" xlink:href="#linear-gradient"/><linearGradient id="linear-gradient-38" x1="4923.62" y1="20249.04" x2="5520.78" y2="20249.04" gradientTransform="matrix(-.93 .36 -.36 -.93 13169.27 19110.16)" xlink:href="#linear-gradient"/><linearGradient id="linear-gradient-39" x1="8020.81" y1="19588.02" x2="8723.24" y2="19588.02" gradientTransform="rotate(180 4794.435 10786.269)" xlink:href="#linear-gradient"/><linearGradient id="linear-gradient-40" x1="6939.96" y1="19964.89" x2="7484.01" y2="19964.89" gradientTransform="matrix(-.92 .16 -.17 -.99 10995.17 20659.62)" xlink:href="#linear-gradient"/><linearGradient id="linear-gradient-41" x1="336.14" y1="1997.72" x2="1072.2" y2="1997.72" xlink:href="#linear-gradient"/><linearGradient id="linear-gradient-42" x1="2614.41" y1="1261.34" x2="3352.15" y2="1261.34" gradientTransform="rotate(-14 4895.318 11016.79)" xlink:href="#linear-gradient"/><linearGradient id="linear-gradient-43" x1="4148.94" y1="1215.24" x2="4897" y2="1215.24" gradientTransform="rotate(-21.2 4892.6 10665.052)" xlink:href="#linear-gradient"/><linearGradient id="linear-gradient-44" x1="713.36" y1="1819.7" x2="1447.91" y2="1819.7" gradientTransform="translate(-361.45 207.93)" xlink:href="#linear-gradient"/><linearGradient id="linear-gradient-45" x1="1402.14" y1="1422.67" x2="2135.67" y2="1422.67" gradientTransform="matrix(.92 -.14 .15 .99 -1192.86 840.76)" xlink:href="#linear-gradient"/><linearGradient id="linear-gradient-46" x1="8614.85" y1="19501.12" x2="9163.47" y2="19501.12" gradientTransform="rotate(180 4829.435 10794.34)" xlink:href="#linear-gradient"/><linearGradient id="linear-gradient-47" x1="6356.69" y1="20236.22" x2="6908.41" y2="20236.22" gradientTransform="rotate(166 4856.516 10786.225)" xlink:href="#linear-gradient"/><linearGradient id="linear-gradient-48" x1="5081.47" y1="20338.29" x2="5558.6" y2="20338.29" gradientTransform="matrix(-.93 .36 -.36 -.93 13169.27 19110.16)" xlink:href="#linear-gradient"/><linearGradient id="linear-gradient-49" x1="8248.18" y1="19641.87" x2="8793.92" y2="19641.87" gradientTransform="rotate(180 4794.435 10786.269)" xlink:href="#linear-gradient"/><linearGradient id="linear-gradient-50" x1="7218.4" y1="19989.98" x2="7762.22" y2="19989.98" gradientTransform="matrix(-.92 .14 -.15 -.99 10851.73 20747.92)" xlink:href="#linear-gradient"/><linearGradient id="linear-gradient-51" x1="833.83" y1="1949.36" x2="1631.48" y2="1949.36" gradientTransform="translate(-157.31 71.86)" xlink:href="#linear-gradient"/><linearGradient id="linear-gradient-52" x1="3110.7" y1="1328.75" x2="3848.44" y2="1328.75" gradientTransform="rotate(-15 4789.035 10754.967)" xlink:href="#linear-gradient"/><linearGradient id="linear-gradient-53" x1="4293.42" y1="1243.49" x2="5041.47" y2="1243.49" gradientTransform="rotate(-22.2 4783.7 10495.61)" xlink:href="#linear-gradient"/><linearGradient id="linear-gradient-54" x1="835.2" y1="1737.79" x2="1569.75" y2="1737.79" gradientTransform="translate(-515.7 285.02)" xlink:href="#linear-gradient"/><linearGradient id="linear-gradient-55" x1="1939.53" y1="1443.23" x2="2673.06" y2="1443.23" gradientTransform="matrix(.92 -.16 .17 .99 -1337.81 929.88)" xlink:href="#linear-gradient"/><linearGradient id="linear-gradient-56" x1="8267.09" y1="19563.66" x2="8665.97" y2="19563.66" gradientTransform="rotate(180 4853.42 10783.092)" xlink:href="#linear-gradient"/><linearGradient id="linear-gradient-57" x1="5860.4" y1="20168.81" x2="6412.12" y2="20168.81" gradientTransform="scale(-1) rotate(-15 -81640.2 36516.22)" xlink:href="#linear-gradient"/><linearGradient id="linear-gradient-58" x1="4675.86" y1="20259.12" x2="5247.09" y2="20259.12" gradientTransform="matrix(-.93 .38 -.38 -.93 13288.64 18988.32)" xlink:href="#linear-gradient"/><linearGradient id="linear-gradient-59" x1="8027.71" y1="19635.06" x2="8424.05" y2="19635.06" gradientTransform="rotate(180 4794.435 10786.269)" xlink:href="#linear-gradient"/><linearGradient id="linear-gradient-60" x1="6914.32" y1="20003.09" x2="7224.78" y2="20003.09" gradientTransform="matrix(-.92 .16 -.17 -.99 10995.17 20659.62)" xlink:href="#linear-gradient"/><linearGradient id="linear-gradient-61" x1="435.71" y1="2083.7" x2="1335.76" y2="2083.7" gradientTransform="translate(-157.31 71.86)" xlink:href="#linear-gradient"/><linearGradient id="linear-gradient-62" x1="2888.29" y1="1429.16" x2="3663.39" y2="1429.16" gradientTransform="rotate(-15 4789.035 10754.967)" xlink:href="#linear-gradient"/><linearGradient id="linear-gradient-63" x1="4065.06" y1="1319.37" x2="4849.23" y2="1319.37" gradientTransform="rotate(-22.2 4783.7 10495.61)" xlink:href="#linear-gradient"/><linearGradient id="linear-gradient-64" x1="833.48" y1="1908.89" x2="1629.13" y2="1908.89" gradientTransform="translate(-515.7 285.02)" xlink:href="#linear-gradient"/><linearGradient id="linear-gradient-65" x1="6128.32" y1="20149.64" x2="6707.88" y2="20149.64" gradientTransform="scale(-1) rotate(-15 -81640.2 36516.22)" xlink:href="#linear-gradient"/><linearGradient id="linear-gradient-66" x1="6924.49" y1="19868.63" x2="7579.08" y2="19868.63" gradientTransform="matrix(-.92 .16 -.17 -.99 10995.17 20659.62)" xlink:href="#linear-gradient"/><linearGradient id="linear-gradient-67" x1="759.24" y1="2032.96" x2="1345.41" y2="2032.96" gradientTransform="translate(-157.31 71.86)" xlink:href="#linear-gradient"/><linearGradient id="linear-gradient-68" x1="3014.55" y1="1405.31" x2="3752.29" y2="1405.31" gradientTransform="rotate(-15 4789.035 10754.967)" xlink:href="#linear-gradient"/><linearGradient id="linear-gradient-69" x1="4188.55" y1="1314.76" x2="4993.94" y2="1314.76" gradientTransform="rotate(-22.2 4783.7 10495.61)" xlink:href="#linear-gradient"/><linearGradient id="linear-gradient-70" x1="1134.44" y1="1869.13" x2="1719.68" y2="1869.13" gradientTransform="translate(-515.7 285.02)" xlink:href="#linear-gradient"/><linearGradient id="linear-gradient-71" x1="1844.44" y1="1528.47" x2="2577.98" y2="1528.47" gradientTransform="matrix(.92 -.16 .17 .99 -1337.81 929.88)" xlink:href="#linear-gradient"/><linearGradient id="linear-gradient-72" x1="8386.35" y1="19475.98" x2="8740.45" y2="19475.98" gradientTransform="rotate(180 4853.42 10783.092)" xlink:href="#linear-gradient"/><linearGradient id="linear-gradient-73" x1="6099.11" y1="20116.79" x2="6508.14" y2="20116.79" gradientTransform="scale(-1) rotate(-15 -81640.2 36516.22)" xlink:href="#linear-gradient"/><linearGradient id="linear-gradient-74" x1="4780.71" y1="20194.99" x2="5351.94" y2="20194.99" gradientTransform="matrix(-.93 .38 -.38 -.93 13288.64 18988.32)" xlink:href="#linear-gradient"/><linearGradient id="linear-gradient-75" x1="6933.29" y1="19901.94" x2="7319.94" y2="19901.94" gradientTransform="matrix(-.92 .16 -.17 -.99 10995.17 20659.62)" xlink:href="#linear-gradient"/></defs><title>extra_panels_illo</title><path class="cls-1" d="M602.87 2134.61l755.78-245.8"/><path class="cls-2" d="M410.62 1974.65l963.31 52.05"/><path class="cls-3" d="M1377.58 2054.29l-672.32 13.29"/><path class="cls-4" d="M702.51 2039.98l722.01-228.53"/><path class="cls-5" d="M617.16 1899.37l752.62 115.13"/><path class="cls-6" d="M622.82 2018.1l741.3-122.34"/><path class="cls-7" d="M722.54 2070.36l718.61-239.01"/><path class="cls-8" d="M1351.9 2106.96l-566.22-136.44"/><path class="cls-9" d="M1344.24 1988.46l-550.91 100.57"/><path class="cls-10" d="M1460.07 1996.82l-524.95-3.56"/><path class="cls-11" d="M659.66 2175.96l718.61-239.01"/><path class="cls-12" d="M639.72 1998.83l753.93 76"/><path class="cls-13" d="M1397.19 2102.42l-524.95-3.56"/><path class="cls-14" d="M307.17 1971.41l790.56-81.45"/><path class="cls-15" d="M388.55 1828.17l695.13 199.81"/><path class="cls-16" d="M1081.45 2055.72l-660.1-128.33"/><path class="cls-17" d="M424.47 1899.83l753.91-71.66"/><path class="cls-18" d="M430.69 1819.57l651.5 195.61"/><path class="cls-19" d="M351.15 1861.7l750.46 36.21"/><path class="cls-20" d="M437.67 1933.74l752.79-82.62"/><path class="cls-21" d="M1045.27 2101.82l-524.89-252.41"/><path class="cls-22" d="M1062.69 1984.35l-559.73-17.47"/><path class="cls-23" d="M1174.18 2016.88l-512.47-113.82"/><path class="cls-24" d="M353.99 2023.77l752.8-82.62"/><path class="cls-25" d="M371.73 1846.41l721.11 232.77"/><path class="cls-26" d="M1090.5 2106.9l-512.47-113.82"/><path class="cls-27" d="M1401.07 1909.42s-469.16-125.71-991.81 9.28c0 0 89 180.12 533.84 141.77s457.97-151.05 457.97-151.05z"/><path class="cls-28" d="M1204.42 132.71L1133.29 262l35.56 195.72-71.49 424.9S977.5 1009 907.36 779.79l-70.13-229.17s-154.85 153.61 35.92-114 85.47-140 85.47-140l105.29-127.59 135-33.45"/><path class="cls-29" d="M1204.12 136.29c-26.17-19.88-53.19-37.34-83.72-51.21-70.18-31.61-146.16-51.62-223.21-54.86C793.67 25.87 692 54.06 604.63 109.56c-111.21 70.63-195 177.65-259.87 290.71-360.46 628-360.46 1638.8 579.71 1638.8 115.42 0 231.78-18.82 338-65.3a663.76 663.76 0 0 0 237.78-176c64.23-75 111.39-163.44 143.09-256.72 33.63-98.94 50.29-203.27 53.87-307.56 3.78-110.16-7-220.73-29.87-328.49a1437.48 1437.48 0 0 0-108.14-319.51c-78.11-163.82-192-316.68-332.91-431.76q-11.07-8.98-22.17-17.44z"/><path class="cls-30" d="M409.26 1918.7c-2 23.14 229.35 45.75 253.58 49.57 195.12 30.7 407 45.54 598.87-7.75 12-3.34 139.37-51.1 139.37-51.1 8 40-51.46 113-76.26 141.17-32.14 36.53-70.57 62.73-112.64 87.09-87.15 50.48-188.84 73.85-289.12 73.85-395.57 0-513.8-292.84-513.8-292.83z"/><path class="cls-31" d="M380.94 1953.54l946.59 186.12"/><path class="cls-32" d="M372.57 2072.28l963.34-51.36"/><path class="cls-33" d="M666.38 2133.78l776.43-169.67"/><path class="cls-34" d="M490.94 1955.54l950.21 175.74"/><path class="cls-35" d="M339.44 2011.05l899.08 63.18"/><path class="cls-36" d="M1245.85 2229.2l-657.67-193.86"/><path class="cls-37" d="M1324.68 2111.31l-586.35 47.78"/><path class="cls-38" d="M1251.95 2053.36l-579.59 155.83"/><path class="cls-39" d="M1209.06 2231.61l-708.25-161.15"/><path class="cls-40" d="M1294.95 2120.13l-520.04-42.91"/><path class="cls-41" d="M336.83 1897.79l734.68 199.87"/><path class="cls-42" d="M328.97 2016.39l750.4-37.33"/><path class="cls-43" d="M774.91 2049.49l741.1-155.83"/><path class="cls-44" d="M422.42 1901.39l740.42 161.15"/><path class="cls-45" d="M302.55 1963.33l699.88 63.18"/><path class="cls-46" d="M1043.23 2187.5l-547.05-199.88"/><path class="cls-47" d="M1049.09 2068.89l-558.77 37.34"/><path class="cls-48" d="M1064.21 2005.65l-451.17 155.83"/><path class="cls-49" d="M979.5 2183.89l-551.33-161.15"/><path class="cls-50" d="M1163.22 2090.36l-521.15-63.17"/><path class="cls-51" d="M703.92 1901.12l799.32 203.91"/><path class="cls-52" d="M697.78 2019.82l749.78-48.25"/><path class="cls-53" d="M791.83 2081.71l738.76-166.6"/><path class="cls-54" d="M409.85 1878.36l742.69 150.36"/><path class="cls-55" d="M670.59 1967.16l700.73 52.98"/><path class="cls-56" d="M1264.17 2170l-399.62-181.38"/><path class="cls-57" d="M1418.59 2061.84l-558.17 45.46"/><path class="cls-58" d="M1348.32 1999.61L798.8 2163.45"/><path class="cls-59" d="M1199.56 2173.37l-401.04-150.63"/><path class="cls-60" d="M1307.59 2051.59l-296.58-25.53"/><path class="cls-61" d="M307.9 2052.39l901.5 180.11"/><path class="cls-62" d="M508.09 2171.13l787.6-51.36"/><path class="cls-63" d="M606.66 2232.62l776.43-169.66"/><path class="cls-64" d="M417.89 2054.39l803.12 136.78"/><path class="cls-65" d="M1165.41 2152.18l-586.35 47.78"/><path class="cls-66" d="M1327.1 2223.48l-625.24-47.41"/><path class="cls-67" d="M630.87 1999.96l587.22 178.65"/><path class="cls-68" d="M624.73 2118.67l749.79-48.25"/><path class="cls-69" d="M718.79 2180.55l797.22-174.9"/><path class="cls-70" d="M716.51 2002.32l592.4 139.84"/><path class="cls-71" d="M597.55 2066l700.72 52.99"/><path class="cls-72" d="M1146.04 2249.31l-354.53-161.84"/><path class="cls-73" d="M1195.26 2150.16l-407.88 55.99"/><path class="cls-74" d="M1275.27 2098.46L725.76 2262.3"/><path class="cls-75" d="M1309.69 2169.97l-371.73-45.06"/></svg>