<svg id="body" xmlns="http://www.w3.org/2000/svg" xmlns:xlink="http://www.w3.org/1999/xlink" viewBox="0 0 1814.89 2282.08"><defs><style>.cls-1,.cls-2,.cls-5{fill:#d5ecf0}.cls-1,.cls-4{opacity:.5}.cls-2,.cls-3{opacity:.8}.cls-3{fill:url(#linear-gradient)}.cls-4{fill:url(#linear-gradient-2)}.cls-6{opacity:.26;fill:url(#linear-gradient-3)}</style><linearGradient id="linear-gradient" x1="906.4" y1="1355.43" x2="906.4" y2="864.77" gradientUnits="userSpaceOnUse"><stop offset="0" stop-color="#a8d3d5"/><stop offset="1" stop-color="#c1e4ea"/></linearGradient><linearGradient id="linear-gradient-2" x1="603.18" y1="940.91" x2="1210.51" y2="940.91" gradientUnits="userSpaceOnUse"><stop offset="0" stop-color="#94c6c6"/><stop offset=".51" stop-color="#5cb7c4"/><stop offset="1" stop-color="#94c6c6"/></linearGradient><linearGradient id="linear-gradient-3" x1="579.44" y1="768.79" x2="1232.28" y2="768.79" xlink:href="#linear-gradient-2"/></defs><title>extra_panels_illo</title><path class="cls-1" d="M518.05 723.9c.25 3.75.64 7.49 1.1 11.2 8.93 72.31 19.83 150.67 29.47 223l31.73 238 46.55 349.13c.37 2.77 1.36 6.08 1.19 8.89 0 0-6.28 94.16 288.76 94.16s268.36-91 268.36-91l109.85-827s14.12-43.94-31.39-54.93c-118.91-28.7-241.43-41.06-363.64-41.37-61.79-.16-123.58 2.78-185.11 8.36-55 5-115.5 4.4-166.16 28.91l-.49.24c-1.93.93-3.86 2-5.7 3.07-10.24 6.18-18.49 14.63-22 26.32-2.83 9.38-3.18 13.12-2.52 23.02z"/><path class="cls-2" d="M564.45 752.92a140 140 0 0 0 1.44 20.08c7 50.89 22.85 101.52 34.75 151.44l51.72 217 26.73 112.14s17.29 98.87 171.84 98.87h127.12s127.12 3.92 156.93-110.64 117.7-488.06 117.7-488.06 21.19-42.37-43.16-56.5c-67.18-14.75-137.87-18.57-206.35-21.75-102.75-4.76-204.25-.89-306.55 9-33.14 3.35-72.29 1.38-102.75 16.44-22.41 11.06-29.11 13.42-29.42 51.98z"/><path class="cls-3" d="M1135 1244.78c18.09-69.51 57.55-234.32 85.8-353.22-3.43-1.11-7.17-2.12-11.26-3-67.18-14.75-137.87-18.57-206.35-21.75-102.75-4.76-204.25-.89-306.55 9-33.14 3.35-72.29 1.38-102.75 16.44l-1.86.92c3 11.46 5.9 22.89 8.62 34.29l51.72 217 26.73 112.14s17.29 98.87 171.84 98.87h127.11s127.12 3.87 156.95-110.69z"/><path class="cls-4" d="M603.18 915.35s246.73 85.67 607.33 0c0 0-313.88 115.02-607.33 0z"/><path class="cls-5" d="M1172.65 1547s-40-56.5-278.56-56.5-248 56.5-248 56.5 55.25-48.65 246.39-48.65 280.17 48.65 280.17 48.65z"/><path class="cls-6" d="M579.44 743.51s265.22 84.74 652.84 0c0 0-337.4 113.77-652.84 0z"/></svg>