<svg id="body" xmlns="http://www.w3.org/2000/svg" xmlns:xlink="http://www.w3.org/1999/xlink" viewBox="0 0 1814.89 2282.08"><defs><style>.cls-1{fill:url(#linear-gradient)}.cls-2{fill:#ea625d}.cls-3{opacity:.8}.cls-4{fill:url(#linear-gradient-2)}.cls-5{fill:url(#linear-gradient-3)}.cls-6{fill:#ec916c;opacity:.5}.cls-7{fill:#d24343}</style><linearGradient id="linear-gradient" x1="586.69" y1="629.36" x2="1228.2" y2="1740.5" gradientUnits="userSpaceOnUse"><stop offset="0" stop-color="#eda26b"/><stop offset=".77" stop-color="#efdb8a"/></linearGradient><linearGradient id="linear-gradient-2" x1="567.38" y1="758.83" x2="751.67" y2="758.83" gradientUnits="userSpaceOnUse"><stop offset="0" stop-color="#94ccd4"/><stop offset="1" stop-color="#c1e4ea"/></linearGradient><linearGradient id="linear-gradient-3" x1="1024.04" y1="755.05" x2="1208.33" y2="755.05" xlink:href="#linear-gradient-2"/></defs><title>extra_panels_illo</title><rect class="cls-1" x="347.8" y="734.3" width="1119.28" height="901.26" rx="77.86" ry="77.86"/><path class="cls-2" d="M1467.09 919.46v-107.3a78.09 78.09 0 0 0-77.86-77.86H425.67a78.09 78.09 0 0 0-77.86 77.86v107.3z"/><path class="cls-3 cls-4" d="M761.57 727.92c-8.91-37.44-36.8-71.57-75.79-79.55-35.23-7.22-72.25 8.17-96.7 33.51-27.59 28.59-39.72 72.37-27.35 110.71 12.79 39.66 49.43 67.93 88.71 78 16.06 4.13 22.91-20.7 6.85-24.83-29.72-7.64-57.43-27.1-69.26-56.34-12.19-30.13-2.89-66.39 19.26-89.35 17.6-18.24 43.78-30.89 69.58-27.29 31.58 4.4 52.92 32.75 59.87 62 3.84 16.11 28.67 9.29 24.83-6.85z"/><path class="cls-3 cls-5" d="M1218.23 727.92c-8.44-35.44-33.63-67.73-69.61-78.1-32.5-9.37-67.59 2.14-93 23.05a114.24 114.24 0 0 0-41.21 99.68c4.1 39.88 33.2 73 68.61 89.67 14.91 7 28-15.18 13-22.24-27.8-13.09-52.3-37.42-55.92-69.17a88.31 88.31 0 0 1 30.29-76.81c18.07-15.61 43.32-25.46 67.28-20.35 29.62 6.33 49.06 33.15 55.73 61.16 3.84 16.11 28.67 9.29 24.83-6.85z"/><path class="cls-2" d="M665.15 734.3h109.3v40.38h-109.3zM1151.16 735.06h109.3v40.38h-109.3z"/><circle class="cls-6" cx="492.25" cy="1058.26" r="46.13"/><circle class="cls-6" cx="626.63" cy="1058.26" r="46.13"/><circle class="cls-6" cx="761" cy="1058.26" r="46.13"/><circle class="cls-6" cx="895.37" cy="1058.26" r="46.13"/><circle class="cls-6" cx="1029.75" cy="1058.26" r="46.13"/><circle class="cls-6" cx="1164.12" cy="1058.26" r="46.13"/><circle class="cls-6" cx="1298.49" cy="1058.26" r="46.13"/><circle class="cls-6" cx="492.25" cy="1195.61" r="46.13"/><circle class="cls-6" cx="626.63" cy="1195.61" r="46.13"/><circle class="cls-6" cx="761" cy="1195.61" r="46.13"/><circle class="cls-6" cx="895.37" cy="1195.61" r="46.13"/><circle class="cls-6" cx="1029.75" cy="1195.61" r="46.13"/><circle class="cls-6" cx="1164.12" cy="1195.61" r="46.13"/><circle class="cls-6" cx="1298.49" cy="1195.61" r="46.13"/><circle class="cls-6" cx="492.25" cy="1332.95" r="46.13"/><circle class="cls-6" cx="626.63" cy="1332.95" r="46.13"/><circle class="cls-6" cx="761" cy="1332.95" r="46.13"/><circle class="cls-6" cx="895.37" cy="1332.95" r="46.13"/><circle class="cls-6" cx="1029.75" cy="1332.95" r="46.13"/><circle class="cls-6" cx="1164.12" cy="1332.95" r="46.13"/><circle class="cls-6" cx="1298.49" cy="1332.95" r="46.13"/><circle class="cls-6" cx="492.25" cy="1470.29" r="46.13"/><circle class="cls-6" cx="626.63" cy="1470.29" r="46.13"/><circle class="cls-6" cx="761" cy="1470.29" r="46.13"/><circle class="cls-6" cx="895.37" cy="1470.29" r="46.13"/><circle class="cls-6" cx="1029.75" cy="1470.29" r="46.13"/><circle class="cls-6" cx="1164.12" cy="1470.29" r="46.13"/><circle class="cls-6" cx="1298.49" cy="1470.29" r="46.13"/><path class="cls-7" d="M471.89 1073.79h839.16c16.71 0 16.73-26 0-26H471.89c-16.71 0-16.73 26 0 26zM471.89 1207.69h839.16c16.71 0 16.73-26 0-26H471.89c-16.71 0-16.73 26 0 26z"/></svg>