<svg id="Layer_2" xmlns="http://www.w3.org/2000/svg" viewBox="0 0 1814.9 2282.1"><style>.st0{fill:#df8863}.st1{fill:url(#SVGID_1_)}.st2{fill:url(#SVGID_2_)}.st3{fill:url(#SVGID_3_)}.st4{fill:url(#SVGID_4_)}.st5{fill:url(#SVGID_5_)}.st6{opacity:.5}.st7{fill:url(#SVGID_6_)}.st8{fill:url(#SVGID_7_)}.st9{fill:url(#SVGID_8_)}.st10{opacity:.7}.st11{fill:url(#SVGID_9_)}.st12{fill:url(#SVGID_10_)}.st13{fill:url(#SVGID_11_)}.st14{fill:url(#SVGID_12_)}.st15,.st16{opacity:.11;fill:url(#SVGID_13_)}.st16{fill:url(#SVGID_14_)}.st17{fill:url(#SVGID_15_)}.st17,.st18{opacity:.11}.st19{fill:url(#SVGID_16_)}.st20{fill:url(#SVGID_17_)}.st21,.st22{opacity:.11;fill:url(#SVGID_18_)}.st22{fill:url(#SVGID_19_)}.st23{fill:url(#SVGID_20_)}.st24{fill:url(#SVGID_21_)}.st25{fill:url(#SVGID_22_)}</style><path class="st0" d="M430.6 1283.3h-27.3L388 1400.2h34.1zM1372.7 1283.3h27.3l15.3 116.9h-34.1z"/><linearGradient id="SVGID_1_" gradientUnits="userSpaceOnUse" x1="-11258.306" y1="6347.348" x2="-11258.306" y2="5405.707" gradientTransform="rotate(180 -5178.747 3643.816)"><stop offset="0" stop-color="#d65056"/><stop offset="1" stop-color="#ec906c"/></linearGradient><path class="st1" d="M884.1 948.4c38.4 1.3 76.5-.6 115.1.2 42.9.9 85.9 5.7 127.5 16.3 98.4 25.1 182.8 85.7 219.9 182.8 13.5 35.2 20.5 72.7 23.1 110.2 4.9 69.8 11 139.6 16.1 209.4 4.9 67.1 14.4 137.5 3.5 204.3-7.6 46.7-27.2 88.2-61.1 121.3-35.4 34.5-83.9 52.2-131.1 64.5-75.4 19.6-150.7 25-228.3 24.5-78.1-.5-156.4-.7-234.4-6-104.4-7-233-18.2-292.6-118.1-31.6-53-35.8-117.5-34.4-177.7 1.5-65.9 3.7-132.2 9.1-198 8-97.2 23.9-198.6 70.7-285.5 46.2-85.8 124.3-142.1 221.7-153.8 49.2-5.9 98.7-.1 147.8 4 9.2.8 18.3 1.3 27.4 1.6z"/><linearGradient id="SVGID_2_" gradientUnits="userSpaceOnUse" x1="-10694.726" y1="6226.495" x2="-10694.726" y2="5641.77" gradientTransform="rotate(180 -5178.747 3643.816)"><stop offset="0" stop-color="#eca16b"/><stop offset=".766" stop-color="#efdb89"/></linearGradient><path class="st2" d="M388 1615s25.9-435.6 38.2-489.6c0 0 22.1-57.7-33.1-61.4-55.2-3.7-83.4-19.6-101.8 92-18.4 111.7-52.8 373-46.6 451.5 0 0 3.7 34.4 40.5 36.8s100.7 6.1 102.8-29.3z"/><linearGradient id="SVGID_3_" gradientUnits="userSpaceOnUse" x1="-11823.567" y1="6226.496" x2="-11823.567" y2="5641.771" gradientTransform="rotate(180 -5178.747 3643.816)"><stop offset="0" stop-color="#eca16b"/><stop offset=".766" stop-color="#efdb89"/></linearGradient><path class="st3" d="M1415.3 1615s-25.9-435.6-38.2-489.6c0 0-22.1-57.7 33.1-61.4 55.2-3.7 83.4-19.6 101.8 92s52.8 373 46.6 451.5c0 0-3.7 34.4-40.5 36.8-36.7 2.6-100.7 6.1-102.8-29.3z"/><linearGradient id="SVGID_4_" gradientUnits="userSpaceOnUse" x1="-11264.956" y1="6883.485" x2="-11264.956" y2="6243.208" gradientTransform="rotate(180 -5178.747 3643.816)"><stop offset="0" stop-color="#ec6f66"/><stop offset="1" stop-color="#ec906c"/></linearGradient><path class="st4" d="M399.2 666.5s51.5 233.1 76.1 272.4c24.5 39.3 66.3 118.9 228.2 103.6 96.9-9.1 195-18.5 292.3-11.4 31.2 2.3 62.2 9.3 93.4 10.8 25.8 1.2 51.7.7 77.3-2.4 54.6-6.6 112.5-25.6 146.1-71.9 11.6-15.9 19.5-34.2 24.1-53.3 41.7-174.2 81-311.7 81-311.7s61.4-188.3-331.3-196S346 390.8 399.2 666.5"/><linearGradient id="SVGID_5_" gradientUnits="userSpaceOnUse" x1="-11264.958" y1="6621.488" x2="-11264.958" y2="6883.485" gradientTransform="rotate(180 -5178.747 3643.816)"><stop offset=".352" stop-color="#d65056"/><stop offset="1" stop-color="#ec906c"/></linearGradient><path class="st5" d="M1087 507c6.7-.4 13.5-.7 20.2-.9 59.3-1.9 116.8 7.4 173.5 24.8 32 9.8 63.9 23.5 90.1 44.8 8.4 6.8 43.9 37.4 40.3 50.7 4.2-15.3 6.7-23.7 6.7-23.7s61.4-188.3-331.3-196c-392.5-7.7-740-15.9-687.2 259.4-5.3-27.6 37.1-69.9 55.8-84.6 137-108.2 317.5-55.9 476.2-61.7 52-1.9 103.7-9.8 155.7-12.8z"/><g class="st6"><linearGradient id="SVGID_6_" gradientUnits="userSpaceOnUse" x1="987.688" y1="2030.004" x2="987.688" y2="1606.008" gradientTransform="rotate(-9.177 -5289.879 3495.324)"><stop offset="0" stop-color="#de675e"/><stop offset="1" stop-color="#e37764"/></linearGradient><path class="st7" d="M595.1 633.9c7.7 68.5 18.1 136.4 31.1 203.4 12.7 65.4 25.8 135.3 46.6 196.8 1.1 3.3 2.1 7.1 4.2 9.5 1.7 2 4.2 2.8 6.1 1.1.8-.8 1.4-1.9 1.8-3.2 1.4-4.4.6-9.4-.1-14-10.8-66.8-21.8-133.6-33.2-200.2-10.4-61-21.2-122.1-36.1-181.3-1.2-4.9-2.6-10.1-5.3-13.7-4-5.4-13-5.4-13.2 4.6"/></g><g class="st6"><linearGradient id="SVGID_7_" gradientUnits="userSpaceOnUse" x1="-2208.913" y1="7057.227" x2="-2208.913" y2="6748.015" gradientTransform="matrix(.0535 -.9986 1.7368 .09303 -10970.212 -2105.912)"><stop offset="0" stop-color="#de675e"/><stop offset="1" stop-color="#e37764"/></linearGradient><path class="st8" d="M635 749.5c86.8 4.9 173.8 7.1 260.4 6.6 84.7-.5 174.9-.6 257.4-9.6 4.4-.5 9.4-.8 13.1-2.3 3-1.2 4.9-3.6 3.4-5.7-.7-.9-1.9-1.7-3.3-2.3-4.9-2.1-11.3-2.3-17.3-2.4-85.7-1.7-171.5-3.1-257.2-4.1-78.5-.9-157.1-1.5-234.9 2.2-6.5.3-13.2.7-18.6 2.7-8 2.9-10.9 11.6 1.2 13.7"/></g><g class="st6"><linearGradient id="SVGID_8_" gradientUnits="userSpaceOnUse" x1="373.987" y1="-357.385" x2="373.987" y2="-782.568" gradientTransform="matrix(.973 .2312 -.2314 .9732 667.326 1295.852)"><stop offset="0" stop-color="#de675e"/><stop offset="1" stop-color="#e37764"/></linearGradient><path class="st9" d="M1177.5 615.3c-11.8 67.4-21 135.7-27.5 204.4-6.4 67.2-13.6 138.7-11.4 206.6.1 3.6 0 7.7 1.2 11 1 2.7 3.1 4.9 5.3 4.3 1-.3 1.8-1.1 2.5-2 2.5-3.3 3.2-8.3 3.8-13 8.6-67.4 16.9-135 24.8-202.6 7.2-61.9 14.2-124 16.8-186.7.2-5.2.4-10.7-1.1-15.5-2.2-7.1-10.5-11.9-13.5-2.8"/></g><g class="st10"><linearGradient id="SVGID_9_" gradientUnits="userSpaceOnUse" x1="-11788.126" y1="4966.879" x2="-11788.126" y2="4173.527" gradientTransform="rotate(170.823 -5183.486 3524.86)"><stop offset="0" stop-color="#de675e"/><stop offset="1" stop-color="#e37764"/></linearGradient><path class="st11" d="M1217.7 1824.7c-7.7-130-18.1-258.9-31.1-385.9-12.7-124.2-25.8-256.7-46.6-373.4-1.1-6.3-2.1-13.4-4.2-18-1.7-3.8-4.2-5.4-6.1-2.1-.8 1.4-1.4 3.7-1.8 6-1.4 8.3-.6 17.8.1 26.6 10.7 126.8 21.7 253.5 33.1 379.9 10.4 115.8 21.2 231.6 36.1 344 1.2 9.4 2.6 19.1 5.3 26 4 10.3 13 10.3 13.2-8.6"/></g><linearGradient id="SVGID_10_" gradientUnits="userSpaceOnUse" x1="-10225.205" y1="60.831" x2="-10282.158" y2="61.727" gradientTransform="matrix(-.02734 .5119 -1.7368 -.0932 739.34 6668.96)"><stop offset="0" stop-color="#de675e"/><stop offset=".241" stop-color="#df6b60"/></linearGradient><path class="st12" d="M1177.9 1415.3c-86.9-7-173.9-11.5-260.4-13.3-84.5-1.7-174.6-4-256.6 2.7-4.4.4-9.3.5-12.9 1.9-2.9 1.1-4.7 3.4-3.1 5.4.7.9 2 1.7 3.4 2.3 5 2.2 11.4 2.5 17.4 2.8 85.7 3.9 171.4 7.5 257 10.7 78.4 3 157 5.6 234.4 4 6.5-.1 13.2-.3 18.4-2.1 7.8-2.7 10.3-11.1-1.9-13.4"/><g class="st10"><linearGradient id="SVGID_11_" gradientUnits="userSpaceOnUse" x1="-10373.126" y1="7260.333" x2="-10373.126" y2="6461.9" gradientTransform="matrix(-.973 -.2312 .2314 -.9732 -11030.944 5736.51)"><stop offset="0" stop-color="#de675e"/><stop offset="1" stop-color="#e37764"/></linearGradient><path class="st13" d="M635.3 1860.1c11.8-127.9 21-257.4 27.5-387.9 6.4-127.5 13.6-263.2 11.4-392-.1-6.9 0-14.5-1.2-20.9-1-5.2-3.1-9.3-5.3-8.1-1 .5-1.8 2-2.5 3.8-2.5 6.3-3.2 15.8-3.8 24.7-8.6 128-16.9 256.1-24.8 384.4-7.2 117.5-14.2 235.4-16.8 354.2-.2 9.9-.4 20.3 1.1 29.4 2.2 13.6 10.5 22.6 13.5 5.4"/></g><linearGradient id="SVGID_12_" gradientUnits="userSpaceOnUse" x1="-11257.964" y1="6823.047" x2="-11257.964" y2="6578.273" gradientTransform="rotate(180 -5178.747 3643.816)"><stop offset="0" stop-color="#ec906c"/><stop offset=".648" stop-color="#d65056"/></linearGradient><path class="st14" d="M579.1 608.2c5.8 41.1 36.6 68.6 67.9 82.9 28.5 13.1 61.7 20.1 92.3 17.8 83.7-6.4 167.7-7.9 251.5-4.6 49.1 1.9 99.1 5.5 146.8-8.2 46.1-13.2 79.6-69.3 85-123.2 1.6-15.9-.5-32.8-8.2-46.1-29.3-50.5-107-53.8-153.7-57.3-70.1-5.3-140.5-6.2-210.8-3.4-44.2 1.8-90.2 2.3-134.7 9.6-40.7 6.6-93.3 16.4-122.9 53.3-20.7 26.2-13.4 48.1-13.2 79.2"/><linearGradient id="SVGID_13_" gradientUnits="userSpaceOnUse" x1="-10686.747" y1="7781.029" x2="-10686.747" y2="7196.304" gradientTransform="rotate(180 -5178.747 3643.816)"><stop offset="0" stop-color="#eca16b"/><stop offset=".766" stop-color="#efdb89"/></linearGradient><path class="st15" d="M256.2 53.1s3.7 34.4 40.5 36.8 100.8 6 102.9-29.4c0 0 1.3-21.5 3.4-55.6H256c-.7 19.6-.7 36.1.2 48.2z"/><linearGradient id="SVGID_14_" gradientUnits="userSpaceOnUse" x1="-11854.717" y1="7781.03" x2="-11854.717" y2="7196.305" gradientTransform="rotate(180 -5178.747 3643.816)"><stop offset="0" stop-color="#eca16b"/><stop offset=".766" stop-color="#efdb89"/></linearGradient><path class="st16" d="M1529.8 89.9c36.8-2.5 40.5-36.8 40.5-36.8.9-12.1.9-28.6.2-48.2h-147c2.1 34.1 3.4 55.6 3.4 55.6 2.1 35.4 66.1 31.8 102.9 29.4z"/><linearGradient id="SVGID_15_" gradientUnits="userSpaceOnUse" x1="912.394" y1="327.39" x2="912.394" y2="-1150.389"><stop offset="0" stop-color="#ec6f66"/><stop offset="1" stop-color="#ec906c"/></linearGradient><path class="st17" d="M453.4 203.3C513 303.2 641.6 314.4 746 321.4c78 5.2 156.3 5.4 234.4 6 77.5.5 152.9-4.8 228.3-24.5 47.2-12.3 95.6-29.9 131.1-64.5 33.9-33.1 53.5-74.6 61.1-121.3 6-36.7 5.8-74.5 3.6-112.3h-194.9c7.8 87.8 14.3 176.3 19.6 265.3l-1.8-5.7c-.2 18.9-9.2 18.9-13.2 8.6-2.7-6.9-4.1-16.6-5.3-26-10.6-79.4-19-160.6-26.8-242.3H669.6c-6 101-13.6 201.4-22.7 300.8l-.8-7.1c-3 17.2-11.2 8.2-13.5-5.4-1.5-9.1-1.3-19.4-1.1-29.4 1.9-86.8 6.1-173 11.1-259h-223c-.2 6.9-.3 13.8-.5 20.7-1.4 60.5 2.7 125 34.3 178z"/><g class="st18"><linearGradient id="SVGID_16_" gradientUnits="userSpaceOnUse" x1="1205.707" y1="280.005" x2="1205.707" y2="4.836"><stop offset="0" stop-color="#de675e"/><stop offset="1" stop-color="#e37764"/></linearGradient><path class="st19" d="M1214.2 273.1c4 10.3 13 10.3 13.2-8.6l1.8 5.7c-5.3-89-11.9-177.6-19.6-265.3h-27.5c7.7 81.7 16.2 162.9 26.8 242.3 1.2 9.4 2.6 19.1 5.3 25.9z"/></g><g class="st18"><linearGradient id="SVGID_17_" gradientUnits="userSpaceOnUse" x1="650.443" y1="307.983" x2="650.443" y2="4.836"><stop offset="0" stop-color="#de675e"/><stop offset="1" stop-color="#e37764"/></linearGradient><path class="st20" d="M632.5 293.2c2.2 13.6 10.5 22.6 13.5 5.4l.8 7.1C656 206.3 663.6 106 669.5 4.9h-27.1c-5 86-9.2 172.2-11.1 259-.1 9.8-.3 20.1 1.2 29.3z"/></g><linearGradient id="SVGID_18_" gradientUnits="userSpaceOnUse" x1="906.279" y1="3471.194" x2="906.279" y2="1993.415"><stop offset="0" stop-color="#ec6f66"/><stop offset="1" stop-color="#ec906c"/></linearGradient><path class="st21" d="M1378.6 2074.7c58.3 54.5 37.8 117.3 37.8 117.3s-2.4 8.4-6.7 23.7c3.7-13.3-31.9-43.9-40.3-50.7-26.2-21.3-58-35-90.1-44.8-56.6-17.4-114.2-26.7-173.5-24.8-6.7.2-13.5.5-20.2.9-52 3-103.7 10.9-155.9 12.8-158.8 5.9-339.2-46.4-476.2 61.7-18.7 14.7-61.1 57-55.8 84.6-45-234.4 200.3-263.3 516.5-262-316.3-1.4-561.7 27.6-516.4 262.3 0 0 1.8 8.1 4.8 21.5h197.8c-2.4-18-4.6-36-6.7-54l1.8 3c.2-10 9.2-10 13.2-4.6 2.7 3.6 4.1 8.7 5.3 13.7 3.5 13.9 6.8 27.9 9.8 41.9h540.5c3.6-24.3 7.4-48.6 11.7-72.7l.9 3.7c3-9.1 11.2-4.3 13.5 2.8 1.5 4.8 1.3 10.2 1.1 15.5-.7 16.9-1.7 33.8-3 50.7H1393c14.2-53 23.4-85.3 23.4-85.3s20.5-62.7-37.8-117.2z"/><linearGradient id="SVGID_19_" gradientUnits="userSpaceOnUse" x1="-11263.775" y1="5032.22" x2="-11263.775" y2="5294.216" gradientTransform="rotate(180 -5178.747 3643.816)"><stop offset=".352" stop-color="#d65056"/><stop offset="1" stop-color="#ec906c"/></linearGradient><path class="st22" d="M398 2255.4c-5.3-27.6 37.1-69.9 55.8-84.6 137-108.2 317.5-55.9 476.2-61.7 52.1-1.9 103.8-9.8 155.9-12.8 6.7-.4 13.5-.7 20.2-.9 59.3-1.9 116.8 7.4 173.5 24.8 32 9.8 63.9 23.5 90.1 44.8 8.4 6.8 43.9 37.4 40.3 50.7 4.2-15.3 6.7-23.7 6.7-23.7s20.4-62.8-37.8-117.3l-.6-.6-3-2.7c-43.8-38.6-128.5-72.2-289.8-75.4-46-.9-91.4-1.8-135.6-2.3h-1.7c-5.3-.1-10.7-.1-16-.1h-17.5C598.3 1992.1 353 2021 398 2255.4z"/><g class="st18"><linearGradient id="SVGID_20_" gradientUnits="userSpaceOnUse" x1="609.077" y1="2277.244" x2="609.077" y2="2218.028"><stop offset="0" stop-color="#de675e"/><stop offset="1" stop-color="#e37764"/></linearGradient><path class="st23" d="M609 2221.6c-4-5.4-13-5.4-13.2 4.6l-1.8-3c2 18.1 4.3 36.1 6.7 54h23.5c-3.1-14.1-6.3-28-9.8-41.9-1.3-4.9-2.7-10-5.4-13.7z"/></g><g class="st18"><linearGradient id="SVGID_21_" gradientUnits="userSpaceOnUse" x1="1178.334" y1="2277.244" x2="1178.334" y2="2203.285"><stop offset="0" stop-color="#de675e"/><stop offset="1" stop-color="#e37764"/></linearGradient><path class="st24" d="M1190.7 2211.1c-2.2-7.1-10.5-11.9-13.5-2.8l-.9-3.7c-4.2 24.1-8.1 48.4-11.7 72.7h24.1c1.3-16.9 2.3-33.7 3-50.7.3-5.3.5-10.7-1-15.5z"/></g><linearGradient id="SVGID_22_" gradientUnits="userSpaceOnUse" x1="-299.994" y1="8027.548" x2="-86.808" y2="8027.548" gradientTransform="matrix(.1744 -.8626 .9802 .1982 -6927.772 -867.596)"><stop offset="0" stop-color="#eca16b"/><stop offset=".766" stop-color="#efdb89"/></linearGradient><path class="st25" d="M1020.2 824.8c8.8 11.6 5.7 27-6.9 34.2-.4.2-.9.5-1.3.7l-43.8 22.2-.9 32c-.7 24.1 4.9 63.4-29.8 69.7-1.3.2-2.9.4-3.9-.4-.8-.6-1.1-1.5-1.4-2.4-6.9-21.4-8.6-49-22.8-67.8-7.9 3.8-16.4 6.9-24 11.1-10.2 5.6-6.7 12.5-7.5 22.8-.6 7.8-3 18.5-8.5 24.6-4.9 5.5-14.6 7.4-17.2-1-4.4-14.1-4.3-29.9-14.3-41.7-6.1-7.2-42-22.3-40.9-30.9.1-1 .8-1.8 1.6-2.5 6.8-6.7 16.6-8.1 26.6-6.7 4.6.6 29.4 11 31.8 9.4 5.4-3.5 10.7-7 16.1-10.5 9.1-5.8 10.9-9.5.2-17.1-17.2-12.2-34.9-23.8-52.1-36-1.5-1.1-3.2-2.5-2.8-4.2.2-.9 1-1.6 1.8-2.2 9.8-7.5 23.2-17.3 37.5-12.2l82 28.3 40.7-26.4c12.2-7.9 29.7-5.2 39.2 6 0 .3.3.7.6 1z"/></svg>