<svg id="body" xmlns="http://www.w3.org/2000/svg" xmlns:xlink="http://www.w3.org/1999/xlink" viewBox="0 0 1814.89 2282.08"><defs><style>.cls-1{fill:#e08963}.cls-2{fill:url(#linear-gradient)}.cls-3{fill:url(#linear-gradient-2)}.cls-4{fill:url(#linear-gradient-3)}.cls-5{fill:url(#linear-gradient-4)}.cls-6{fill:url(#linear-gradient-5)}.cls-7{opacity:.5}.cls-8{fill:url(#linear-gradient-6)}.cls-9{fill:url(#linear-gradient-7)}.cls-10{fill:url(#linear-gradient-8)}.cls-11{opacity:.7}.cls-12{fill:url(#linear-gradient-9)}.cls-13{fill:url(#linear-gradient-10)}.cls-14{fill:url(#linear-gradient-11)}.cls-15{fill:url(#linear-gradient-12)}.cls-16,.cls-17,.cls-18,.cls-19,.cls-22,.cls-23{opacity:.11}.cls-16{fill:url(#linear-gradient-13)}.cls-17{fill:url(#linear-gradient-14)}.cls-18{fill:url(#linear-gradient-15)}.cls-20{fill:url(#linear-gradient-16)}.cls-21{fill:url(#linear-gradient-17)}.cls-22{fill:url(#linear-gradient-18)}.cls-23{fill:url(#linear-gradient-19)}.cls-24{fill:url(#linear-gradient-20)}.cls-25{fill:url(#linear-gradient-21)}</style><linearGradient id="linear-gradient" x1="-7039.83" y1="14591.82" x2="-7039.83" y2="13649.31" gradientTransform="rotate(180 -3071.375 7765.645)" gradientUnits="userSpaceOnUse"><stop offset="0" stop-color="#d75056"/><stop offset="1" stop-color="#ec916c"/></linearGradient><linearGradient id="linear-gradient-2" x1="-6475.73" y1="14470.85" x2="-6475.73" y2="13885.59" gradientTransform="rotate(180 -3071.375 7765.645)" gradientUnits="userSpaceOnUse"><stop offset="0" stop-color="#eda26b"/><stop offset=".77" stop-color="#efdb8a"/></linearGradient><linearGradient id="linear-gradient-3" x1="-7605.61" y1="14470.85" x2="-7605.61" y2="13885.59" xlink:href="#linear-gradient-2"/><linearGradient id="linear-gradient-4" x1="-7046.48" y1="15128.45" x2="-7046.48" y2="14487.58" gradientTransform="rotate(180 -3071.375 7765.645)" gradientUnits="userSpaceOnUse"><stop offset="0" stop-color="#ed6f66"/><stop offset="1" stop-color="#ec916c"/></linearGradient><linearGradient id="linear-gradient-5" x1="-7046.49" y1="14866.21" x2="-7046.49" y2="15128.44" gradientTransform="rotate(180 -3071.375 7765.645)" gradientUnits="userSpaceOnUse"><stop offset=".35" stop-color="#d75056"/><stop offset="1" stop-color="#ec916c"/></linearGradient><linearGradient id="linear-gradient-6" x1="1668.59" y1="1745.22" x2="1668.59" y2="1320.84" gradientTransform="rotate(-9.2 -3175.22 7596.57)" gradientUnits="userSpaceOnUse"><stop offset="0" stop-color="#df675e"/><stop offset="1" stop-color="#e47764"/></linearGradient><linearGradient id="linear-gradient-7" x1="3875.43" y1="9841.2" x2="3875.43" y2="9531.71" gradientTransform="matrix(.05 -1 1.74 .09 -16134.59 3736.86)" xlink:href="#linear-gradient-6"/><linearGradient id="linear-gradient-8" x1="-525.67" y1="242.76" x2="-525.67" y2="-182.82" gradientTransform="matrix(.97 .23 -.23 .97 1678.06 919.03)" xlink:href="#linear-gradient-6"/><linearGradient id="linear-gradient-9" x1="-8254.68" y1="13495.25" x2="-8254.68" y2="12701.17" gradientTransform="matrix(-.99 .16 -.16 -.99 -4892.64 15686.47)" xlink:href="#linear-gradient-6"/><linearGradient id="linear-gradient-10" x1="-15927.44" y1="5521.07" x2="-15984.45" y2="5521.97" gradientTransform="matrix(-.03 .51 -1.74 -.09 10063.29 10096.23)" gradientUnits="userSpaceOnUse"><stop offset="0" stop-color="#df675e"/><stop offset=".24" stop-color="#e06b60"/></linearGradient><linearGradient id="linear-gradient-11" x1="-5258.4" y1="14903.74" x2="-5258.4" y2="14104.58" gradientTransform="matrix(-.97 -.23 .23 -.97 -7826.94 14356.99)" xlink:href="#linear-gradient-6"/><linearGradient id="linear-gradient-12" x1="-7039.48" y1="15053.21" x2="-7039.48" y2="14808.22" gradientTransform="rotate(180 -3071.375 7765.645)" gradientUnits="userSpaceOnUse"><stop offset="0" stop-color="#ec916c"/><stop offset=".65" stop-color="#d75056"/></linearGradient><linearGradient id="linear-gradient-13" x1="-6467.74" y1="16026.81" x2="-6467.74" y2="15441.55" xlink:href="#linear-gradient-2"/><linearGradient id="linear-gradient-14" x1="-7636.78" y1="16026.81" x2="-7636.78" y2="15441.55" xlink:href="#linear-gradient-2"/><linearGradient id="linear-gradient-15" x1="908.67" y1="326.02" x2="908.67" y2="-1153.12" xlink:href="#linear-gradient-4"/><linearGradient id="linear-gradient-16" x1="1202.25" y1="278.59" x2="1202.25" y2="3.17" xlink:href="#linear-gradient-6"/><linearGradient id="linear-gradient-17" x1="646.48" y1="306.59" x2="646.48" y2="3.17" xlink:href="#linear-gradient-6"/><linearGradient id="linear-gradient-18" x1="902.55" y1="3472.7" x2="902.55" y2="1993.57" xlink:href="#linear-gradient-4"/><linearGradient id="linear-gradient-19" x1="-7045.3" y1="13275.48" x2="-7045.3" y2="13537.72" xlink:href="#linear-gradient-5"/><linearGradient id="linear-gradient-20" x1="605.07" y1="2277.66" x2="605.07" y2="2218.39" xlink:href="#linear-gradient-6"/><linearGradient id="linear-gradient-21" x1="1174.85" y1="2277.66" x2="1174.85" y2="2203.63" xlink:href="#linear-gradient-6"/></defs><title>extra_panels_illo</title><path class="cls-1" d="M426.4 1282.78h-27.29l-15.28 117.08h34.11l8.46-117.08zM1369.43 1282.78h27.29l15.28 117.08h-34.11l-8.46-117.08z"/><path class="cls-2" d="M880.37 947.61c38.39 1.34 76.61-.62 115.17.19 42.93.89 86 5.75 127.63 16.36 98.52 25.09 183 85.83 220.13 182.94 13.49 35.25 20.53 72.73 23.17 110.3 4.9 69.91 11 139.73 16.1 209.63 4.9 67.13 14.44 137.58 3.49 204.47-7.65 46.7-27.21 88.28-61.15 121.39-35.44 34.58-84 52.23-131.18 64.54-75.43 19.67-150.87 25-228.48 24.51-78.18-.54-156.5-.73-234.63-6-104.49-7-233.24-18.23-292.91-118.21-31.65-53-35.79-117.61-34.45-177.88 1.47-66 3.68-132.36 9.08-198.17 8-97.3 23.89-198.81 70.74-285.78C529.37 1010 607.47 953.71 705 942c49.27-5.92 98.82-.14 148 4 9.12.78 18.25 1.29 27.37 1.61z"/><path class="cls-3" d="M383.83 1614.78s25.93-436 38.21-490c0 0 22.11-57.72-33.16-61.41s-83.51-19.65-101.93 92.11-52.81 373.35-46.67 452c0 0 3.68 34.39 40.53 36.84s100.86 5.95 103.02-29.54z"/><path class="cls-4" d="M1412 1614.78s-25.92-436-38.21-490c0 0-22.11-57.72 33.16-61.41s83.51-19.65 101.93 92.11 52.81 373.35 46.67 452c0 0-3.68 34.39-40.53 36.84s-100.86 5.95-103.02-29.54z"/><path class="cls-5" d="M395 665.44s51.58 233.34 76.14 272.64 66.32 119 228.43 103.7c97-9.14 195.17-18.48 292.61-11.37 31.27 2.28 62.24 9.32 93.44 10.78a465.88 465.88 0 0 0 77.36-2.4c54.65-6.57 112.57-25.61 146.22-71.95a150 150 0 0 0 24.08-53.33c41.76-174.39 81.06-311.94 81.06-311.94s61.41-188.43-331.59-196.15-741-15.91-687.75 260"/><path class="cls-6" d="M1083.42 505.79q10.11-.59 20.23-.92c59.37-1.85 116.93 7.44 173.62 24.84 32.06 9.83 63.93 23.51 90.14 44.83 8.37 6.81 44 37.48 40.29 50.77 4.25-15.31 6.66-23.73 6.66-23.73s61.41-188.43-331.59-196.15c-392.83-7.72-740.66-15.9-687.77 259.65-5.3-27.63 37.12-69.95 55.82-84.7 137.15-108.25 317.75-55.91 476.65-61.77 52.13-1.92 103.87-9.77 155.95-12.82z"/><path class="cls-7 cls-8" d="M591.13 632.84c7.74 68.56 18.13 136.54 31.14 203.54 12.71 65.48 25.83 135.39 46.67 197 1.12 3.31 2.13 7.07 4.17 9.52 1.66 2 4.25 2.84 6.06 1.13a7.41 7.41 0 0 0 1.75-3.18c1.35-4.37.63-9.39-.11-14q-16.09-100.42-33.14-200.45c-10.44-61.08-21.19-122.18-36.15-181.4-1.25-4.94-2.61-10.06-5.33-13.7-4-5.41-13-5.41-13.25 4.56"/><path class="cls-7 cls-9" d="M631 775.49c86.88 4.9 173.92 7.12 260.63 6.62 84.74-.49 175-.56 257.65-9.64 4.44-.49 9.4-.79 13.09-2.33 3-1.25 4.89-3.61 3.38-5.68a8.09 8.09 0 0 0-3.33-2.28c-4.93-2.11-11.34-2.31-17.3-2.43q-128.72-2.55-257.39-4.11c-78.57-.93-157.27-1.55-235.08 2.24-6.49.32-13.24.71-18.61 2.69-8 2.95-10.94 11.64 1.23 13.69"/><path class="cls-7 cls-10" d="M1174.06 614.16q-17.72 101.18-27.55 204.61c-6.37 67.26-13.6 138.82-11.38 206.78.12 3.65 0 7.66 1.22 11 1 2.72 3.14 4.88 5.28 4.26a5.13 5.13 0 0 0 2.5-2c2.46-3.32 3.18-8.34 3.78-13q12.9-101.26 24.82-202.74c7.26-62 14.23-124.15 16.81-186.84.22-5.23.37-10.68-1.13-15.49-2.24-7.15-10.51-11.91-13.49-2.84"/><path class="cls-11 cls-12" d="M1214.24 1824.72c-7.74-130.1-18.13-259.11-31.14-386.26-12.71-124.26-25.83-256.92-46.67-373.75-1.12-6.27-2.13-13.41-4.17-18.06-1.66-3.78-4.25-5.39-6.06-2.14a19.91 19.91 0 0 0-1.75 6c-1.35 8.3-.63 17.82.11 26.64q16.09 190.41 33.14 380.24c10.44 115.91 21.19 231.86 36.14 344.29 1.25 9.38 2.61 19.09 5.33 26 4 10.27 13 10.26 13.25-8.65"/><path class="cls-13" d="M1174.41 1415c-87-7-174-11.49-260.6-13.27-84.6-1.74-174.78-4-256.81 2.68-4.41.36-9.34.53-13 1.93-2.93 1.14-4.71 3.39-3.1 5.45a9 9 0 0 0 3.44 2.31c5 2.18 11.44 2.55 17.4 2.82q128.67 5.85 257.23 10.73c78.51 3 157.13 5.62 234.64 4 6.47-.14 13.18-.35 18.45-2.14 7.84-2.67 10.35-11.07-1.91-13.38"/><path class="cls-11 cls-14" d="M631.31 1860.18c11.81-128 21-257.68 27.55-388.29 6.37-127.64 13.6-263.44 11.38-392.41-.12-6.93 0-14.54-1.22-20.9-1-5.17-3.14-9.27-5.28-8.09-1 .52-1.8 2-2.5 3.8-2.46 6.3-3.18 15.82-3.78 24.73q-12.9 192.15-24.82 384.74c-7.26 117.62-14.23 235.6-16.81 354.56-.22 9.93-.37 20.27 1.13 29.39 2.24 13.57 10.51 22.6 13.49 5.38"/><path class="cls-15" d="M575.1 621.82c5.78 41.17 36.65 68.65 67.93 83 28.55 13.1 61.78 20.15 92.43 17.81A2176.53 2176.53 0 0 1 987.23 718c49.18 1.95 99.16 5.48 147-8.21 46.17-13.23 79.7-69.37 85.1-123.28 1.6-15.94-.47-32.87-8.18-46.13-29.39-50.49-107.15-53.81-153.85-57.38a1827.79 1827.79 0 0 0-211-3.39c-44.2 1.76-90.29 2.35-134.83 9.58-40.7 6.61-93.42 16.44-123 53.39-20.94 26.13-13.65 48.06-13.39 79.21"/><path class="cls-16" d="M251.87 51.45s3.68 34.39 40.53 36.84 100.87 6 103-29.47c0 0 1.28-21.55 3.41-55.65H251.72c-.78 19.64-.8 36.15.15 48.28z"/><path class="cls-17" d="M1526.62 88.29c36.84-2.46 40.53-36.84 40.53-36.84.95-12.14.93-28.65.15-48.28h-147.11c2.13 34.1 3.41 55.65 3.41 55.65 2.15 35.49 66.18 31.93 103.02 29.47z"/><path class="cls-18" d="M449.3 201.8C509 301.77 637.71 313 742.21 320c78.12 5.25 156.44 5.44 234.63 6 77.61.54 153-4.85 228.48-24.51 47.21-12.31 95.74-30 131.18-64.54 33.94-33.11 53.51-74.69 61.15-121.39 6-36.76 5.84-74.6 3.65-112.37h-195.13q11.67 131.79 19.66 265.59l-1.82-5.68c-.25 18.91-9.2 18.92-13.25 8.65-2.72-6.9-4.08-16.61-5.33-26-10.57-79.51-19-160.79-26.78-242.56h-513q-9 151.69-22.76 301.05l-.85-7.09c-3 17.22-11.25 8.19-13.49-5.38-1.51-9.12-1.35-19.47-1.13-29.39 1.88-86.84 6.12-173.16 11.08-259.19H415.35q-.26 10.38-.5 20.74c-1.34 60.26 2.8 124.84 34.45 177.87z"/><path class="cls-19 cls-20" d="M1210.77 271.72c4 10.27 13 10.26 13.25-8.65l1.82 5.68q-8-133.69-19.66-265.59h-27.51c7.75 81.77 16.21 163.05 26.78 242.56 1.24 9.39 2.6 19.11 5.32 26z"/><path class="cls-19 cls-21" d="M628.56 291.75c2.24 13.57 10.51 22.6 13.49 5.38l.85 7.09Q656.67 155 665.66 3.17h-27.15c-5 86-9.2 172.35-11.08 259.19-.22 9.93-.38 20.27 1.13 29.39z"/><path class="cls-22" d="M1375.31 2074.91c58.33 54.58 37.87 117.39 37.87 117.39s-2.41 8.43-6.66 23.73c3.69-13.29-31.92-44-40.29-50.77-26.2-21.32-58.08-35-90.14-44.83-56.69-17.4-114.26-26.69-173.63-24.84q-10.12.32-20.23.92c-52.09 3-103.83 10.9-156 12.82-158.9 5.86-339.5-46.49-476.65 61.77-18.69 14.76-61.12 57.07-55.82 84.7-45-234.64 200.53-263.54 517-262.19-316.61-1.35-562.24 27.58-516.92 262.55 0 0 1.79 8.09 4.85 21.49h197.95q-3.61-27-6.69-54.09l1.82 3c.25-10 9.2-10 13.25-4.56 2.72 3.64 4.08 8.75 5.33 13.7 3.51 13.89 6.76 27.89 9.86 42h541q5.34-36.54 11.67-72.78l.85 3.73c3-9.07 11.25-4.32 13.49 2.84 1.51 4.81 1.35 10.26 1.13 15.49-.7 16.94-1.74 33.84-3 50.72h204.35c14.25-53.09 23.47-85.36 23.47-85.36s20.48-62.85-37.86-117.43z"/><path class="cls-23" d="M393.77 2255.8c-5.3-27.63 37.12-69.94 55.82-84.7 137.15-108.25 317.75-55.91 476.65-61.77 52.18-1.92 103.92-9.77 156-12.82q10.11-.59 20.23-.92c59.37-1.85 116.94 7.44 173.63 24.84 32.06 9.83 63.93 23.51 90.14 44.83 8.37 6.81 44 37.48 40.29 50.77 4.25-15.31 6.66-23.73 6.66-23.73s20.47-62.81-37.87-117.39l-.65-.6q-1.47-1.36-3-2.71c-43.82-38.59-128.58-72.28-290.07-75.45-46-.9-91.47-1.81-135.71-2.27h-1.69l-16-.14H910.76c-316.46-1.48-561.99 27.43-516.99 262.06z"/><path class="cls-19 cls-24" d="M605 2222c-4-5.41-13-5.41-13.25 4.56l-1.82-3q3.06 27.11 6.69 54.09h23.58c-3.09-14.07-6.35-28.07-9.86-42-1.25-4.89-2.61-10.01-5.34-13.65z"/><path class="cls-19 cls-25" d="M1187.22 2211.45c-2.24-7.15-10.51-11.91-13.49-2.84l-.85-3.73q-6.35 36.23-11.67 72.78h24.15c1.26-16.87 2.3-33.77 3-50.72.21-5.23.37-10.69-1.14-15.49z"/></svg>