<svg xmlns="http://www.w3.org/2000/svg" xmlns:xlink="http://www.w3.org/1999/xlink" viewBox="0 0 200 200"><defs><style>.cls-1{fill:#b7d6ce;opacity:.5}.cls-2{fill:#f9fcf9}.cls-3{fill:url(#linear-gradient)}.cls-4{fill:url(#linear-gradient-2)}.cls-5{fill:url(#linear-gradient-3)}.cls-6{fill:url(#linear-gradient-4)}.cls-7{fill:url(#linear-gradient-5)}.cls-8{fill:url(#linear-gradient-6)}</style><linearGradient id="linear-gradient" x1="86.82" y1="178.98" x2="86.82" y2="68.46" gradientTransform="rotate(-45 80.49 101.368)" gradientUnits="userSpaceOnUse"><stop offset=".02" stop-color="#007ba5"/><stop offset="1" stop-color="#5ba9bb"/></linearGradient><linearGradient id="linear-gradient-2" x1="105.97" y1="66.15" x2="105.97" y2="45.86" xlink:href="#linear-gradient"/><linearGradient id="linear-gradient-3" x1="89.41" y1="64.92" x2="89.41" y2="50.79" xlink:href="#linear-gradient"/><linearGradient id="linear-gradient-4" x1="76.82" y1="69.07" x2="76.82" y2="56.02" xlink:href="#linear-gradient"/><linearGradient id="linear-gradient-5" x1="66.85" y1="74.69" x2="66.85" y2="64.01" xlink:href="#linear-gradient"/><linearGradient id="linear-gradient-6" x1="58.96" y1="81.92" x2="58.96" y2="71.96" xlink:href="#linear-gradient"/></defs><g id="tokens"><circle class="cls-1" cx="101.5" cy="101.5" r="97.5"/><circle class="cls-2" cx="98.5" cy="98.5" r="97.5"/></g><g id="icons"><path class="cls-3" d="M104.29 82.71c-4-7.92-9-18.87-18.09-21.93-8.65-2.91-16.84 4.28-21.45 10.59C56 83.4 50 106.21 64 116.6c10 7.46 27 11.14 34.42 19.21 6.36 6.87 11 16.26 19.83 20.48 12.16 5.83 30.66-6.65 28.63-20.56-2.84-19.4-25.17-26.21-35.68-40.35-2.9-3.85-4.76-8.38-6.91-12.67z"/><path class="cls-4" d="M73 59.2c3.42-3 3.17-8.91-.56-13.1S62.91 41 59.49 44s-3.18 9 .51 13.15 9.57 5.1 13 2.05z"/><path class="cls-5" d="M60.54 69.92c2.38-2.12 2.21-6.21-.39-9.13s-6.64-3.55-9-1.43-2.21 6.21.39 9.13 6.62 3.51 9 1.43z"/><path class="cls-6" d="M54.6 81.74c2.2-2 2-5.73-.35-8.43S48.11 70 45.91 72s-2 5.74.36 8.43 6.13 3.27 8.33 1.31z"/><path class="cls-7" d="M52.06 92.21c1.58-1.83 1-4.87-1.2-6.8s-5.33-2-6.9-.17-1 4.88 1.21 6.8 5.31 1.96 6.89.17z"/><path class="cls-8" d="M50 96.2c-2.35-1.48-5.23-1.13-6.44.79s-.29 4.67 2.06 6.15 5.23 1.12 6.44-.8.27-4.67-2.06-6.14z"/></g></svg>