<svg xmlns="http://www.w3.org/2000/svg" viewBox="0 0 200 200"><defs><style>.cls-1{fill:#b7d6ce;opacity:.5}.cls-2{fill:#f9fcf9}.cls-3{fill:url(#linear-gradient)}.cls-4{fill:url(#linear-gradient-2)}.cls-5{fill:url(#linear-gradient-3)}</style><linearGradient id="linear-gradient" x1="5887.92" y1="8361.49" x2="5887.92" y2="8232.07" gradientTransform="matrix(.45 0 0 .45 -2549.22 -3668.65)" gradientUnits="userSpaceOnUse"><stop offset="0" stop-color="#5ba9bb"/><stop offset=".98" stop-color="#007ba5"/></linearGradient><linearGradient id="linear-gradient-2" x1="99" y1="164.39" x2="99" y2="44.07" gradientUnits="userSpaceOnUse"><stop offset=".02" stop-color="#007ba5"/><stop offset="1" stop-color="#5ba9bb"/></linearGradient><linearGradient id="linear-gradient-3" x1="97.88" y1="146.95" x2="97.88" y2="61.29" gradientUnits="userSpaceOnUse"><stop offset="0" stop-color="#efa479"/><stop offset="1" stop-color="#efdb8a"/></linearGradient></defs><g id="tokens"><circle class="cls-1" cx="101.5" cy="101.5" r="97.5"/><circle class="cls-2" cx="98.5" cy="98.5" r="97.5"/></g><g id="icons"><path class="cls-3" d="M84.39 39.34c-.54 16.65-.15 30.19 0 46.55a5.43 5.43 0 0 0 .36 2.54 4.57 4.57 0 0 0 2.85 1.88 37.27 37.27 0 0 0 15.4 1.21c4-.48 9.11-.65 9.73-5.46a68.78 68.78 0 0 0 .43-7.24c.3-12.92.68-25.87-.22-38.78a6.61 6.61 0 0 0-.68-2.92c-1.87-3.2-6.66-3.15-9.87-3.36a57.57 57.57 0 0 0-12.84.47c-2.87.46-5.28 1.86-5.12 5.1"/><path class="cls-4" d="M67 56.81c-1.2 37-.34 58 0 94.41 0 1.93-.11 4 .8 5.66 1.23 2.29 3.86 3.41 6.35 4.18a82.87 82.87 0 0 0 34.12 2.68c8.89-1.06 20.25-1.44 21.64-12.13a152.93 152.93 0 0 0 1-16.09c.67-28.73 1.52-48.43-.5-77.12a14.7 14.7 0 0 0-1.52-6.49c-4.17-7.1-14.81-7-21.94-7.48a128 128 0 0 0-28.55 1.06c-6.4 1-11.76 4.11-11.4 11.32"/><path class="cls-5" d="M95.5 64.95Q88.73 82 82.07 99.15c-.51 1.31-.73 2.89-1.35 4.56 4.26-2.07 10.1-3.38 14.37-5.46-1.08 4.4-1.43 6.75-2.51 10.62-3.52 12.63-7.12 25-8.67 38.08.21-1.8 2.32-4.51 3.23-6.18q1.8-3.33 3.69-6.61c8.11-14.17 12.73-22.36 19.57-38.41.63-1.48 4.69-9.08 4.64-10.64-4.93 1.27-10.32 2.37-14.9 4.25Q105.5 75 112.2 61.29c-5 1.46-11.73 2.19-16.71 3.65"/></g></svg>