<svg xmlns="http://www.w3.org/2000/svg" xmlns:xlink="http://www.w3.org/1999/xlink" viewBox="0 0 200 200"><defs><style>.cls-1{fill:#b7d6ce;opacity:.5}.cls-2{fill:#f9fcf9}.cls-3{fill:url(#linear-gradient)}.cls-4{fill:url(#linear-gradient-2)}.cls-5{opacity:.92}.cls-6{fill:url(#linear-gradient-3)}.cls-7{fill:url(#linear-gradient-4)}.cls-8{fill:url(#linear-gradient-5)}.cls-9{fill:url(#linear-gradient-6)}.cls-10{fill:url(#linear-gradient-7)}.cls-11{fill:url(#linear-gradient-8)}</style><linearGradient id="linear-gradient" x1="34.19" y1="83.97" x2="121.12" y2="83.97" gradientUnits="userSpaceOnUse"><stop offset="0" stop-color="#efc082"/><stop offset="1" stop-color="#efdb8a"/></linearGradient><linearGradient id="linear-gradient-2" x1="80.31" y1="120.68" x2="165.81" y2="120.68" gradientUnits="userSpaceOnUse"><stop offset="0" stop-color="#3db2c4"/><stop offset="1" stop-color="#94c6c6"/></linearGradient><linearGradient id="linear-gradient-3" x1="57.78" y1="74.81" x2="97.76" y2="74.81" gradientUnits="userSpaceOnUse"><stop offset="0" stop-color="#ef9a75"/><stop offset="1" stop-color="#efa478"/></linearGradient><linearGradient id="linear-gradient-4" x1="57.78" y1="79.23" x2="102.83" y2="79.23" xlink:href="#linear-gradient-3"/><linearGradient id="linear-gradient-5" x1="104.67" y1="134.75" x2="104.67" y2="69.59" gradientUnits="userSpaceOnUse"><stop offset=".02" stop-color="#007ba5"/><stop offset="1" stop-color="#5ba9bb"/></linearGradient><linearGradient id="linear-gradient-6" x1="-514.1" y1="-810.63" x2="-512.34" y2="-810.63" gradientTransform="matrix(1.14 0 0 1.14 665.46 965.2)" xlink:href="#linear-gradient"/><linearGradient id="linear-gradient-7" x1="-507.38" y1="-803.17" x2="-504.19" y2="-803.17" gradientTransform="matrix(1.14 0 0 1.14 665.46 965.2)" xlink:href="#linear-gradient"/><linearGradient id="linear-gradient-8" x1="1120.45" y1="1552.25" x2="1123.65" y2="1552.25" gradientTransform="matrix(.82 0 0 .82 -844.49 -1231.32)" xlink:href="#linear-gradient"/></defs><g id="tokens"><circle class="cls-1" cx="101.5" cy="101.5" r="97.5"/><circle class="cls-2" cx="98.5" cy="98.5" r="97.5"/></g><g id="icons"><path class="cls-3" d="M96.48 49.53a7 7 0 0 0-.65 1.1A13.53 13.53 0 0 1 93 55.1a7.58 7.58 0 0 1-4.35 2 6.41 6.41 0 0 1-1.72-.1A12.41 12.41 0 0 1 81 54.21c-1.49-1.32-3.1-3.95-2.66-6-2.58 2-6.36 2-9.45.8a15.46 15.46 0 0 1-4-2.22c-10.2 10.31-19.7 20.79-30.7 31.37 12.32 14.6 27.55 27.84 41 43l45.92-47.68c-7.49-7.64-16.16-15.84-24.63-23.95z"/><path class="cls-4" d="M126.22 77.35c13.46 15.17 27.26 26.8 39.58 41.4-16 15.36-28.77 30.5-45.3 45.25-12.75-13-27.45-26-40.2-39"/><path class="cls-5 cls-6" d="M57.47 55.91c13.37 12.76 26.12 26.18 39.84 38.57.52.47 1.28-.3.77-.77-13.73-12.39-26.47-25.8-39.84-38.56-.5-.48-1.27.28-.77.77z"/><path class="cls-5 cls-7" d="M58.24 102.05c15.11-14.82 30.46-29.36 44.9-44.86.47-.51-.29-1.28-.77-.77-14.44 15.49-29.79 30-44.9 44.86-.5.49.27 1.25.77.77z"/><path class="cls-8" d="M71.29 123.59l8.66 8.6c1.46 1.45 3.37 3 5.34 2.42s2.68-3 3.16-5.06a58.21 58.21 0 0 1 3-9.24 3 3 0 0 1 .78-1.22 3 3 0 0 1 1.88-.45c5-.07 10.07 0 14.75-1.67a4.77 4.77 0 0 0 1.78-1 5.47 5.47 0 0 0 1.22-2.82q2.57-11.59 5.93-23a3 3 0 0 1 .54-1.18 3 3 0 0 1 1.37-.74 64.67 64.67 0 0 1 18.33-3.1L126.64 70.7a2.63 2.63 0 0 0-1.31-1.06c-.83-.2-1.61.41-2.24 1-7.65 7-15.09 15.76-22.74 22.72a318.77 318.77 0 0 0-29.07 30.26"/><path class="cls-9" d="M77.72 38c-.34.23 0 1.23.88 1.23a1 1 0 0 0 .94-.65.88.88 0 0 0-.54-1.21c-.56-.2-1.41.15-1.26.58"/><path class="cls-10" d="M85.35 47a1.74 1.74 0 0 0 2 1.58 1.93 1.93 0 0 0 .81-.41 2 2 0 0 0 .68-2A1.78 1.78 0 0 0 87 44.94a1.71 1.71 0 0 0-1.62 2.26"/><path class="cls-11" d="M71.34 37.48a1.24 1.24 0 0 0 1.45 1.13 1.38 1.38 0 0 0 .58-.3 1.42 1.42 0 0 0 .49-1.41 1.27 1.27 0 0 0-1.34-.9 1.22 1.22 0 0 0-1.16 1.62"/></g></svg>