<svg xmlns="http://www.w3.org/2000/svg" xmlns:xlink="http://www.w3.org/1999/xlink" viewBox="0 0 200 200"><defs><style>.cls-1{fill:#b7d6ce;opacity:.5}.cls-2{fill:#f9fcf9}.cls-3{fill:url(#linear-gradient)}.cls-4{fill:url(#linear-gradient-2)}.cls-5{fill:url(#linear-gradient-3)}.cls-6{fill:url(#linear-gradient-4)}.cls-7{fill:url(#linear-gradient-5)}.cls-8{fill:url(#linear-gradient-6)}.cls-9{fill:url(#linear-gradient-7)}.cls-10{fill:url(#linear-gradient-8)}</style><linearGradient id="linear-gradient" x1="96.72" y1="160.54" x2="96.72" y2="93.52" gradientUnits="userSpaceOnUse"><stop offset="0" stop-color="#5ba9bb"/><stop offset=".98" stop-color="#007ba5"/></linearGradient><linearGradient id="linear-gradient-2" x1="96.72" y1="93.52" x2="96.72" y2="57.72" gradientUnits="userSpaceOnUse"><stop offset=".02" stop-color="#007ba5"/><stop offset="1" stop-color="#2791b0"/></linearGradient><linearGradient id="linear-gradient-3" x1="54.02" y1="93.52" x2="54.02" y2="57.72" gradientUnits="userSpaceOnUse"><stop offset=".02" stop-color="#0d8bae"/><stop offset="1" stop-color="#5ba9bb"/></linearGradient><linearGradient id="linear-gradient-4" x1="96.07" y1="93.52" x2="96.07" y2="57.72" xlink:href="#linear-gradient-3"/><linearGradient id="linear-gradient-5" x1="96.72" y1="159.89" x2="96.72" y2="93.85" gradientUnits="userSpaceOnUse"><stop offset=".36" stop-color="#5ba9bb"/><stop offset=".98" stop-color="#007ba5"/></linearGradient><linearGradient id="linear-gradient-6" x1="138.45" y1="93.52" x2="138.45" y2="57.72" xlink:href="#linear-gradient-3"/><linearGradient id="linear-gradient-7" x1="65.02" y1="88.27" x2="65.02" y2="71.19" gradientUnits="userSpaceOnUse"><stop offset="0" stop-color="#efc082"/><stop offset="1" stop-color="#efdb8a"/></linearGradient><linearGradient id="linear-gradient-8" x1="75.15" y1="98.53" x2="75.15" y2="88.27" xlink:href="#linear-gradient-7"/></defs><g id="tokens"><circle class="cls-1" cx="101.5" cy="101.5" r="97.5"/><circle class="cls-2" cx="98.5" cy="98.5" r="97.5"/></g><g id="icons"><path class="cls-3" d="M33.32 93.53l62.75 67.01 64.06-67.01H33.32z"/><path class="cls-4" d="M33.32 93.53l21.35-35.81h84.76l20.7 35.81H33.32z"/><path class="cls-5" d="M54.67 57.72l20.04 35.81H33.32l21.35-35.81z"/><path class="cls-6" d="M96.72 57.72l20.05 35.81h-41.4l21.35-35.81z"/><path class="cls-7" d="M96.07 159.89L76.03 93.85h41.39l-21.35 66.04z"/><path class="cls-8" d="M138.78 57.72l20.69 35.81h-42.05l21.36-35.81z"/><path class="cls-9" d="M65.27 71.19s-1.64 6.9-7.39 8.87c0 0 6.9 2.14 7.39 8.21 0 0 2.3-7.72 6.9-8.54 0 0-6.57-2.3-6.9-8.54z"/><path class="cls-10" d="M75.29 88.27s-1 4.14-4.44 5.33c0 0 4.14 1.28 4.44 4.93 0 0 1.38-4.64 4.14-5.13.01 0-3.94-1.4-4.14-5.13z"/></g></svg>