<svg xmlns="http://www.w3.org/2000/svg" viewBox="0 0 200 200"><defs><style>.cls-1{fill:url(#linear-gradient)}</style><linearGradient id="linear-gradient" x1="40.29" y1="101.27" x2="168.43" y2="101.27" gradientUnits="userSpaceOnUse"><stop offset=".02" stop-color="#007ba5"/><stop offset="1" stop-color="#5ba9bb"/></linearGradient></defs><path class="cls-1" d="M139.84 133.61c23.16-23.15 28.59-99.3 28.59-99.3s-15.72 8.2-40.84 10.35C103.91 46.7 82 50 69.12 62.89c-19.84 19.84-24.8 48.08-13.51 68C68 111.43 119.09 83.62 119.14 83.6c-16.26 8.85-31.71 24.29-44.5 37.52-6.45 6.68-12.52 13.72-18.31 21-3.92 4.92-22.56 19.74-13.65 25.66 6.54 4.35 15.81-23.05 25.44-23.05 20.04 14.21 50.62 10 71.72-11.12z" id="icons"/></svg>