<svg xmlns="http://www.w3.org/2000/svg" xmlns:xlink="http://www.w3.org/1999/xlink" viewBox="0 0 200 200"><defs><style>.cls-1{fill:url(#linear-gradient)}.cls-2{fill:url(#linear-gradient-2)}.cls-3{fill:url(#linear-gradient-3)}</style><linearGradient id="linear-gradient" x1="140.14" y1="173.21" x2="140.14" y2="95.6" gradientUnits="userSpaceOnUse"><stop offset="0" stop-color="#5ba9bb"/><stop offset=".98" stop-color="#0d8bae"/></linearGradient><linearGradient id="linear-gradient-2" x1="56.27" y1="168.76" x2="56.27" y2="94.55" xlink:href="#linear-gradient"/><linearGradient id="linear-gradient-3" x1="58.33" y1="60.15" x2="141.75" y2="60.15" gradientUnits="userSpaceOnUse"><stop offset="0" stop-color="#007ba5"/><stop offset="1" stop-color="#028aad"/></linearGradient></defs><g id="icons"><path class="cls-1" d="M178 139.82c-1.52-3.79-4.35-7.11-6.43-10.72l-10.87-18.79c-1.92-3.33-6.35-15.51-11.13-14.67a8.51 8.51 0 0 0-2.77 1.22l-11.13 6.57c-2.2 1.3-8.93 3.71-8.85 6.88a6.51 6.51 0 0 0 .92 2.75c2.37 4.57 5.36 8.77 7.93 13.23 2.32 4 3.52 8.29 6.49 11.93-.46-.56-8.18.28-9.07.28-2.33 0-10.36 2-10.89-1.58-.26-1.7-.42-3.42-2.65-3.43a2.66 2.66 0 0 0-2 .87c-4.95 5.35-9.68 11.06-15 16.07-3.53 3.35.49 7.55 3.05 10 3.78 3.58 7.41 7.08 11 10.93a6.1 6.1 0 0 0 2.14 1.71 2.6 2.6 0 0 0 3.43-2.52c0-5.7 21.48-2.19 24.46-2.06 7.18.32 14.64 1.5 21-2.72 3.54-2.34 6.07-5.92 8.05-9.67A25.76 25.76 0 0 0 179 146a13.69 13.69 0 0 0-1-6.18z"/><path class="cls-2" d="M88.5 138.33c-3.16-1.33-8.28-.39-10.9-.36-2.18 0-19.9-.36-20.41.53l10.3-17.88c1.57 1.17 3.93 2.3 5.28.87 1-1 .61-2.7.19-4.05l-4.59-14.81c-.89-2.87-1.51-9.09-5.87-8-4.6 1.19-9.26 2.19-13.91 3.26-2.49.57-5.6 1.88-8.17 1.88a2.66 2.66 0 0 0-.73 4.9l2 1.17c-3.08 7.84-8.34 15.17-13.08 22.1-4.06 5.93-8.7 12.38-7.4 20a29.07 29.07 0 0 0 4.58 10.75c1.91 2.95 4.21 5.77 7.29 7.46 6.81 3.73 15.34 2.37 22.75 2.16 10.39-.3 20.78-.18 31.17-.17 6.74 0 4.09-8.3 4.1-12.71v-12.76a5.22 5.22 0 0 0-.39-2.44 4.21 4.21 0 0 0-2.21-1.9z"/><path class="cls-3" d="M108.3 83.51c-1.41 1.11-2.23 2.82-.49 4.14a6.67 6.67 0 0 0 2.65 1c7 1.57 14.19 4.08 21.31 4.8a3.55 3.55 0 0 0 1.91-.18 3.72 3.72 0 0 0 1.57-2.27c2.44-6.83 4.33-13.87 6.18-20.88.29-1.11.56-2.38-.08-3.34-1.76-2.64-4.41 1.47-5.55.59-5.27-9.1-10.2-18.29-15.2-27.52-5.75-10.6-18.94-16.29-30.5-11.17-6.27 2.78-9.32 9.23-12.48 14.89C72.39 53 67.14 62.54 61.07 71.43c-1.4 2.05-3.88 5.29-2.15 7.83a8.17 8.17 0 0 0 2.84 2.26l11.88 6.83c2.65 1.52 6.3 5.14 9.68 3.92a5.43 5.43 0 0 0 2.81-3 115.72 115.72 0 0 1 7.07-12.53c2.43-3.84 5.56-7.09 7.08-11.4.92 1.41 9.8 17 10 16.93a14 14 0 0 0-1.98 1.24z"/></g></svg>