<svg xmlns="http://www.w3.org/2000/svg" viewBox="0 0 200 200"><defs><style>.cls-1{fill:#b7d6ce;opacity:.5}.cls-2{fill:#f9fcf9}.cls-3{fill:url(#linear-gradient)}.cls-4{fill:url(#linear-gradient-2)}</style><linearGradient id="linear-gradient" x1="41.89" y1="106.45" x2="148.38" y2="106.45" gradientUnits="userSpaceOnUse"><stop offset="0" stop-color="#5ba9bb"/><stop offset=".98" stop-color="#007ba5"/></linearGradient><linearGradient id="linear-gradient-2" x1="98.21" y1="65.6" x2="98.21" y2="35.1" gradientUnits="userSpaceOnUse"><stop offset="0" stop-color="#efb37e"/><stop offset="1" stop-color="#efdb8a"/></linearGradient></defs><g id="tokens"><circle class="cls-1" cx="101.5" cy="101.5" r="97.5"/><circle class="cls-2" cx="98.5" cy="98.5" r="97.5"/></g><g id="icons"><path class="cls-3" d="M148.35 87.74a2.77 2.77 0 0 0-2.26-2.61 2.4 2.4 0 0 0-2.52 1.67 15.72 15.72 0 0 0-.69 3.22 6.1 6.1 0 0 1-2.05 3.44 11.73 11.73 0 0 1-1.12.69C132 72.58 105.32 67.07 85.25 71c-2.67.52-6-2.11-8.29-3.28-1.08-.54-7.24-5.86-8.64-3.85a1.67 1.67 0 0 0-.26.75 3.19 3.19 0 0 0 .23 1.38c.89 2.7 4.21 8.39 2.22 11.16-1.7 2.36-4.9 3.91-6.92 6.07a33.22 33.22 0 0 0-5.35 7.65 9.87 9.87 0 0 1-1.55 2.51c-2.09 2.16-5.55.85-8.13 1.25-5.85.91-9.33 14.42-4.07 17.8a4.24 4.24 0 0 0 1.3.48c1.91.47 3.92.57 5.86 1.13 1.59.46 4.32.73 5.66 1.66a3.44 3.44 0 0 1 .89 1.08 48.48 48.48 0 0 0 6.33 8.35c1.75 1.81 6.11 3.89 6.11 6.56 0 3.37-.2 6.74-.31 10.11-.06 1.78-1.26 5.13.4 6.44 1.48 1.18 4.51 1.36 6.24 1.31 2.56-.08 6.91-.11 9.27-1.09 1.86-.78 1.65-2.71 2.11-4.34s.47-5.59 2.2-6.29a3.7 3.7 0 0 1 1.68-.13c4.51 0 8.87.39 13.38-.14 5-.59.68 10.24 4.15 11.72a5.2 5.2 0 0 0 2.07.27h12.38a3.08 3.08 0 0 0 1.6-.29c2.5-1.49.35-7.64.36-9.89 0-2.72-1.12-5.26-.33-8 .5-1.76 1.74-2.38 3.12-3.49a36.7 36.7 0 0 0 6.66-6.92 29.33 29.33 0 0 0 5.81-17.21 27.64 27.64 0 0 0-.31-4.14 14.69 14.69 0 0 0 3.17-2.62c2.17-2.19 4.38-6 4.06-9.26zm-75.56 13.45a5.08 5.08 0 1 1 5.08-5.08 5.08 5.08 0 0 1-5.08 5.08zm43-19.08a2.65 2.65 0 0 1-3.32 1.41 38.53 38.53 0 0 0-14.3-2.66A39.65 39.65 0 0 0 88.64 82a2.55 2.55 0 1 1-1.19-5 44.46 44.46 0 0 1 10.76-1.27 43.64 43.64 0 0 1 16.2 3 2.65 2.65 0 0 1 1.41 3.38z"/><circle class="cls-4" cx="98.21" cy="50.35" r="15.25"/></g></svg>