<svg xmlns="http://www.w3.org/2000/svg" xmlns:xlink="http://www.w3.org/1999/xlink" viewBox="0 0 200 200"><defs><style>.cls-1{fill:#b7d6ce;opacity:.5}.cls-2{fill:#f9fcf9}.cls-3{fill:url(#linear-gradient)}.cls-4{fill:url(#linear-gradient-2)}.cls-5{fill:url(#linear-gradient-3)}.cls-6{fill:url(#linear-gradient-4)}.cls-7{fill:url(#linear-gradient-5)}.cls-8{fill:url(#linear-gradient-6)}.cls-9{fill:url(#linear-gradient-7)}.cls-10{fill:url(#linear-gradient-8)}</style><linearGradient id="linear-gradient" x1="-4749.55" y1="184.67" x2="-4749.84" y2="166.9" gradientTransform="matrix(-1 .02 .02 1 -4697.46 37.97)" gradientUnits="userSpaceOnUse"><stop offset="0" stop-color="#efdb8a"/><stop offset="1" stop-color="#efb27d"/></linearGradient><linearGradient id="linear-gradient-2" x1="-4833.32" y1="186.03" x2="-4833.61" y2="168.26" xlink:href="#linear-gradient"/><linearGradient id="linear-gradient-3" x1="136.35" y1="80.86" x2="152.84" y2="80.86" gradientUnits="userSpaceOnUse"><stop offset=".02" stop-color="#007ba5"/><stop offset=".28" stop-color="#0086ab"/></linearGradient><linearGradient id="linear-gradient-4" x1="-4638.83" y1="80.86" x2="-4622.74" y2="80.86" gradientTransform="matrix(-1 0 0 1 -4579.95 0)" xlink:href="#linear-gradient-3"/><linearGradient id="linear-gradient-5" x1="97.77" y1="89.19" x2="97.77" y2="51.58" gradientUnits="userSpaceOnUse"><stop offset=".04" stop-color="#007ba5"/><stop offset=".48" stop-color="#007ba5"/><stop offset="1" stop-color="#028aad"/></linearGradient><linearGradient id="linear-gradient-6" x1="98" y1="131.67" x2="98" y2="83.41" gradientUnits="userSpaceOnUse"><stop offset="0" stop-color="#5ba9bb"/><stop offset=".98" stop-color="#007ba5"/></linearGradient><linearGradient id="linear-gradient-7" x1="48.54" y1="105.06" x2="59.74" y2="105.06" gradientUnits="userSpaceOnUse"><stop offset="0" stop-color="#efb27d"/><stop offset="1" stop-color="#efdb8a"/></linearGradient><linearGradient id="linear-gradient-8" x1="136.34" y1="106.05" x2="147.46" y2="106.05" xlink:href="#linear-gradient-7"/></defs><g id="tokens"><circle class="cls-1" cx="101.5" cy="101.5" r="97.5"/><circle class="cls-2" cx="98.5" cy="98.5" r="97.5"/></g><g id="icons"><path class="cls-3" d="M63.69 127.74l-.32 9.18c-.07 2-.15 4.37-1.49 5.94-2.13 2.48-6.23 2.81-9.24 2.59-8.53-.61-7.52-9.77-6.76-15.75"/><path class="cls-4" d="M147.46 127.74l-.32 9.18c-.07 2-.15 4.37-1.49 5.94-2.13 2.48-6.23 2.81-9.24 2.59-8.53-.61-7.52-9.77-6.76-15.75"/><path class="cls-5" d="M140.07 74.62c3.11 0 6.34-.43 9.22 1a6.44 6.44 0 0 1 2.9 2.73 5.42 5.42 0 0 1 .34 4.35c-.73 1.82-2.49 2.57-4.08 3.06-4 1.22-8.14 2-12.1.73"/><path class="cls-6" d="M55.25 74.62c-3 0-6.19-.43-9 1a6.35 6.35 0 0 0-2.83 2.73 5.54 5.54 0 0 0-.33 4.35c.71 1.82 2.43 2.57 4 3.06 3.86 1.22 7.95 2 11.8.73"/><path class="cls-7" d="M60.82 86.27V66.73c0-3.09.49-6.72 0-9.77.25 1.54-2.19.88.5 1.16a33.07 33.07 0 0 0 4.83-.32c11.42-.66 22.83-.55 34.26-.44 10 .1 20-.15 30 .52.51 0 4.26 0 3.21-.34q-.2-1.34.16.31a22.81 22.81 0 0 1 .59 2.72 45.64 45.64 0 0 1 .16 9.84c-.41 6.27-1.4 12.47-1.46 18.76-.06 6.06 9.35 6.06 9.41 0 .08-8.14 1.82-16.2 1.62-24.34-.1-4.83-.21-12.83-5.36-15.16s-12.74-1.5-18.16-1.61c-6.43-.13-12.86 0-19.29-.09-14-.12-29-1.38-42.78 1-6.69 1.17-7.12 6-7.11 11.86v25.4c0 6.06 9.41 6.07 9.41 0z"/><path class="cls-8" d="M96.65 85.5l-32.09-1.89c-5.13-.3-10.55-.49-15.5 1.09-10 3.19-12.82 13.26-12.24 22.81a81 81 0 0 0 1.5 11.31c.7 3.43 1.74 7 4.29 9.4 3.49 3.27 8.78 3.45 13.57 3.45l87.1-.1a12.63 12.63 0 0 0 4.83-.64 10.73 10.73 0 0 0 3.31-2.4c8.09-7.93 8.84-19.9 7-31.09-.65-4-2.18-8.16-5.54-10.42-3.13-2.12-7.18-2.16-11-2.12-14.74.13-30.55.47-45.3.6"/><path class="cls-9" d="M55.15 99.38c-3.45-.38-6.72 1.92-6.61 5.7.07 2.37 2.1 4.27 4.3 5.15a5.59 5.59 0 0 0 4.13.25 4.49 4.49 0 0 0 2.44-2.7 7.35 7.35 0 0 0 .21-3.7 6.9 6.9 0 0 0-1.31-3.08 3.91 3.91 0 0 0-3.17-1.57"/><path class="cls-10" d="M138.95 100.92a5.43 5.43 0 0 0-2.37 6.25 6.94 6.94 0 0 0 5 4.62 4.9 4.9 0 0 0 2.86-.09 5.08 5.08 0 0 0 2.89-4 7.07 7.07 0 0 0-1.87-6 5.35 5.35 0 0 0-6.51-.78z"/></g></svg>