<svg xmlns="http://www.w3.org/2000/svg" xmlns:xlink="http://www.w3.org/1999/xlink" viewBox="0 0 200 200"><defs><style>.cls-1{fill:#b7d6ce;opacity:.5}.cls-2{fill:#f9fcf9}.cls-3{fill:url(#linear-gradient)}.cls-4{fill:url(#linear-gradient-2)}.cls-5{fill:url(#linear-gradient-3)}.cls-6{fill:url(#linear-gradient-4)}.cls-7{fill:url(#linear-gradient-5)}.cls-8{fill:url(#linear-gradient-6)}</style><linearGradient id="linear-gradient" x1="31.37" y1="91.09" x2="159.01" y2="91.09" gradientUnits="userSpaceOnUse"><stop offset="0" stop-color="#5ba9bb"/><stop offset=".98" stop-color="#007ba5"/></linearGradient><linearGradient id="linear-gradient-2" x1="66.23" y1="86.41" x2="66.23" y2="73.87" gradientUnits="userSpaceOnUse"><stop offset="0" stop-color="#efb27d"/><stop offset="1" stop-color="#efdb8a"/></linearGradient><linearGradient id="linear-gradient-3" x1="77.78" y1="84.94" x2="77.78" y2="72.32" xlink:href="#linear-gradient-2"/><linearGradient id="linear-gradient-4" x1="89.14" y1="82.61" x2="89.14" y2="69.27" xlink:href="#linear-gradient-2"/><linearGradient id="linear-gradient-5" x1="99.83" y1="81.94" x2="99.83" y2="68.07" xlink:href="#linear-gradient-2"/><linearGradient id="linear-gradient-6" x1="34.57" y1="120.61" x2="155.81" y2="120.61" gradientUnits="userSpaceOnUse"><stop offset="0" stop-color="#028aad"/><stop offset=".52" stop-color="#007ba5"/><stop offset=".96" stop-color="#007ba5"/></linearGradient></defs><g id="tokens"><circle class="cls-1" cx="101.5" cy="101.5" r="97.5"/><circle class="cls-2" cx="98.5" cy="98.5" r="97.5"/></g><g id="icons"><path class="cls-3" d="M111.84 71.23a115.15 115.15 0 0 0 2.33 16.92 3.19 3.19 0 0 0 1.23 2.26 3.07 3.07 0 0 0 1.89.18c14.47-1.82 26.17-12.15 37.52-21.31a2.88 2.88 0 0 1 1.59-.8c1.53-.07 2.06 2 2.08 3.51l.54 40.67c-22.45 1.39-45.05.6-67.55.84-5.41.06-12.2-.27-17.6 0-13.58.69-25.65-.72-39.23 0a3.7 3.7 0 0 1-2.32-.39c-1.11-.77-1-2.4-.79-3.72a39 39 0 0 1 10.8-20.3C52.2 79.33 66.4 75.61 80 72.76c11.16-2.34 20.57-3.12 31.86-1.53"/><path class="cls-4" d="M62.69 74.57q1.49 6.15 2.79 12.35c.59 2.82 4.9 1.62 4.31-1.19Q68.5 79.53 67 73.38c-.68-2.8-5-1.61-4.31 1.19z"/><path class="cls-5" d="M74.57 73q.86 6.27 2.1 12.47c.56 2.82 4.88 1.63 4.31-1.19q-1.24-6.2-2.1-12.47c-.39-2.84-4.7-1.63-4.31 1.19z"/><path class="cls-6" d="M85.78 70q1.45 6.55 2.43 13.17c.42 2.84 4.73 1.63 4.31-1.19q-1-6.63-2.43-13.17c-.62-2.81-4.93-1.65-4.31 1.19z"/><path class="cls-7" d="M96.85 68.73c.69 4.37 1.18 8.76 1.49 13.18.2 2.86 4.68 2.88 4.47 0q-.51-7.22-1.65-14.37c-.45-2.84-4.76-1.63-4.31 1.19z"/><path class="cls-8" d="M34.57 124h121.24c4.32 0 4.33-6.71 0-6.71H34.57c-4.32 0-4.33 6.71 0 6.71z"/></g></svg>