<svg xmlns="http://www.w3.org/2000/svg" viewBox="0 0 200 200"><defs><style>.cls-1{fill:#b7d6ce;opacity:.5}.cls-2{fill:#f9fcf9}.cls-3{fill:url(#linear-gradient)}</style><linearGradient id="linear-gradient" x1="96.66" y1="150.29" x2="96.66" y2="42.21" gradientUnits="userSpaceOnUse"><stop offset="0" stop-color="#5ba9bb"/><stop offset=".98" stop-color="#007ba5"/></linearGradient></defs><g id="tokens"><circle class="cls-1" cx="101.5" cy="101.5" r="97.5"/><circle class="cls-2" cx="98.5" cy="98.5" r="97.5"/></g><path class="cls-3" d="M155.7 70.29a3.59 3.59 0 0 0 .11-1.36c-.72-4.07-4.61-7.18-7.65-9.58-4.09-3.23-8-6.64-12-9.91s-8.47-6.11-13.64-7c-3.22-.55-6.81-.23-9.29 1.9-1.51 1.3-2.45 3.12-3.67 4.69a15.89 15.89 0 0 1-26.26-1.68 12 12 0 0 0-2.35-3.4c-1.48-1.22-3.55-1.34-5.47-1.39-4.27-.13-8.82-.18-12.44 2.07a54.15 54.15 0 0 0-9 7.28c-3.85 4-6.56 6.11-10.86 10.56-1.26 1.3-3.09 2-4.25 3.37a5.35 5.35 0 0 0-1.21 5.06 7.77 7.77 0 0 0 1.94 2.65l13.48 13.74a4.32 4.32 0 0 0 2.13 1.44c1.8.33 3-1.4 4.42-2.56s2.34-2.43 3.89-3.25c.91-.48.13 14.41.14 16.06q.06 8.7.07 17.39t0 17.41c0 3.89-.44 6.7-.15 10.59a5.82 5.82 0 0 0 1.78 4c3.71 3.25 9.68 1.46 14 1.45h34.83c4.56 0 9 .57 13.61.2a2 2 0 0 0 2.19-2.47c0-5-.3-10.07-.3-15.11 0-12.54-.27-25.51-.32-38.22a50.27 50.27 0 0 1 .83-11.22c-.15.24 6.4 6.07 8.1 5.61 2.4-.64 6.73-5.36 8.5-7.2 2.79-2.94 7.94-6.81 8.84-11.12z" id="icons"/></svg>