<?xml version="1.0" encoding="utf-8"?>
<!DOCTYPE svg PUBLIC "-//W3C//DTD SVG 1.1//EN" "http://www.w3.org/Graphics/SVG/1.1/DTD/svg11.dtd">
<svg version="1.1" id="Layer_1" xmlns="http://www.w3.org/2000/svg" xmlns:xlink="http://www.w3.org/1999/xlink" x="0px" y="0px"
	 width="660px" height="180px" viewBox="0 0 660 180" enable-background="new 0 0 660 180" xml:space="preserve">
<g>
	<path fill="#60676D" d="M220,20c0,11-9,20-20,20H20C9,40,0,31,0,20l0,0C0,9,9,0,20,0h180C211,0,220,9,220,20L220,20z"/>
	<path fill="#60676D" d="M220,90c0,11-9,20-20,20H20c-11,0-20-9-20-20l0,0c0-11,9-20,20-20h180C211,70,220,79,220,90L220,90z"/>
	<path fill="#60676D" d="M220,160c0,11-9,20-20,20H20c-11,0-20-9-20-20l0,0c0-11,9-20,20-20h180C211,140,220,149,220,160L220,160z"
		/>
</g>
<g>
	<path fill="#2D3339" d="M440,20c0,11-9,20-20,20H240c-11,0-20-9-20-20l0,0c0-11,9-20,20-20h180C431,0,440,9,440,20L440,20z"/>
	<path fill="#2D3339" d="M440,90c0,11-9,20-20,20H240c-11,0-20-9-20-20l0,0c0-11,9-20,20-20h180C431,70,440,79,440,90L440,90z"/>
	<path fill="#2D3339" d="M440,160c0,11-9,20-20,20H240c-11,0-20-9-20-20l0,0c0-11,9-20,20-20h180C431,140,440,149,440,160L440,160z"
		/>
</g>
<g>
	<path fill="#FFFFFF" d="M660,20c0,11-9,20-20,20H460c-11,0-20-9-20-20l0,0c0-11,9-20,20-20h180C651,0,660,9,660,20L660,20z"/>
	<path fill="#FFFFFF" d="M660,90c0,11-9,20-20,20H460c-11,0-20-9-20-20l0,0c0-11,9-20,20-20h180C651,70,660,79,660,90L660,90z"/>
	<path fill="#FFFFFF" d="M660,160c0,11-9,20-20,20H460c-11,0-20-9-20-20l0,0c0-11,9-20,20-20h180C651,140,660,149,660,160L660,160z"
		/>
</g>
</svg>
