<svg id="Layer_1" xmlns="http://www.w3.org/2000/svg" viewBox="0 0 700 295.2"><style>.st0{fill:none}.st1{fill:url(#SVGID_1_)}.st2{fill:url(#SVGID_2_)}.st3{fill:url(#SVGID_3_)}</style><title>Untitled-2</title><path class="st0" d="M79.7 273.8c.6 7.1 1 14.3 1.4 21.3h2.3c-.1-.7-.3-1.3-.6-2-1.4-6.4-2.5-12.8-3.1-19.3zM357 249.5v-.4h-1v.2c-8 0-16.5-.1-24.3-.2-1.1 15.1-2 31-3 46H384c-1.9-15-3.4-30.7-4.9-46.1-7.2.3-15.1.5-22.1.5zM624.3 293.2c-.2.6-.4 1.3-.5 1.9h2.3c.3-7 .8-14.2 1.4-21.3-.7 6.5-1.7 13-3.2 19.4z"/><linearGradient id="SVGID_1_" gradientUnits="userSpaceOnUse" x1="65" y1="2304.12" x2="65" y2="-56.68" gradientTransform="translate(0 -1122)"><stop offset="0" stop-color="#eca16b"/><stop offset=".25" stop-color="#efdb89"/></linearGradient><path class="st1" d="M90.3 229.3c0-4.6.3-9.3.6-13.9 1.3-20.4 4-40.6 6.7-60.8 2.1-15.8 4.2-51.6 5.5-67.4.6-6.8 1.1-13.6 1.7-20.3l.1-1.2c1.3-17.2 2.5-34.4 3.6-51.6.3-4.7.6-9.4 1-14h-89c3.1 32.3 6.6 66 10.4 103.7 4 40.1 15.3 86 12.4 126.2-.8 10.7-1.1 21.4-1.3 32.1-.2 11.6-.2 22 .3 33H81c-.3-7-.8-14.2-1.4-21.3.7 6.5 1.7 13 3.2 19.4.2.7.4 1.3.6 2h15c-.3-5.5-.9-10.9-1.9-16.3-2.5-16.6-6.4-32.8-6.2-49.6z"/><linearGradient id="SVGID_2_" gradientUnits="userSpaceOnUse" x1="642.2" y1="2304.12" x2="642.2" y2="-55.88" gradientTransform="translate(0 -1122)"><stop offset="0" stop-color="#eca16b"/><stop offset=".25" stop-color="#efdb89"/></linearGradient><path class="st2" d="M665.2 262c-.2-10.7-.5-21.4-1.3-32.1-2.9-40.2 8.4-86.1 12.4-126.2C680 66 683.5 32.3 686.6.1h-88.8c.3 4.6.6 9.2 1 14 1.1 17.2 2.3 34.4 3.6 51.6l.1 1.2c.5 6.8 1.1 13.6 1.7 20.3 1.4 15.8 3.5 51.6 5.5 67.4 2.7 20.2 5.4 40.4 6.7 60.8.3 4.6.5 9.3.6 13.9.2 16.8-3.7 33-6.2 49.5-1 5.4-1.7 10.8-1.9 16.3h15c.1-.7.3-1.3.5-1.9 1.4-6.4 2.5-12.9 3.2-19.4-.6 7.1-1 14.3-1.4 21.3h38.7c.4-11 .5-21.5.3-33.1z"/><linearGradient id="SVGID_3_" gradientUnits="userSpaceOnUse" x1="358.808" y1="2304.12" x2="358.808" y2="-56.32" gradientTransform="translate(0 -1122)"><stop offset="0" stop-color="#eca16b"/><stop offset=".25" stop-color="#efdb89"/></linearGradient><path class="st3" d="M584.6 223.1C591 90.5 571.5 21.6 571.5 21.6c-1.7-8.9-3.3-16.2-4.2-21.5H148.7c-7.2 63.5-20.9 116.5-15.9 157.1-.3 9.2-.2 18.5.4 28.4 2 36.6 4.7 73.5 8 109.5h187.5c.9-15 1.8-30.8 3-45.9 7.8.2 16.3.1 24.3.1v-.2h1v.4c7 0 14.9-.2 22.1-.6 1.5 15.4 3 31.1 4.9 46.1h195.4c1.2-20 2.6-40.6 4.1-60.4.6-3.6.9-7.4 1.1-11.5z"/></svg>