<svg id="Layer_1" xmlns="http://www.w3.org/2000/svg" viewBox="0 0 700 295.2"><style>.st0{fill:url(#SVGID_1_)}.st1{fill:url(#SVGID_2_)}.st2{fill:url(#SVGID_3_)}.st3{fill:url(#SVGID_4_)}.st4{fill:url(#SVGID_5_)}.st5{fill:url(#SVGID_6_)}</style><title>Untitled-2</title><linearGradient id="SVGID_1_" gradientUnits="userSpaceOnUse" x1="90.889" y1="-592.17" x2="90.889" y2="1769.47" gradientTransform="matrix(1 0 0 -1 0 295.32)"><stop offset="0" stop-color="#eca16b"/><stop offset=".25" stop-color="#efdb89"/></linearGradient><path class="st0" d="M91.4 14.4c5.9.2 7.2-7 7-14.6H83.3c1.3 4.8 2.8 9.7 6.3 13.4.4.7 1.1 1.1 1.8 1.2z"/><linearGradient id="SVGID_2_" gradientUnits="userSpaceOnUse" x1="616.298" y1="-592.17" x2="616.298" y2="1769.47" gradientTransform="matrix(1 0 0 -1 0 295.32)"><stop offset="0" stop-color="#eca16b"/><stop offset=".25" stop-color="#efdb89"/></linearGradient><path class="st1" d="M615.7 14.4c.7-.1 1.4-.5 1.8-1.1 3.5-3.7 4.9-8.6 6.3-13.4h-15.1c-.2 7.5 1.1 14.7 7 14.5z"/><linearGradient id="SVGID_3_" gradientUnits="userSpaceOnUse" x1="644.828" y1="-592.17" x2="644.828" y2="1769.47" gradientTransform="matrix(1 0 0 -1 0 295.32)"><stop offset="0" stop-color="#eca16b"/><stop offset=".25" stop-color="#efdb89"/></linearGradient><path class="st2" d="M626.1 58.3c.7 4.2 1.9 8.7 5.3 11.3s7.9 2.7 11.8 1.2c5-2.2 9.1-6.3 11.3-11.3 4.6-10.3 6.7-21.6 8.1-32.7 1.2-9.4 2-18.2 2.4-26.9h-38.7c-.3 6.7-.5 13.3-.7 19.9-.4 13-1.8 25.5.5 38.5z"/><linearGradient id="SVGID_4_" gradientUnits="userSpaceOnUse" x1="234.995" y1="-592.17" x2="234.995" y2="1769.47" gradientTransform="matrix(1 0 0 -1 0 295.32)"><stop offset="0" stop-color="#eca16b"/><stop offset=".25" stop-color="#efdb89"/></linearGradient><path class="st3" d="M141.2-.1c3.6 40.5 7.9 81.1 12.5 121.5 3.6 31.7 6.7 64.3 11.1 96.3 2.2 16.2 4.9 32.4 8 48.4 1.4 6.8 3.7 13.8 4 20.7.1 2.7-.1 5.4-.6 8.1h144.5c.2-98.7 2.4-199.9 8.1-295H141.2z"/><linearGradient id="SVGID_5_" gradientUnits="userSpaceOnUse" x1="481.77" y1="-592.17" x2="481.77" y2="1769.47" gradientTransform="matrix(1 0 0 -1 0 295.32)"><stop offset="0" stop-color="#eca16b"/><stop offset=".25" stop-color="#efdb89"/></linearGradient><path class="st4" d="M384-.1c4.9 39.8 10.9 79.5 17 119.1 3.7 24.2 7.5 48.4 10.8 72.6 2.3 16.8 4.5 34.5 7.2 51.6s7.2 34.2 9.3 51.5l-.1.2h143.2c.2-98.7 2.4-199.9 8.1-295H384z"/><linearGradient id="SVGID_6_" gradientUnits="userSpaceOnUse" x1="62.345" y1="-592.17" x2="62.345" y2="1769.47" gradientTransform="matrix(1 0 0 -1 0 295.32)"><stop offset="0" stop-color="#eca16b"/><stop offset=".25" stop-color="#efdb89"/></linearGradient><path class="st5" d="M52.8 59.5c2.2 5 6.3 9 11.3 11.3 3.8 1.6 8.5 1.4 11.8-1.2s4.5-7.1 5.3-11.3c2.3-13 .8-25.5.6-38.5-.2-6.7-.5-13.3-.8-19.9H42.3c.4 8.8 1.2 17.6 2.4 26.9 1.4 11.1 3.5 22.3 8.1 32.7z"/></svg>