<svg id="Layer_1" xmlns="http://www.w3.org/2000/svg" viewBox="0 0 700 295.2"><style>.st0{fill:url(#SVGID_1_)}.st1{fill:url(#SVGID_2_)}.st2{fill:url(#SVGID_3_)}</style><title>Untitled-2</title><linearGradient id="SVGID_1_" gradientUnits="userSpaceOnUse" x1="71.609" y1="-1183.03" x2="71.609" y2="1179.25" gradientTransform="matrix(1 0 0 -1 0 295.32)"><stop offset="0" stop-color="#eca16b"/><stop offset=".25" stop-color="#efdb89"/></linearGradient><path class="st0" d="M115.2 119c0-.7-.1-1.4-.1-2.1-.7-11.9-1.7-24.5-3.4-36.6 8-26.5 15.5-53.2 22.6-80H14c-.6 15 0 30.1 1.6 45-4.3 11-6.7 24.5-6.6 40.6.4 79.9 5 141.4 11.5 209.4h88.9c4.4-63 9.3-111.3 5.8-176.3z"/><linearGradient id="SVGID_2_" gradientUnits="userSpaceOnUse" x1="357.985" y1="-1183.03" x2="357.985" y2="1179.25" gradientTransform="matrix(1 0 0 -1 0 295.32)"><stop offset="0" stop-color="#eca16b"/><stop offset=".25" stop-color="#efdb89"/></linearGradient><path class="st1" d="M551.5 152.3h-.2c-3.3-53-6.5-103.5-2.5-152H169.3c1.8 28.9 2.1 57.9 2.2 86.9 0 16.8-1.6 40.2-3.6 61.9h-.2s-13.8 100.2-18.6 143.6c-.1.8-.2 1.6-.3 2.6h418.5c-.1-1-.2-1.2-.3-1.9-7.8-53.4-15.5-139.1-15.5-141.1z"/><linearGradient id="SVGID_3_" gradientUnits="userSpaceOnUse" x1="635.61" y1="-1183.03" x2="635.61" y2="1179.25" gradientTransform="matrix(1 0 0 -1 0 295.32)"><stop offset="0" stop-color="#eca16b"/><stop offset=".25" stop-color="#efdb89"/></linearGradient><path class="st2" d="M691.6 45.3c1.6-14.9 2.2-30 1.6-45H573c7 26.8 14.6 53.5 22.5 80-1.7 12.1-2.7 24.6-3.4 36.6 0 .7-.1 1.4-.1 2.1-3.5 65.1 1.3 113.4 5.8 176.4h88.9c6.5-68 11.1-129.5 11.5-209.4.1-16.2-2.3-29.7-6.6-40.7z"/></svg>