<svg id="Layer_1" xmlns="http://www.w3.org/2000/svg" viewBox="0 0 700 295.2"><style>.st0{fill:url(#SVGID_1_)}</style><title>Untitled-2</title><linearGradient id="SVGID_1_" gradientUnits="userSpaceOnUse" x1="326.643" y1="-2066.47" x2="326.643" y2="293.32" gradientTransform="matrix(1 0 0 -1 0 295.32)"><stop offset="0" stop-color="#eca16b"/><stop offset=".25" stop-color="#efdb89"/></linearGradient><path class="st0" d="M474.1 96.6l.2-2.1c.2-1.9.3-3.8.2-5.8 0 0 6.9-64.9-101.7-74.6l-.8-.1c-1.4-.1-2.8-.2-4.3-.3l-.6-.1-2.4-.2-.7-.1h-.3c-3.2-.2-6.4-.4-9.5-.5C245.4 7.6 232.6 24.8 215.3 2c0 0-37.1 56.2-2.5 78.8-1.5 13.9-12.9 110.1-34.1 116l17.1 5.8c-2.2-.8-5.9 32.6-5.9 34.7 1.1 23.9 15.7 42.4 40 50.6 8.3 2.8 17.3 2.6 25.6 5.8 1 .4 2 1.2 3 1.2h199.1l12.7-128.4 3.8-69.9z"/></svg>