<svg id="Layer_1" data-name="Layer 1" xmlns="http://www.w3.org/2000/svg" xmlns:xlink="http://www.w3.org/1999/xlink" viewBox="0 0 699.99 295.23"><defs><style>.cls-1{fill:url(#linear-gradient)}.cls-2{fill:url(#linear-gradient-2)}</style><linearGradient id="linear-gradient" x1="249.01" y1="593.04" x2="249.01" y2="-1771.71" gradientUnits="userSpaceOnUse"><stop offset="0" stop-color="#eca16b"/><stop offset=".25" stop-color="#efdb89"/></linearGradient><linearGradient id="linear-gradient-2" x1="500.12" y1="593.04" x2="500.12" y2="-1771.71" xlink:href="#linear-gradient"/></defs><title>Untitled-2</title><path class="cls-1" d="M320.7-.38H176.29c-.69 4.14-1.82 8.22-2.59 12.34-2.07 11.09-1.52 22.64.26 33.73 2.49 15.53 7.21 29.24 14.46 38.66 7.28 53.82 15.33 136.27 24.27 211.27h113c-2.99-89-5.16-191.3-4.99-296z"/><path class="cls-2" d="M571.46-.38H428.28c-5.4 11.64-5.41 28.27-2.56 46.07 2.49 15.53 8.21 29.24 15.46 38.66 7.28 53.82 14.5 136.27 22.84 211.27h112.39c-2.95-89-5.12-191.3-4.95-296z"/></svg>