<?xml version="1.0" encoding="utf-8"?>
<!-- Generator: Adobe Illustrator 16.0.0, SVG Export Plug-In . SVG Version: 6.00 Build 0)  -->
<!DOCTYPE svg PUBLIC "-//W3C//DTD SVG 1.1//EN" "http://www.w3.org/Graphics/SVG/1.1/DTD/svg11.dtd">
<svg version="1.1" id="Layer_1" xmlns="http://www.w3.org/2000/svg" xmlns:xlink="http://www.w3.org/1999/xlink" x="0px" y="0px"
	 width="140px" height="140px" viewBox="0 0 140 140" enable-background="new 0 0 140 140" xml:space="preserve">
<g transform="translate(70,70)">
	<path fill="#DA3949" d="M0-70c10.516,0,20.896,2.369,30.372,6.932l-7.81,16.217C15.523-50.24,7.812-52,0-52V-70z"/>
	<path fill="#E2C8A7" d="M30.372-63.068c9.475,4.563,17.8,11.202,24.356,19.423L40.655-32.421
		c-4.87-6.108-11.056-11.04-18.093-14.429L30.372-63.068z"/>
	<path fill="#AF8030" d="M54.729-43.645c6.557,8.222,11.176,17.815,13.517,28.068l-17.549,4.005
		c-1.738-7.616-5.171-14.743-10.041-20.85L54.729-43.645z"/>
	<path fill="#72906E" d="M68.245-15.577c2.34,10.252,2.34,20.901,0,31.153l-17.549-4.005c1.738-7.616,1.738-15.526,0-23.143
		L68.245-15.577z"/>
	<path fill="#AD9094" d="M68.245,15.576c-2.341,10.253-6.96,19.846-13.517,28.068L40.655,32.422
		c4.87-6.107,8.303-13.234,10.041-20.851L68.245,15.576z"/>
	<path fill="#EDC44E" d="M54.729,43.645c-6.557,8.222-14.882,14.86-24.356,19.424l-7.81-16.218
		c7.037-3.39,13.223-8.321,18.093-14.429L54.729,43.645z"/>
	<path fill="#8C62B6" d="M30.372,63.068C20.896,67.631,10.516,70,0,70V52c7.812,0,15.523-1.76,22.562-5.149L30.372,63.068z"/>
	<path fill="#6282BF" d="M0,70c-10.516,0-20.897-2.369-30.372-6.932l7.81-16.218C-15.523,50.24-7.812,52,0,52V70z"/>
	<path fill="#1D978C" d="M-30.372,63.068c-9.475-4.563-17.799-11.202-24.356-19.424l14.073-11.223
		c4.871,6.107,11.055,11.039,18.093,14.429L-30.372,63.068z"/>
	<path fill="#EF8031" d="M-54.728,43.645c-6.557-8.223-11.177-17.815-13.517-28.068l17.549-4.005
		c1.738,7.616,5.17,14.743,10.041,20.851L-54.728,43.645z"/>
	<path fill="#D3605B" d="M-68.245,15.576c-2.34-10.252-2.34-20.9,0-31.153l17.549,4.005c-1.738,7.616-1.738,15.526,0,23.143
		L-68.245,15.576z"/>
	<path fill="#E3CC6F" d="M-68.245-15.577c2.34-10.252,6.96-19.846,13.517-28.068l14.073,11.223
		c-4.871,6.107-8.303,13.234-10.041,20.85L-68.245-15.577z"/>
	<path fill="#1C9689" d="M-54.728-43.645c6.557-8.222,14.881-14.86,24.356-19.423l7.81,16.217
		c-7.038,3.39-13.223,8.321-18.093,14.429L-54.728-43.645z"/>
	<path fill="#6383C0" d="M-30.372-63.068C-20.897-67.631-10.516-70,0-70v18c-7.812,0-15.523,1.76-22.562,5.149L-30.372-63.068z"/>
</g>
</svg>
