<?xml version="1.0" encoding="utf-8"?>
<!-- Generator: Adobe Illustrator 16.0.1, SVG Export Plug-In . SVG Version: 6.00 Build 0)  -->
<!DOCTYPE svg PUBLIC "-//W3C//DTD SVG 1.1//EN" "http://www.w3.org/Graphics/SVG/1.1/DTD/svg11.dtd">
<svg version="1.1" id="Layer_1" xmlns="http://www.w3.org/2000/svg" xmlns:xlink="http://www.w3.org/1999/xlink" x="0px" y="0px"
	 width="49.667px" height="49.666px" viewBox="0 0 49.667 49.666" enable-background="new 0 0 49.667 49.666" xml:space="preserve">
<circle fill="none" stroke="#FFFFFF" stroke-width="1.25" stroke-miterlimit="10" cx="24.833" cy="24.833" r="24.208"/>
<path id="XMLID_47_" fill="#FFFFFF" d="M37.811,18.278c-0.911,0.398-1.889,0.666-2.917,0.786c1.05-0.618,1.853-1.598,2.234-2.767
	c-0.981,0.575-2.069,0.991-3.227,1.215c-0.925-0.972-2.245-1.579-3.706-1.579c-2.804,0-5.078,2.239-5.078,4.999
	c0,0.393,0.045,0.772,0.13,1.14c-4.22-0.209-7.963-2.2-10.467-5.223c-0.437,0.738-0.689,1.596-0.689,2.513
	c0,1.733,0.899,3.263,2.26,4.16c-0.832-0.026-1.616-0.251-2.301-0.625c0,0.021,0,0.042,0,0.062c0,0.64,0.125,1.25,0.348,1.812
	c0.62,1.568,2.017,2.751,3.727,3.091c-0.427,0.113-0.875,0.176-1.339,0.176c-0.327,0-0.644-0.031-0.955-0.091
	c0.647,1.986,2.522,3.432,4.744,3.472c-1.739,1.342-3.927,2.141-6.308,2.141c-0.411,0-0.814-0.024-1.213-0.07
	c2.25,1.418,4.92,2.246,7.786,2.246c7.939,0,12.818-5.499,14.105-11.206c0.228-1.008,0.345-2.024,0.345-3.018
	c0-0.215-0.004-0.432-0.014-0.646C36.27,20.161,37.131,19.28,37.811,18.278z"/>
</svg>
