<svg id="Layer_1" xmlns="http://www.w3.org/2000/svg" viewBox="0 0 700 295.2"><style>.st0{fill:url(#SVGID_1_)}.st1{fill:url(#SVGID_2_)}</style><title>Untitled-2</title><linearGradient id="SVGID_1_" gradientUnits="userSpaceOnUse" x1="248.605" y1="-1.87" x2="248.605" y2="2361.05" gradientTransform="matrix(1 0 0 -1 0 295.32)"><stop offset="0" stop-color="#eca16b"/><stop offset=".25" stop-color="#efdb89"/></linearGradient><path class="st0" d="M212.7.4c4.9 40.4 10 78.2 15.4 107.3 9.3 49.8 20 99.3 30.8 148.7.3 1.5.6 3.2-.5 4.2-.8.6-1.7 1-2.7 1.1-17.8 3.2-35.7 6-53.2 10.6-16.6 4.3-33 11.1-45.3 23.1h182.6c-1.1-16-8.9-134.2-14.3-295H212.7z"/><linearGradient id="SVGID_2_" gradientUnits="userSpaceOnUse" x1="499.37" y1="-1.87" x2="499.37" y2="2361.05" gradientTransform="matrix(1 0 0 -1 0 295.32)"><stop offset="0" stop-color="#eca16b"/><stop offset=".25" stop-color="#efdb89"/></linearGradient><path class="st1" d="M464.1.4c4.5 40.4 9.4 78.2 14.8 107.3 9.3 49.8 20 99.3 30.8 148.7.3 1.5.6 3.2-.5 4.2-.8.6-1.7 1-2.7 1.1-17.8 3.2-35.7 6-53.2 10.6-16.6 4.3-33 11.1-45.3 23.1h182.6c-1.1-16-8.9-134.2-14.3-295H464.1z"/></svg>