<svg id="Layer_1" data-name="Layer 1" xmlns="http://www.w3.org/2000/svg" viewBox="0 0 699.99 295.23"><defs><style>.cls-1{fill:url(#linear-gradient)}</style><linearGradient id="linear-gradient" x1="353.59" y1="1775.04" x2="353.59" y2="-589.08" gradientUnits="userSpaceOnUse"><stop offset="0" stop-color="#eca16b"/><stop offset=".25" stop-color="#efdb89"/></linearGradient></defs><title>Untitled-2</title><path class="cls-1" d="M667.6 68.59c-2.44-23.06-5.15-46.13-8.74-69H48.31c-3.59 22.92-6.3 46-8.74 69C35.75 104.68 32.6 141 27.81 177 22.58 216.31 15.29 255.54 14 295.54h120.3c8-31 15.4-61.15 22.17-91.86 4.73 24.78 9.35 49.53 11.53 74.88.48 5.63.89 11 1.25 17h379.66a401.46 401.46 0 0 1 6.79-47.61c.8-3.83 1.61-7.65 2.42-11.58 4.65 19.77 9.58 39.19 14.74 59.19H693.2c-1.31-40-8.61-79.23-13.84-118.56-4.79-36-7.94-72.32-11.76-108.41z"/></svg>