<svg id="body" xmlns="http://www.w3.org/2000/svg" xmlns:xlink="http://www.w3.org/1999/xlink" viewBox="0 0 697.43 2361.64"><defs><style>.cls-1{fill:url(#linear-gradient)}.cls-2{fill:url(#linear-gradient-2)}</style><linearGradient id="linear-gradient" x1="347.59" y1="2361.64" x2="347.59" gradientUnits="userSpaceOnUse"><stop offset="0" stop-color="#eda26b"/><stop offset=".25" stop-color="#efdb8a"/></linearGradient><linearGradient id="linear-gradient-2" x1="545.53" y1="1035.7" x2="545.53" y2="1035.63" xlink:href="#linear-gradient"/></defs><title>fullsize_man</title><path class="cls-1" d="M692.17 969.54c.08-16.07-2.31-29.52-6.55-40.54 6.17-54.42-5-109.31-12.26-163.71-4.79-36-7.94-72.15-11.76-108.24s-8.29-72.22-15.79-107.78c-5.6-26.55-12.78-52.85-22.88-78.06-7.14-17.81-15.11-35.74-25.77-51.68-8.07-12.07-17.68-23-29.63-31.86a90.12 90.12 0 0 0-50.1-18.14l-.11-.08L445.8 364l5.46-66.07 13.14-133.24 3.68-70.11.17-2.07a38.2 38.2 0 0 0 .24-5.76s6.86-64.89-101.7-74.62l-.76-.07q-2.12-.18-4.29-.34l-.65-.05-2.43-.16-.74-.05h-.27q-4.83-.3-9.45-.51C239.38 5.6 226.55 22.82 209.31 0c0 0-37.11 56.25-2.48 78.82-1.54 13.94-12.91 110.12-34.11 116l17.15 5.83c-2.22-.76-5.95 32.58-5.85 34.72 1.08 23.89 15.71 42.36 40 50.58 8.32 2.82 17.31 2.72 25.57 5.93 21.78 8.47 26.61 32.85 26 52.47-.19 6.36-.37 12.23-.55 17.66l-97.2 7.41-.11.08a90.12 90.12 0 0 0-50.1 18.14c-12 8.87-21.56 19.79-29.63 31.86-10.66 15.94-18.63 33.87-25.77 51.68-10.09 25.24-17.23 51.54-22.87 78.09-7.5 35.56-12 71.67-15.79 107.78s-7 72.26-11.75 108.24C14.58 819.69 3.39 874.58 9.55 929 5.31 940 2.92 953.48 3 969.54c.62 117.91 10.33 195.89 21.93 313.14 4 40.12 15.29 86 12.37 126.19-.78 10.69-1.12 21.43-1.3 32.14-.36 21 0 39.1 2.69 59.92 1.45 11.14 3.55 22.35 8.11 32.7a22.25 22.25 0 0 0 11.29 11.28c3.83 1.55 8.52 1.39 11.77-1.16s4.53-7.11 5.26-11.29c2.27-13 .8-25.51.56-38.52-.25-13.74-.9-27.47-2-41.17a161.35 161.35 0 0 0 3.16 19.38c1.48 5.36 2.86 11.11 6.76 15.29a2.83 2.83 0 0 0 1.85 1.1c11.08.32 5.88-25.06 5-30.78-2.46-16.51-6.36-32.77-6.19-49.55 0-4.63.28-9.26.58-13.89 1.3-20.35 4-40.58 6.67-60.79 2.08-15.77 4.16-51.55 5.54-67.4q.95-10.13 1.67-20.33l.09-1.24q1.9-25.79 3.62-51.59c4.63-69.68 10.47-120.5 6.72-190.36q-.06-1-.12-2.08c-.71-11.95-1.71-24.44-3.37-36.57q25.66-85.09 44.8-172c4.73 24.78 9.35 49.45 11.53 74.8 3 34.61 3.41 69.38 3.43 104.1 0 16.75-1.65 40.22-3.59 61.92h-.24s-13.8 100.12-18.58 143.6c-7.12 64.66-21.3 118.57-16.16 159.72-.27 9.22-.16 18.57.38 28.49 4.13 77.19 11.83 154.11 20.47 230.91 3.57 31.73 6.7 64.33 11.13 96.27 2.25 16.2 4.85 32.35 8 48.4 1.35 6.77 3.68 13.82 4 20.74s-1.9 13.65-3.17 20.42c-2.07 11.09-1.52 22.64.26 33.73 2.49 15.53 7.21 29 14.46 38.47 11.26 83.22 24.36 236.2 39.71 318.76 9.26 49.78 20 99.26 30.84 148.72.32 1.45.57 3.16-.45 4.24a4.65 4.65 0 0 1-2.69 1.1c-17.79 3.16-35.71 5.93-53.22 10.48s-34.63 11.89-47.16 24.79h184.58s-37.41-535.54-8.24-933.44q11.75.25 24.37.26h.38c7.7 0 15.13-.17 22.32-.48 5.45 55.28 13.67 110.27 22.16 165.17 3.74 24.19 7.52 48.37 10.84 72.62 2.31 16.83 4.5 34.48 7.18 51.56s7.21 34.19 9.29 51.49c-5.49 11.65-5.51 28.36-2.64 46.26 2.49 15.53 8.21 29 15.46 38.47 11.26 83.22 22.36 236.2 37.71 318.76 9.26 49.78 20 99.26 30.84 148.72.32 1.45.57 3.16-.45 4.24a4.65 4.65 0 0 1-2.69 1.1c-17.79 3.16-35.71 5.93-53.21 10.48s-34.63 11.89-47.16 24.79h184.58s-38.33-548.75-7.14-948q.63-5.48.93-11.63c6.41-132.64-13.13-201.48-13.13-201.48-1.94-10.1-3.74-18.23-4.53-23.58-7.79-53.39-15.42-138.48-15.43-141.24h-.18c-4.44-69.89-8.7-136.92 4.36-199.47q1.2-5.75 2.42-11.66Q568.66 894.82 589.5 964c-1.66 12.14-2.67 24.63-3.37 36.57q-.06 1-.12 2.08c-3.75 69.86 2.09 120.69 6.72 190.36q1.71 25.8 3.62 51.59l.09 1.24q.76 10.17 1.66 20.34c1.39 15.85 3.46 51.63 5.54 67.4 2.67 20.21 5.37 40.44 6.67 60.79.3 4.63.53 9.26.58 13.89.17 16.78-3.73 33-6.19 49.55-.85 5.71-6 31.1 5 30.78a2.83 2.83 0 0 0 1.85-1.1c3.9-4.19 5.29-9.93 6.76-15.29a161.45 161.45 0 0 0 3.16-19.38c-1.12 13.7-1.76 27.43-2 41.17-.24 13-1.7 25.54.56 38.52.73 4.19 1.92 8.66 5.26 11.29s7.94 2.71 11.77 1.16a22.25 22.25 0 0 0 11.29-11.28c4.56-10.35 6.67-21.56 8.11-32.7 2.7-20.82 3-39 2.69-59.92-.18-10.71-.52-21.45-1.3-32.14-2.92-40.16 8.39-86.07 12.37-126.19 11.62-117.3 21.33-195.28 21.95-313.19z"/><path class="cls-2" d="M545.52 1035.7c.01-.1 0-.09 0 0z"/></svg>