<svg xmlns="http://www.w3.org/2000/svg" viewBox="0 0 200 200"><defs><style>.cls-1{fill:#b7d6ce;opacity:.5}.cls-2{fill:#f9fcf9}.cls-3{fill:url(#linear-gradient)}.cls-4{fill:none;stroke:#efdb8a;stroke-miterlimit:10;stroke-width:2.75px}</style><linearGradient id="linear-gradient" x1="78.14" y1="100" x2="121.86" y2="100" gradientUnits="userSpaceOnUse"><stop offset=".02" stop-color="#007ba5"/><stop offset="1" stop-color="#5ba9bb"/></linearGradient></defs><g id="tokens"><circle class="cls-1" cx="101.5" cy="101.5" r="97.5"/><circle class="cls-2" cx="98.5" cy="98.5" r="97.5"/></g><g id="icons"><path class="cls-3" d="M78.14 35.51v129h43.72v-129zm31.4 18.6a5.8 5.8 0 1 1 5.8-5.8 5.8 5.8 0 0 1-5.8 5.8z"/><path class="cls-4" d="M78.14 45.89h8.57M78.14 55.55h8.57M78.14 65.22h17.39M78.14 74.88h8.57M78.14 84.54h8.57M78.14 94.2h17.39M78.14 103.86h8.57M78.14 113.53h8.57M78.14 123.19h17.39M78.14 132.85h8.57M78.14 142.51h8.57M78.14 152.18h17.39"/></g></svg>