<svg xmlns="http://www.w3.org/2000/svg" xmlns:xlink="http://www.w3.org/1999/xlink" viewBox="0 0 200 200"><defs><style>.cls-1{fill:#b7d6ce;opacity:.5}.cls-2{fill:#f9fcf9}.cls-3{fill:url(#linear-gradient)}.cls-4{fill:url(#linear-gradient-2)}</style><linearGradient id="linear-gradient" x1="85.93" y1="127.66" x2="143.64" y2="69.95" gradientUnits="userSpaceOnUse"><stop offset=".02" stop-color="#007ba5"/><stop offset="1" stop-color="#5ba9bb"/></linearGradient><linearGradient id="linear-gradient-2" x1="54.2" y1="127.81" x2="112.23" y2="69.79" xlink:href="#linear-gradient"/></defs><g id="tokens"><circle class="cls-1" cx="101.5" cy="101.5" r="97.5"/><circle class="cls-2" cx="98.5" cy="98.5" r="97.5"/></g><g id="icons"><path class="cls-3" d="M150 109.31a20.16 20.16 0 0 0-8.38-16.37 16.74 16.74 0 0 0-12.31-25.26l.15-1.43c.73-6.82-1.37-14-7.86-17.32a15.92 15.92 0 0 0-13.1-.68c-4.38 1.83-6.78 5.83-7.2 10.45a96.69 96.69 0 0 0 .06 10.48c.07 3.66 0 7.33 0 11V135.8s-.75 13.06 9.4 13.06 10.65-8 10.65-8v-.3a13.43 13.43 0 0 0 16.92-13A20.19 20.19 0 0 0 150 109.31z"/><path class="cls-4" d="M48 109.31a20.16 20.16 0 0 1 8.38-16.37 16.74 16.74 0 0 1 12.27-25.27l-.15-1.43c-.73-6.82 1.37-14 7.86-17.32a15.92 15.92 0 0 1 13.1-.68c4.38 1.83 6.78 5.83 7.2 10.45a96.69 96.69 0 0 1-.06 10.48c-.07 3.66 0 7.33 0 11v55.63s.75 13.06-9.4 13.06-10.65-8-10.65-8v-.3a13.43 13.43 0 0 1-16.92-13A20.19 20.19 0 0 1 48 109.31z"/></g></svg>