<svg xmlns="http://www.w3.org/2000/svg" xmlns:xlink="http://www.w3.org/1999/xlink" viewBox="0 0 200 200"><defs><style>.cls-1{fill:#b7d6ce;opacity:.5}.cls-2{fill:#f9fcf9}.cls-3{fill:url(#linear-gradient)}.cls-4{fill:url(#linear-gradient-2)}.cls-5{fill:url(#linear-gradient-3)}.cls-6{fill:url(#linear-gradient-4)}</style><linearGradient id="linear-gradient" x1="62.26" y1="55.4" x2="96.41" y2="55.4" gradientUnits="userSpaceOnUse"><stop offset="0" stop-color="#ef9c76"/><stop offset="1" stop-color="#efdb8a"/></linearGradient><linearGradient id="linear-gradient-2" x1="86.24" y1="155.17" x2="86.24" y2="64.68" gradientUnits="userSpaceOnUse"><stop offset=".02" stop-color="#007ba5"/><stop offset="1" stop-color="#5ba9bb"/></linearGradient><linearGradient id="linear-gradient-3" x1="95.47" y1="60.52" x2="136.62" y2="60.52" gradientUnits="userSpaceOnUse"><stop offset="0" stop-color="#efdb8a"/><stop offset="1" stop-color="#ef9c76"/></linearGradient><linearGradient id="linear-gradient-4" x1="134.48" y1="97.71" x2="144.58" y2="69.95" xlink:href="#linear-gradient-3"/></defs><g id="tokens"><circle class="cls-1" cx="101.5" cy="101.5" r="97.5"/><circle class="cls-2" cx="98.5" cy="98.5" r="97.5"/></g><g id="icons"><path class="cls-3" d="M90.67 66c-.1-.41-.41-6.26-.41-6.26l6.15-.51v-14.4H77.64L77 49.55l-14.77 1v4.2l15 .57S77 59 77.44 59s6.26.41 6.26.41L83.49 66z"/><path class="cls-4" d="M121.94 97.32a49.41 49.41 0 0 0-12.62-15.18 37.74 37.74 0 0 0-10-6.27c-.13-3.59-.77-7.9-.92-11.19-8.49.81-16.15 0-24.7.71a77.19 77.19 0 0 1-.7 11.84 36.12 36.12 0 0 0-16.52 8.69c-7.39 7.13-10.43 17.75-11 28-.53 9.65 1.1 19.89 7.14 27.44 6.56 8.2 17.27 12 27.69 13.27 8.65 1.09 17.71.72 25.65-2.87a36.63 36.63 0 0 0 19.69-23.63 42.75 42.75 0 0 0-3.71-30.81z"/><path class="cls-5" d="M95.69 52.35c14.51-2.18 33.29 3.91 40.13 17.87.43.88 1.74.11 1.31-.77-7.13-14.6-26.69-20.84-41.84-18.56-1 .14-.55 1.61.4 1.47z"/><path class="cls-6" d="M142 69.28c-4.29-.67-8.52.9-12.08 3.35-7.62 5.26-7 17.09 0 22.6 4.84 3.83 12.52 4.66 17.89 1.47 6.37-3.79 8.52-12.69 5.32-19.22a15.41 15.41 0 0 0-9.72-7.91 12.79 12.79 0 0 0-1.41-.29z"/></g></svg>