<svg xmlns="http://www.w3.org/2000/svg" viewBox="0 0 200 200"><defs><style>.cls-1{fill:#b7d6ce;opacity:.5}.cls-2{fill:#f9fcf9}.cls-3{fill:url(#linear-gradient)}.cls-4{fill:none;stroke:#efdb8a;stroke-miterlimit:10;stroke-width:2.75px}</style><linearGradient id="linear-gradient" x1="78.14" y1="100" x2="121.86" y2="100" gradientTransform="rotate(90 100 100)" gradientUnits="userSpaceOnUse"><stop offset=".02" stop-color="#007ba5"/><stop offset="1" stop-color="#5ba9bb"/></linearGradient></defs><g id="tokens"><circle class="cls-1" cx="101.5" cy="101.5" r="97.5"/><circle class="cls-2" cx="98.5" cy="98.5" r="97.5"/></g><g id="icons"><path class="cls-3" d="M164.49 78.14h-129v43.72h129zm-18.6 31.4a5.8 5.8 0 1 1 5.8 5.8 5.8 5.8 0 0 1-5.8-5.8z"/><path class="cls-4" d="M154.11 78.14v8.57M144.45 78.14v8.57M134.78 78.14v17.39M125.12 78.14v8.57M115.46 78.14v8.57M105.8 78.14v17.39M96.14 78.14v8.57M86.47 78.14v8.57M76.81 78.14v17.39M67.15 78.14v8.57M57.49 78.14v8.57M47.83 78.14v17.39"/></g></svg>