<svg xmlns="http://www.w3.org/2000/svg" viewBox="0 0 200 200"><defs><style>.cls-1{fill:#b7d6ce;opacity:.5}.cls-2{fill:#f9fcf9}.cls-3{fill:url(#linear-gradient)}.cls-4{opacity:.9;fill:url(#linear-gradient-2)}.cls-5{fill:url(#linear-gradient-3)}</style><linearGradient id="linear-gradient" x1="88.48" y1="37.09" x2="109.02" y2="37.09" gradientTransform="rotate(24.5 98.317 100.146)" gradientUnits="userSpaceOnUse"><stop offset="0" stop-color="#efdb8a"/><stop offset="1" stop-color="#ef9c76"/></linearGradient><linearGradient id="linear-gradient-2" x1="98.54" y1="158.51" x2="98.54" y2="37.35" gradientTransform="rotate(24.5 98.317 100.146)" gradientUnits="userSpaceOnUse"><stop offset=".02" stop-color="#007ba5"/><stop offset="1" stop-color="#5ba9bb"/></linearGradient><linearGradient id="linear-gradient-3" x1="115.83" y1="153.98" x2="83.24" y2="83.78" gradientTransform="rotate(24.5 98.317 100.146)" gradientUnits="userSpaceOnUse"><stop offset="0" stop-color="#ef9c76"/><stop offset="1" stop-color="#efdb8a"/></linearGradient></defs><g id="tokens"><circle class="cls-1" cx="101.5" cy="101.5" r="97.5"/><circle class="cls-2" cx="98.5" cy="98.5" r="97.5"/></g><g id="icons"><path class="cls-3" d="M118.88 31.42l-1.76 16.68 8.95 4.15 11.45-12.19-5.14-2.38a52.35 52.35 0 0 1-2.45 4.72c-.11-.18 1.5-5.16 1.5-5.16z"/><path class="cls-4" d="M75.85 82.21c-3.71 7.56-7.45 15.11-11 22.75L66 102.4l-2.67 5.74-4.73 10.19-6.68 14.4-.16.33c-4.15 8.94 2 10.69 2 10.69l38.3 17.78c8.26 3.83 10.39-4.37 10.39-4.37l3.39-7.3 8.16-17.59 4.11-8.85 3-6.4c2.8-6 5.92-12.1 8.31-18.38 2.23-5.88 5-11.79 4.36-18.26a18.39 18.39 0 0 0-3-8.61c-1.3-1.9-5.7-4.29-5.78-6.64 0-1.33 1.61-3.72 2.13-5 .69-1.65 1.21-3.48 2.55-4.74 1.77-1.67 3.52-.15 5.49-.85a4 4 0 0 0 2.29-1.84 3.81 3.81 0 0 0-2-4.6L115.8 39s-4.1-2.19-5.76 1.38a3.6 3.6 0 0 0 0 3.29c.61 1.12 1.77 1.3 2.56 2.17a2.2 2.2 0 0 1 .41 1.59c-.17 3.46-2 6.94-3.83 9.82-.3.48-.63.94-1.26.8-7.7-1.73-15.86-.39-21.71 5.17a25.57 25.57 0 0 0-4.63 6.3c-2.28 4.1-3.69 8.54-5.73 12.69z"/><path class="cls-5" d="M82.63 78.75Q70.17 105.6 57.7 132.43s-2.81 5.26 1.77 7.39l34.07 15.82s4.14 2.69 7.15-4.21 23.65-50.93 23.82-51.3c3-6.4-1.9-11.25-7.8-12.5-9.77-2.05-19.56 7.54-28.89 3.17a10.94 10.94 0 0 1-5.27-4.86 7.7 7.7 0 0 1 .08-7.19z"/></g></svg>