<svg xmlns="http://www.w3.org/2000/svg" xmlns:xlink="http://www.w3.org/1999/xlink" viewBox="0 0 200 200"><defs><style>.cls-1{fill:url(#linear-gradient)}.cls-2{fill:url(#linear-gradient-2)}.cls-3{fill:url(#linear-gradient-3)}.cls-4{fill:url(#linear-gradient-4)}</style><linearGradient id="linear-gradient" x1="70.99" y1="55.46" x2="122.2" y2="55.46" gradientUnits="userSpaceOnUse"><stop offset=".02" stop-color="#007ba5"/><stop offset="1" stop-color="#5ba9bb"/></linearGradient><linearGradient id="linear-gradient-2" x1="28.06" y1="72.64" x2="61.35" y2="72.64" xlink:href="#linear-gradient"/><linearGradient id="linear-gradient-3" x1="-4718.93" y1="1056.35" x2="-4718.93" y2="912.28" gradientTransform="matrix(.71 -.71 .71 .71 2733.47 -3919.69)" xlink:href="#linear-gradient"/><linearGradient id="linear-gradient-4" x1="-4671.67" y1="1052.24" x2="-4654.36" y2="1052.24" gradientTransform="matrix(.71 -.71 .71 .71 2733.47 -3919.69)" xlink:href="#linear-gradient"/></defs><g id="icons"><path class="cls-1" d="M73.72 53.4c8.38-10.26 21.8-19.77 35.26-12 11 6.35 11.38 21.87 6.39 32.19-1.76 3.65 3.69 6.87 5.47 3.19 6.24-12.9 5.65-31.48-7.4-40.07-6.74-4.43-15.5-5.24-23.2-3.25-8.8 2.27-15.4 8.58-21 15.43-2.56 3.13 1.9 7.63 4.48 4.48z"/><path class="cls-2" d="M63.88 60.69C63.1 53.23 60.79 43.57 53.35 40c-7.59-3.71-16.18 2-20.6 8-11.64 15.74-8.12 40.29-.37 56.82 1.73 3.69 7.19.48 5.47-3.19-5.9-12.59-7.94-27.57-4.12-41.08 1.74-6.17 5.8-13.5 12.61-15.09 8.12-1.89 10.61 9.31 11.23 15.21.42 4 6.76 4.05 6.33 0z"/><path class="cls-3" d="M18 119.6l67 41.77 8.4-15.07 88-20-.6-6.27-71.19-1s21.81-39.44 21.36-39-66.4-40.68-66.4-40.68z"/><path class="cls-4" d="M177.95 131.53l-4.48-18.8 5.07-5.07 4.93 26.41-5.52-2.54z"/></g></svg>