<svg xmlns="http://www.w3.org/2000/svg" xmlns:xlink="http://www.w3.org/1999/xlink" viewBox="0 0 200 200"><defs><style>.cls-1{fill:url(#linear-gradient)}.cls-2{fill:url(#linear-gradient-2)}.cls-3{fill:url(#linear-gradient-3)}</style><linearGradient id="linear-gradient" x1="1415.52" y1="-1098.37" x2="1415.52" y2="-1134.06" gradientTransform="rotate(-32.9 2760.847 1808.14)" gradientUnits="userSpaceOnUse"><stop offset=".02" stop-color="#007ba5"/><stop offset="1" stop-color="#5ba9bb"/></linearGradient><linearGradient id="linear-gradient-2" x1="-679.36" y1="540.56" x2="-679.36" y2="478.34" gradientTransform="matrix(.62 -.78 .78 .62 82.12 -801.27)" xlink:href="#linear-gradient"/><linearGradient id="linear-gradient-3" x1="123.24" y1="173.69" x2="123.24" y2="33.87" gradientTransform="rotate(-45 143.158 117.27)" gradientUnits="userSpaceOnUse"><stop offset="0" stop-color="#ef9c76"/><stop offset="1" stop-color="#efdb8a"/></linearGradient></defs><g id="icons"><path class="cls-1" d="M68.35 83.19c-7.29.14-12.36 1-19.88-.86s-17.61-6.87-23.12-13.76c6-4.67 14.47-5.41 22.73-3.12s16.29 7.43 23.43 13.7"/><path class="cls-2" d="M72.82 79.85C52.2 62.67 41.45 35.45 47.07 14.66a58.55 58.55 0 0 1 18.54 19 89.78 89.78 0 0 1 9.81 23.12c2.24 7.87 3.67 16.37 0 22.4"/><path class="cls-3" d="M69.69 73.2s-25.08 23.15 4.05 50c2.36 2.18 5.39 1.87 7.93.16 5.14-3.47 8-8.8 12-13.35a13.9 13.9 0 0 1-.55 4.22c-.93 4.23-3.7 8.24-6.3 11.61-.72.94-1.47 1.88-2.27 2.74S82.8 130 82.47 131c-.4 1.21.88 1.91 1.58 2.64q1.67 1.72 3.42 3.35a111.77 111.77 0 0 0 28.33 19.61c.61.29 6 3 6.3 2.7 0 0 8.62-9.9 10-14.34 0 0-2.06 12.47-4.89 17.1 0 0 21.86 12.09 33.12 12.15 0 0 13.5 1.8 10.35-12.93S118.31 30.76 69.69 73.2z"/></g></svg>