<svg xmlns="http://www.w3.org/2000/svg" xmlns:xlink="http://www.w3.org/1999/xlink" viewBox="0 0 200 200"><defs><style>.cls-1{fill:#b7d6ce;opacity:.5}.cls-2{fill:#f9fcf9}.cls-3{fill:url(#linear-gradient)}.cls-4{fill:url(#linear-gradient-2)}.cls-5{fill:url(#linear-gradient-3)}.cls-6{fill:url(#linear-gradient-4)}.cls-7{fill:url(#linear-gradient-5)}.cls-8{fill:url(#linear-gradient-6)}</style><linearGradient id="linear-gradient" x1="78.12" y1="44.01" x2="120.14" y2="44.01" gradientUnits="userSpaceOnUse"><stop offset=".04" stop-color="#007ba5"/><stop offset=".48" stop-color="#007ba5"/><stop offset="1" stop-color="#028aad"/></linearGradient><linearGradient id="linear-gradient-2" x1="98.73" y1="155.75" x2="98.73" y2="60.79" gradientUnits="userSpaceOnUse"><stop offset="0" stop-color="#5ba9bb"/><stop offset=".98" stop-color="#0d8bae"/></linearGradient><linearGradient id="linear-gradient-3" x1="96.5" y1="70.51" x2="96.5" y2="47.44" xlink:href="#linear-gradient"/><linearGradient id="linear-gradient-4" x1="74.75" y1="140.98" x2="74.75" y2="83" gradientUnits="userSpaceOnUse"><stop offset="0" stop-color="#69bac5"/><stop offset="1" stop-color="#94c6c6"/></linearGradient><linearGradient id="linear-gradient-5" x1="121.25" y1="138.84" x2="121.25" y2="82.37" xlink:href="#linear-gradient-4"/><linearGradient id="linear-gradient-6" x1="98.72" y1="142.89" x2="98.72" y2="80.46" xlink:href="#linear-gradient-4"/></defs><g id="tokens"><circle class="cls-1" cx="101.5" cy="101.5" r="97.5"/><circle class="cls-2" cx="98.5" cy="98.5" r="97.5"/></g><g id="icons"><path class="cls-3" d="M82.12 51.66c0-2.57 0-5.13.1-7.7 0-.09.23-3.79.31-3.85 1-.89 6.14-.15 7.47-.16h6.68c4.45 0 8.9-.08 13.36-.1h2.69q3 .84 2.62 3.67c.72 2.25.57 5.26.83 7.62.45 4.17 7.05 4.22 6.6 0-.5-4.56.47-13.55-3.94-16.46-2.24-1.47-5.31-1.39-7.85-1.43-4.13-.07-8.27.06-12.4.09l-11.45.08c-2.62 0-5.54-.22-8 1-5.33 2.68-3.74 12.38-3.65 17.29.08 4.24 6.67 4.25 6.6 0z"/><path class="cls-4" d="M137.81 65.24l-.1-.33c-1.65-4.94-6.86-3.5-11.93-3.82-14-.88-28.42.44-42.39.91-6.15.21-12.34-.39-18.42.58a9.35 9.35 0 0 0-5.29 2.21c-2.08 2.07-2.25 5.42-2.27 8.42q-.14 19 .35 37.92c.18 6.79.46 13.57.77 20.35.14 3.16.27 6.32.45 9.48.17 2.9.42 6.07 1.68 8.77 2 4.33 6.5 4.77 10.53 5.1l9.51.77c5.14.4 10.34 0 15.49 0 8.55 0 17.1-.15 25.65-.15 5.83-.27 12.66-.11 15.32-5.53a17.54 17.54 0 0 0 1.36-5.41c2.57-19 1.49-38.32.41-57.49-.49-8.76-.47-11.27-1-20z"/><path class="cls-5" d="M141.69 49.83c-2.87-2.74-10.46-2.63-14.82-2.08-7 .89-14 .5-21.09.55-8.75.06-17.5.18-26.25.24-7.09 0-14.25-.09-21.26.14-2.39.08-7.33-.88-8.5 2a5.79 5.79 0 0 0-.3 2.1c-.05 4.78-.75 9.59.57 14.19A2.87 2.87 0 0 0 52 69c2.32 1 8.82 1.11 13.48 1.19l11 .18c5.93.09 11.93 0 17.87 0h29.61c6.22-.06 18 1.76 19.53-6.18.7-3.62 0-7.24-.39-10.84a5.67 5.67 0 0 0-1.41-3.52z"/><path class="cls-6" d="M72.8 83q1 29 .33 58c-.05 2.12 3.25 2.12 3.3 0q.7-29-.33-58c-.07-2.12-3.37-2.13-3.3 0z"/><path class="cls-7" d="M119 82.38q1.41 28.21 1.05 56.45c0 2.12 3.27 2.12 3.3 0q.36-28.24-1.05-56.45c-.11-2.11-3.4-2.12-3.3 0z"/><path class="cls-8" d="M97.05 80.46v62.43a1.65 1.65 0 0 0 3.3 0V80.46a1.65 1.65 0 0 0-3.3 0z"/></g></svg>