<svg xmlns="http://www.w3.org/2000/svg" viewBox="0 0 200 200"><defs><style>.cls-1{fill:#b7d6ce;opacity:.5}.cls-2{fill:#f9fcf9}.cls-3{fill:url(#linear-gradient)}</style><linearGradient id="linear-gradient" x1="20.19" y1="91.41" x2="177.81" y2="91.41" gradientUnits="userSpaceOnUse"><stop offset=".04" stop-color="#007ba5"/><stop offset=".48" stop-color="#007ba5"/><stop offset="1" stop-color="#028aad"/></linearGradient></defs><g id="tokens"><circle class="cls-1" cx="101.5" cy="101.5" r="97.5"/><circle class="cls-2" cx="98.5" cy="98.5" r="97.5"/></g><path class="cls-3" d="M173.91 81.84a14.45 14.45 0 0 0-5.54-.34 32.48 32.48 0 0 0-10.44 3.22 35.18 35.18 0 0 0-3.91 2.2c-.87.57-1.89 1.55-3 1.4a5.41 5.41 0 0 1-1.66-.62 74.88 74.88 0 0 0-9.05-3.6 1.26 1.26 0 0 1-.57-.32 1.15 1.15 0 0 1-.22-.57c-.57-3.46 1.73-7.43 3.78-10 1.41-1.79 1.67-3.09-.64-4.31-4.13-2.18-7.74 4.36-9.69 8.79-.4.91-.95 2.45-2.07 2.67a3.81 3.81 0 0 1-1.33-.06c-2.29-.38-6.48 0-7.78-2.49a4 4 0 0 1-.3-2.05c.21-4.13 2.41-6.86 3.73-10.57.69-1.94-.13-3.39-2.16-3.72-5.94-1-8.19 8.27-9.17 12.4s-3.68 3.83-3.68 3.83a39.23 39.23 0 0 1-5.26.15c-3.71-.08-3.84-3.44-3.4-6.41.5-3.33 1.37-6.65 1.92-10 .39-2.35.34-6.5-3.18-5.86-4.9.89-5.5 9.22-5.62 13-.09 2.82.38 5.57-.1 8.39a3.24 3.24 0 0 1-2.92 2.83c-2 .44-4 1-5.94 1.57-4.21 1.28-4.06-2.78-4.06-2.78A63.76 63.76 0 0 1 81 66.7c.38-5.48-1.73-5.41-2.7-5.64s-2.63.08-4.13 3.68.15 14.8.6 17.58-.75 3.23-.75 3.23a41.24 41.24 0 0 0-5.41 3.08c-4.36 2.7-5.79-.3-5.79-.3l-1.5-2.86c-2.08-4-3.47-9-7.91-11.13-5.6-2.72-11.6 2.78-14.93 6.7C27 94.57 17.71 108.17 20.79 117.86s23.44 11 42 8.11 11.8-13.75 11.8-13.75-2.1-5-4.73-9.84-.23-4.73 0-5A57.9 57.9 0 0 1 76 94c2.55-1.2 2.55.83 2.55.83l3.68 8.19c3.68 8.19 7.59 11.65 9.84 10.44s1.65-4.66.9-5.26-4.81-9-7.21-13.82c-1.12-2.24-1.19-4 1.19-4.75 1.8-.59 6.52-3.73 7.91-1.07.69 1.31.86 3.31 1.26 4.77 1 3.58 5.85 22.16 12.33 17.58 2.55-1.8 2.25-4.21.45-6.16s-4.36-9.62-5.26-13.37c-.25-1.06-.81-2.57-.18-3.59 1.3-2.1 10.12-4 9.94.14 0 .07-.13 3.25 2 11.27s4.81 7.81 6.46 7.21 1.8-1.2 2.4-2.55-1.8-5.71-3-10.22c-.72-2.7-.42-5.62 3-5.69 3.07-.06 5.15 1.08 5.2 4.26 0 2.65 1 12.44 5.35 11.95 5.45-.61-.35-13.81 7.52-10.67a20.17 20.17 0 0 1 3.67 2.14c.41.27 2.49 1.37 2.58 1.79a100.76 100.76 0 0 0 5.42 19.23c.7 1.69 3.23 5.13 4.6 3.37 2.65-3.4 4.37-8 5.81-11.52 3.34-8.2 8.09-15.73 13-23.09a2.07 2.07 0 0 0 .4-.89c.13-1.32-2.94-2.41-3.9-2.68zM56.21 101a1.91 1.91 0 0 1-2.52 1l-5.41-2.4-2.4 5.4a1.91 1.91 0 1 1-3.5-1.55l2.4-5.41-5.41-2.4a1.91 1.91 0 0 1 1.55-3.5l5.41 2.4L49.71 87a1.91 1.91 0 1 1 3.5 1.55l-3.37 7.6 5.41 2.4a1.91 1.91 0 0 1 .96 2.45z" id="icons"/></svg>