<svg xmlns="http://www.w3.org/2000/svg" xmlns:xlink="http://www.w3.org/1999/xlink" viewBox="0 0 200 200"><defs><style>.cls-1{fill:#b7d6ce;opacity:.5}.cls-2{fill:#f9fcf9}.cls-3{fill:url(#linear-gradient)}.cls-4{fill:#94c6c6}.cls-5{fill:url(#linear-gradient-2)}.cls-6{fill:url(#linear-gradient-3)}</style><linearGradient id="linear-gradient" x1="134.93" y1="68.64" x2="134.93" y2="44.8" gradientUnits="userSpaceOnUse"><stop offset=".02" stop-color="#007ba5"/><stop offset="1" stop-color="#5ba9bb"/></linearGradient><linearGradient id="linear-gradient-2" x1="97.54" y1="155.05" x2="97.54" y2="71.07" gradientUnits="userSpaceOnUse"><stop offset="0" stop-color="#efdb8a"/><stop offset="1" stop-color="#efc082"/></linearGradient><linearGradient id="linear-gradient-3" x1="97.54" y1="89.9" x2="97.54" y2="29.27" xlink:href="#linear-gradient"/></defs><g id="tokens"><circle class="cls-1" cx="101.5" cy="101.5" r="97.5"/><circle class="cls-2" cx="98.5" cy="98.5" r="97.5"/></g><g id="icons"><path class="cls-3" d="M130.08 62c.1-2.92.28-5.84.41-8.75.1-2.32-1.07-5.73 1-7.82 1.09-1.09 2.44-.52 4.31-.56 2.79-.06 3.82.25 3.74 1.89-.33 6.87.61 15 0 21.85 0-.25-1.76-1.76-1.78-2"/><path class="cls-4" d="M52.19 71.21V151a4.09 4.09 0 0 0 4.09 4.09h82.52a4.09 4.09 0 0 0 4.09-4.09V71.07M100.4 56.3a4.09 4.09 0 0 0-5.72 0"/><path class="cls-5" d="M52.19 71.21V151a4.09 4.09 0 0 0 4.09 4.09h28.63q.34-17.76.69-35.52c0-1.33 0-2.66.06-4 0-2.33 1.52-2.47 3.54-2.6 3.25-.22 6.5-.35 9.76-.28 2 0 6.61-.5 8 1.34a6.66 6.66 0 0 1 .83 3.55l1.82 37.51h29.21a4.09 4.09 0 0 0 4.09-4.09V71.07z"/><path class="cls-6" d="M44.14 83.48a5 5 0 0 0 2.68 4.37 14.72 14.72 0 0 0 7.24 1.89c25 .68 47.18-1 74.57-.9 4 0 8 .4 12 .38 3.76 0 6.36.49 8.71-2.25 2.19-2.57 2-4.83.35-7.9-4.2-7.93-11.22-13.67-17.5-19.94-8.34-8.33-16.51-16.88-25.11-24.94-2.3-2.16-4.84-4.2-7.77-4.76-4.49-.85-8.52 2-11.61 4.88-8.28 7.85-16.47 15.81-24.44 24q-6.08 6.23-12 12.62C48.13 74.3 44 78.5 44.14 83.48z"/></g></svg>