<svg xmlns="http://www.w3.org/2000/svg" xmlns:xlink="http://www.w3.org/1999/xlink" viewBox="0 0 200 200"><defs><style>.cls-1{fill:url(#linear-gradient)}.cls-2{fill:url(#linear-gradient-2)}.cls-3{fill:url(#linear-gradient-3)}</style><linearGradient id="linear-gradient" x1="125.54" y1="109.39" x2="136.99" y2="109.39" gradientUnits="userSpaceOnUse"><stop offset="0" stop-color="#efdb8a"/><stop offset="1" stop-color="#efc082"/></linearGradient><linearGradient id="linear-gradient-2" x1="72.16" y1="139.18" x2="130.55" y2="139.18" xlink:href="#linear-gradient"/><linearGradient id="linear-gradient-3" x1="56.78" y1="111.53" x2="146.8" y2="21.5" gradientUnits="userSpaceOnUse"><stop offset=".02" stop-color="#007ba5"/><stop offset="1" stop-color="#5ba9bb"/></linearGradient></defs><g id="icons"><path class="cls-1" d="M133.67 112V95.86h-4.83V112a5.82 5.82 0 0 0-3.3 5.21 5.72 5.72 0 0 0 11.44 0 5.41 5.41 0 0 0-3.31-5.21z"/><path class="cls-2" d="M125.55 166.28c-1.9-.12-3.83-.18-5.72-.19a33.25 33.25 0 0 1-7.44-.42c-2.27-.55-3.44-1.68-3.5-4.12-.14-5.38.49-65.68.24-65.68H93.38c0 10.86.51 21.62.51 32.48 0 6.27.21 12.53.38 18.79.09 3.19-.34 6.47-.3 9.67 0 2.19.7 5.49-1 7.19S88 166 86 166c-3.87 0-13.85-2.7-13.85 3.77v7.46a4.1 4.1 0 0 0 4.14 4.14c10.26 0 20.52.09 30.77.35 4.37.11 20.78 2.86 23.06-2.93a8.46 8.46 0 0 0 .4-3.08v-4.24c0-2.28-.1-4.82-2.91-5.07z"/><path class="cls-3" d="M66 19.89c-4.59-1-7.68 2.47-9.68 6.15A220 220 0 0 0 34.74 84.3a8.78 8.78 0 0 0-.22 4c.71 2.75 3.73 4.14 6.44 4.92C50.49 96 60.48 96 70.28 95.83c22.63-.33 45.26 2.86 67.87 1.24a115.76 115.76 0 0 0 21.57-3.67 10 10 0 0 0 4-1.8c2.89-2.43 1.74-8.51 1.63-11.86-.16-4.82-2.23-9.63-2.9-14.41a137.9 137.9 0 0 0-7.08-28.38c-1.78-4.86-2.31-9.8-6.27-13.11-4.49-3.75-10-4.72-15.61-5.44-10.35-1.33-20.82-.89-31.21-.5l-18.76.7-9.2.34c-2.64.1-5.72-.16-8.28 1"/></g></svg>