<svg xmlns="http://www.w3.org/2000/svg" xmlns:xlink="http://www.w3.org/1999/xlink" viewBox="0 0 200 200"><defs><style>.cls-1{fill:url(#linear-gradient)}.cls-2{fill:url(#linear-gradient-2)}.cls-3{fill:url(#linear-gradient-3)}.cls-4{fill:url(#linear-gradient-4)}.cls-5{fill:url(#linear-gradient-5)}</style><linearGradient id="linear-gradient" x1="100" y1="175.46" x2="100" y2="48.92" gradientUnits="userSpaceOnUse"><stop offset="0" stop-color="#5ba9bb"/><stop offset=".98" stop-color="#007ba5"/></linearGradient><linearGradient id="linear-gradient-2" x1="-1000.13" y1="222.15" x2="-884.55" y2="222.15" gradientTransform="rotate(-8.1 -1270.914 -7391.208)" gradientUnits="userSpaceOnUse"><stop offset="0" stop-color="#efb27d"/><stop offset="1" stop-color="#efdb8a"/></linearGradient><linearGradient id="linear-gradient-3" x1="90.25" y1="101.12" x2="162.29" y2="101.12" gradientUnits="userSpaceOnUse"><stop offset="0" stop-color="#ea9e76"/><stop offset=".99" stop-color="#efc082"/></linearGradient><linearGradient id="linear-gradient-4" x1="37.94" y1="43.34" x2="55.67" y2="43.34" gradientUnits="userSpaceOnUse"><stop offset=".04" stop-color="#007ba5"/><stop offset=".48" stop-color="#007ba5"/><stop offset="1" stop-color="#028aad"/></linearGradient><linearGradient id="linear-gradient-5" x1="54.7" y1="45.7" x2="74.3" y2="45.7" xlink:href="#linear-gradient-4"/></defs><g id="icons"><path class="cls-1" d="M182.32 137.1c-24.48 5.62-50.21 8.81-75 3-9.87-2.31-19.76-6.25-26.91-13.74C68.32 113.65 66.61 93.55 69 75.74c.58-4.33 1.36-8.77.4-13-2.13-9.43-12.55-14.81-21.72-13.63s-17.47 7.71-22.44 16.04-7 18.26-7.46 28.06C16.91 112 22 131.5 33.64 145.82c8.65 10.6 20.51 18 33.11 22.47s25.94 6.26 39.23 6.92c12.36.62 24.9.29 36.84-3.11 17.22-4.9 32.78-17.35 39.5-35"/><path class="cls-2" d="M67.19 133.08c-2.53-16-2.08-32.63 5.14-45.88 6.78-12.44 19.05-24.68 31.41-30.11 24.13-10.6 58.35-1.18 70.28 24.6 3.75 8.1 6.07 20.33 6.07 29.32 0 23.18-19.71 36.23-39.36 39.12a53.36 53.36 0 0 1-29.82-4.53c-2.28-1-4.67-3.12-7-3.84-2.21-.67-4.5 1.13-6.93 1.81-12.73 3.57-20.07-2-29.75-10.5"/><path class="cls-3" d="M95.79 123c-3.86-6.75-1.66-17.53.82-24.43a35.6 35.6 0 0 1 11.18-15.81c10-8 24.52-10.3 35.91-3.93 12.71 7.12 19.12 24.15 11.75 37.32-7.62 13.62-28.52 14.83-36.95 1.19-5-8.12-1.52-20.37 9-21.27 4.53-.38 8.34 1.37 10.47 5.52 1 2 1.74 4.9.47 6.95-1.38 2.23-3.54 2.25-5.13.29-2.55-3.15-7 1.33-4.45 4.45 5.62 6.93 15.5 2.24 16.46-5.91 1.16-9.78-7.65-18-17.06-17.62a19.47 19.47 0 0 0-18.62 20c.39 10.33 8.26 18.83 17.73 22.07 21.67 7.4 40.43-12.05 36.92-33.49-3.46-21.16-25.19-33.51-45.39-28.08a41.67 41.67 0 0 0-24.9 19c-5.72 9.84-9.69 26.46-3.68 37 2 3.52 7.45.35 5.44-3.18z"/><path class="cls-4" d="M42.28 61.44a34 34 0 0 1 14.64-34.18c3.34-2.25.19-7.71-3.18-5.44a40.59 40.59 0 0 0-17.53 41.3c.68 4 6.75 2.3 6.07-1.67z"/><path class="cls-5" d="M58.79 64.13c-1.52-14 4.66-26.82 16.79-34 3.49-2.06.32-7.5-3.18-5.44a40.33 40.33 0 0 0-19.9 39.44c.43 4 6.73 4 6.29 0z"/></g></svg>