<svg xmlns="http://www.w3.org/2000/svg" viewBox="0 0 200 200"><defs><style>.cls-1{fill:url(#linear-gradient)}.cls-2{fill:url(#linear-gradient-2)}</style><linearGradient id="linear-gradient" x1="37.99" y1="100" x2="162.01" y2="100" gradientUnits="userSpaceOnUse"><stop offset="0" stop-color="#5ba9bb"/><stop offset=".98" stop-color="#007ba5"/></linearGradient><linearGradient id="linear-gradient-2" x1="841.89" y1="1782.12" x2="877.66" y2="1831.5" gradientTransform="matrix(.72 .04 -.02 .84 -478.67 -1435.36)" gradientUnits="userSpaceOnUse"><stop offset="0" stop-color="#efb27d"/><stop offset="1" stop-color="#efdb8a"/></linearGradient></defs><g id="icons"><path class="cls-1" d="M38.17 157.58c0 12.95 11.87 24.1 24.82 24.1h73.73c12.95 0 25.17-11 25.17-24.1v-43.27q0-21.63.11-43.31c0-3.79.07-7.57 0-11.36a4.08 4.08 0 0 0-.25-1.67c-1-2.26-4.81-1.79-6.8-1.86-5.7-.2-11.3-.06-17 .25a.37.37 0 0 1-.49-.39c-.44-5.06-1.11-10.11-3.05-14.85a36.72 36.72 0 0 0-3.48-6.54 36 36 0 0 0-2.31-3.07 22.29 22.29 0 0 0-2.35-2.51c-1.4-1.23-2.8-2.46-4.29-3.57-10.27-7.66-24.47-9.11-36.26-4.3q-.91.37-1.79.79a36.85 36.85 0 0 0-10.42 7.34C66.21 36.57 63 46.18 62.6 56.34c-2.38 0-4.76-.18-7.13-.23s-5 .32-7.53.32c-3.67.5-8.24 1.77-9.59 5.67-.5 1.4-.35 10.33-.35 11.8-.09 26 .26 18.5.24 33 0 15.19-.08 30.38-.08 45.57zM100 31.89a23.71 23.71 0 0 1 23.74 23.74v.72H76.47v-.72A23.45 23.45 0 0 1 100 31.89z"/><path class="cls-2" d="M100.7 136.57h-.32c-1.94 0-3.57-1.15-5.21-2a36.56 36.56 0 0 1-6-3.88 50.48 50.48 0 0 1-10-10.78 29.42 29.42 0 0 1-4.77-12.61 15.88 15.88 0 0 1 1.17-8.69A11.13 11.13 0 0 1 85 92c6-.31 11.11 3 14.55 7.39-.14-.18 1.84-2.22 2.07-2.47 6.28-6.44 18.45-6.22 22.7 2.21a14.18 14.18 0 0 1 1.47 6c.2 8.63-4.9 17.52-11.39 23.32q-.85.76-1.74 1.47a59.14 59.14 0 0 1-5.55 3.94c-1.96 1.14-4.11 2.49-6.41 2.71z"/></g></svg>