<svg id="Layer_1" xmlns="http://www.w3.org/2000/svg" viewBox="0 0 150 50"><style>.st0{fill:#1ed760}</style><path class="st0" d="M23.3 2.6c-12.2 0-22.1 9.9-22.1 22.1 0 12.2 9.9 22.1 22.1 22.1 12.2 0 22.1-9.9 22.1-22.1 0-12.2-9.9-22.1-22.1-22.1zm10.1 31.9c-.4.7-1.2.9-1.9.5-5.2-3.2-11.7-3.9-19.4-2.1-.7.2-1.5-.3-1.6-1-.2-.7.3-1.5 1-1.6 8.4-1.9 15.6-1.1 21.5 2.5.6.2.8 1.1.4 1.7zm2.7-6c-.5.8-1.6 1.1-2.4.6-5.9-3.7-15-4.7-22-2.6-.9.3-1.9-.2-2.2-1.1-.3-.9.2-1.9 1.1-2.1 8-2.4 18-1.3 24.8 2.9.9.4 1.2 1.5.7 2.3zm.2-6.3c-7.1-4.2-18.9-4.6-25.7-2.6-1.1.3-2.2-.3-2.6-1.4-.3-1.1.3-2.2 1.4-2.6 7.8-2.4 20.8-1.9 29 3 1 .6 1.3 1.9.7 2.8-.5 1.1-1.8 1.4-2.8.8zm25 .8c-3.8-.9-4.5-1.5-4.5-2.9 0-1.3 1.2-2.1 3-2.1 1.7 0 3.4.6 5.2 2 .1 0 .1.1.2 0 .1 0 .1 0 .2-.1l1.9-2.6c.1-.1.1-.3 0-.3-2.1-1.7-4.5-2.5-7.3-2.5-4.1 0-7 2.5-7 6 0 3.8 2.5 5.1 6.8 6.2 3.7.8 4.3 1.5 4.3 2.8 0 1.4-1.2 2.3-3.3 2.3-2.2 0-4-.8-6.1-2.5-.1 0-.1-.1-.2-.1s-.1 0-.2.1l-2.1 2.5c-.2 0-.2.2-.1.2 2.4 2.1 5.3 3.2 8.4 3.2 4.4 0 7.3-2.4 7.3-6.2 0-3.1-1.9-4.8-6.5-6zm16.6-3.7c-1.9 0-3.5.8-4.8 2.3v-1.7c0-.1-.1-.3-.2-.3h-3.4c-.1 0-.2.1-.2.3v19.4c0 .1.1.3.2.3h3.4c.1 0 .2-.1.2-.3v-6.1c1.3 1.5 2.9 2.2 4.8 2.2 3.6 0 7.2-2.8 7.2-8 0-5.4-3.7-8.1-7.2-8.1zm3.2 8c0 2.7-1.7 4.5-4 4.5s-4.1-2-4.1-4.5c0-2.6 1.8-4.5 4.1-4.5 2.3-.1 4 1.8 4 4.5zm13.2-8c-4.6 0-8.2 3.5-8.2 8.1 0 4.5 3.6 8 8.2 8s8.2-3.5 8.2-8c0-4.6-3.6-8.1-8.2-8.1zm0 12.6c-2.4 0-4.3-2-4.3-4.6 0-2.6 1.8-4.5 4.2-4.5 2.5 0 4.3 2 4.3 4.6.1 2.6-1.7 4.5-4.2 4.5zm18.1-12.3h-3.8v-3.8c0-.1-.1-.3-.2-.3H105c-.1 0-.3.1-.3.3v3.8H103c-.1 0-.2.1-.2.3v2.9c0 .1.1.3.2.3h1.6v7.6c0 3.1 1.5 4.6 4.5 4.6 1.2 0 2.2-.3 3.2-.8.1 0 .1-.1.1-.2v-2.8c0-.1 0-.2-.1-.2h-.2c-.7.3-1.3.5-2 .5-1.1 0-1.6-.5-1.6-1.6V23h3.8c.1 0 .2-.1.2-.3v-2.9c.1-.1 0-.2-.1-.2zm13.1 0v-.5c0-1.4.5-2 1.7-2 .7 0 1.3.1 1.9.4h.2c.1 0 .1-.1.1-.2v-2.9c0-.1-.1-.2-.2-.2-.7-.2-1.5-.4-2.8-.4-3.2 0-4.8 1.8-4.8 5.1v.7H120c-.1 0-.3.1-.3.3v3c0 .1.1.3.3.3h1.6v11.7c0 .1.1.3.2.3h3.4c.1 0 .3-.1.3-.3V23h3.2l4.9 11.7c-.6 1.2-1.1 1.5-1.8 1.5-.6 0-1.2-.2-1.9-.5h-.2c-.1 0-.1.1-.1.1l-1.2 2.5c-.1.1 0 .3.1.3 1.2.7 2.3.9 3.6.9 2.5 0 3.9-1.2 5.1-4.3l5.9-15.3v-.2c0-.1-.1-.1-.2-.1h-3.6c-.1 0-.2.1-.2.2l-3.6 10.4-4-10.4c0-.1-.1-.2-.2-.2h-5.8zm-7.6 0h-3.4c-.1 0-.3.1-.3.3v14.9c0 .1.1.3.3.3h3.4c.1 0 .3-.1.3-.3v-15c-.1-.1-.2-.2-.3-.2z"/><circle class="st0" cx="116.2" cy="15.2" r="2.5"/><path class="st0" d="M146.1 24.4c-1.4 0-2.4-1.1-2.4-2.4s1.1-2.4 2.4-2.4c1.4 0 2.4 1.1 2.4 2.4 0 1.3-1.1 2.4-2.4 2.4zm0-4.6c-1.2 0-2.2 1-2.2 2.2 0 1.2.9 2.2 2.2 2.2 1.2 0 2.2-1 2.2-2.2 0-1.2-1-2.2-2.2-2.2zm.5 2.4l.7 1h-.6l-.6-.9h-.5v.9h-.5v-2.5h1.1c.6 0 1 .3 1 .8 0 .3-.2.6-.6.7zm-.4-1.1h-.6v.8h.6c.3 0 .5-.2.5-.4 0-.3-.2-.4-.5-.4z"/></svg>